<svg xmlns="http://www.w3.org/2000/svg" width="81.267mm" height="81.267mm" version="1.1" viewBox="0 0 156.38 156.38">
    <g>
        <path fill="#E08A2F"
              d="M91.19 62.26c-1.37,0.21 -1.62,-1.05 -1.97,-1.83 -0.35,-0.78 -0.59,-2.27 1.07,-2.64 1.66,-0.37 8.53,-1 13.98,0.61 6.19,1.83 7.33,4.24 5.89,5.09 -1.43,0.85 -1.9,-0.22 -5.24,-1.05 -1.57,-0.39 -4.22,-1.64 -13.73,-0.2z"></path>
        <path fill="#874123"
              d="M91 61.34c-1.37,0.21 -1.62,-1.05 -1.97,-1.83 -0.35,-0.78 -0.59,-2.27 1.07,-2.64 1.66,-0.37 8.53,-1 13.98,0.61 6.19,1.83 7.33,4.24 5.89,5.09 -1.43,0.85 -1.9,-0.22 -5.24,-1.05 -1.57,-0.39 -4.22,-1.64 -13.73,-0.2z"></path>
        <path fill="#BA5E29" d="M97.25 57.53c0.35,0.4 1.61,0.06 1.11,-0.27 -0.5,-0.33 -1.41,-0.08 -1.11,0.27z"></path>
        <path fill="#BA5E29"
              d="M90.09 57.8c0.33,-0.52 1.61,-0.38 2.97,-0.53 1.37,-0.15 2.96,-0.23 2.43,0.05 -0.53,0.29 -3.35,0.51 -3.67,0.9 -0.32,0.4 -0.25,1.19 -0.98,1.22 -0.73,0.03 -1.04,-1.21 -0.76,-1.65z"></path>
    </g>
    <g>
        <path fill="#E08A2F"
              d="M65.31 62.75c1.34,0.28 1.76,-1.03 2.21,-1.82 0.45,-0.8 0.89,-2.35 -0.71,-2.82 -1.6,-0.47 -8.37,-1.45 -14.02,-0.01 -6.42,1.63 -7.87,4.11 -6.56,5.07 1.31,0.96 1.92,-0.14 5.37,-0.85 1.62,-0.33 4.43,-1.52 13.72,0.44z"></path>
        <path fill="#874123"
              d="M65.62 61.8c1.34,0.28 1.76,-1.03 2.21,-1.82 0.45,-0.8 0.89,-2.35 -0.71,-2.82 -1.6,-0.47 -8.37,-1.45 -14.02,-0.01 -6.42,1.63 -7.87,4.11 -6.56,5.07 1.31,0.96 1.92,-0.14 5.37,-0.85 1.62,-0.33 4.43,-1.52 13.72,0.44z"></path>
        <path fill="#BA5E29" d="M59.9 57.5c-0.41,0.41 -1.61,-0.01 -1.07,-0.33 0.54,-0.32 1.42,-0.02 1.07,0.33z"></path>
        <path fill="#BA5E29"
              d="M67.01 58.12c-0.26,-0.56 -1.55,-0.47 -2.89,-0.7 -1.35,-0.22 -2.92,-0.38 -2.43,-0.06 0.49,0.33 3.27,0.69 3.54,1.12 0.26,0.43 0.09,1.26 0.81,1.33 0.72,0.07 1.19,-1.22 0.98,-1.69z"></path>
    </g>
</svg>