<svg xmlns="http://www.w3.org/2000/svg" width="81.267mm" height="81.267mm" version="1.1" viewBox="0 0 156.38 156.38">
    <g>
        <g>
            <path fill="#E08A2F"
                  d="M91.19 56.77c-1.37,0.36 -1.62,-1.82 -1.97,-3.17 -0.35,-1.35 -0.59,-3.93 1.07,-4.57 1.66,-0.64 8.53,-1.74 13.98,1.07 6.19,3.18 7.33,7.36 5.89,8.84 -1.43,1.48 -1.9,-0.38 -5.24,-1.82 -1.57,-0.67 -4.22,-2.84 -13.73,-0.34z"></path>
            <path fill="#874123"
                  d="M91 55.17c-1.37,0.36 -1.62,-1.82 -1.97,-3.17 -0.35,-1.35 -0.59,-3.93 1.07,-4.57 1.66,-0.64 8.53,-1.74 13.98,1.07 6.19,3.18 7.33,7.36 5.89,8.84 -1.43,1.48 -1.9,-0.38 -5.24,-1.82 -1.57,-0.67 -4.22,-2.84 -13.73,-0.34z"></path>
            <path fill="#BA5E29"
                  d="M97.25 48.55c0.35,0.7 1.61,0.1 1.11,-0.47 -0.5,-0.57 -1.41,-0.15 -1.11,0.47z"></path>
            <path fill="#BA5E29"
                  d="M90.09 49.02c0.33,-0.91 1.61,-0.65 2.97,-0.92 1.37,-0.27 2.96,-0.4 2.43,0.1 -0.53,0.5 -3.35,0.88 -3.67,1.56 -0.32,0.69 -0.25,2.06 -0.98,2.12 -0.73,0.06 -1.04,-2.09 -0.76,-2.86z"></path>
        </g>
        <g>
            <path fill="#E08A2F"
                  d="M65.31 57.89c1.34,0.47 1.76,-1.69 2.21,-3.01 0.45,-1.32 0.89,-3.88 -0.71,-4.64 -1.6,-0.77 -8.37,-2.39 -14.02,-0.02 -6.42,2.69 -7.87,6.77 -6.56,8.35 1.31,1.58 1.92,-0.23 5.37,-1.4 1.62,-0.55 4.43,-2.51 13.72,0.72z"></path>
            <path fill="#874123"
                  d="M65.62 56.31c1.34,0.47 1.76,-1.69 2.21,-3.01 0.45,-1.32 0.89,-3.88 -0.71,-4.64 -1.6,-0.77 -8.37,-2.39 -14.02,-0.02 -6.42,2.69 -7.87,6.77 -6.56,8.35 1.31,1.58 1.92,-0.23 5.37,-1.4 1.62,-0.55 4.43,-2.51 13.72,0.72z"></path>
            <path fill="#BA5E29"
                  d="M59.9 49.23c-0.41,0.67 -1.61,-0.02 -1.07,-0.55 0.54,-0.53 1.42,-0.04 1.07,0.55z"></path>
            <path fill="#BA5E29"
                  d="M67.01 50.25c-0.26,-0.93 -1.55,-0.77 -2.89,-1.15 -1.35,-0.37 -2.92,-0.63 -2.43,-0.09 0.49,0.54 3.27,1.13 3.54,1.84 0.26,0.71 0.09,2.07 0.81,2.19 0.72,0.11 1.19,-2.01 0.98,-2.79z"></path>
        </g>
    </g>
</svg>