<svg xmlns="http://www.w3.org/2000/svg" width="81.267mm" height="81.267mm" version="1.1" viewBox="0 0 150.58 150.58"><g><path fill="#B67A45" d="M85.72 34.27c6.57,-7.88 -0.76,-14.57 -7.5,-14.85 -27.3,-1.13 -40.84,3.34 -48.83,15.91 -3.47,5.46 -2.16,15.13 -3.41,21.06 -1.21,5.75 -9.06,13.3 -8.78,18.8 0.17,3.42 2.3,6.49 2.36,9.73 0.07,3.76 -1.84,7.59 -0.44,10.07 4.67,8.23 8.5,13.65 16.11,3.41 8.92,-12.02 1.59,-40.08 9.6,-52.25 8.19,-12.44 25.39,-11.35 40.88,-11.88z"></path><path fill="#8C5320" d="M85.72 34.27c5.15,-6.19 1.75,-11.63 -3.21,-13.83 3.55,2.67 5.21,7.32 0.91,12.48 -15.5,0.53 -32.7,-0.56 -40.88,11.88 -8.01,12.17 -0.68,40.22 -9.6,52.25 -3.49,4.7 -6.19,6.1 -8.53,5.45 2.9,2.57 6.15,2.21 10.84,-4.1 8.92,-12.02 1.59,-40.08 9.6,-52.25 8.19,-12.44 25.39,-11.35 40.88,-11.88z"></path><path fill="#B67A45" d="M84.41 31.04c0.1,-3.22 4.53,-5.46 7.72,-5.59 25.26,-1.05 24.65,7.58 28.93,25.06 0.58,2.39 3.74,11.62 5.99,20.95 2.02,8.35 3.32,16.77 1.42,20.43 -2.7,5.18 -5.26,8.44 -9.96,2.11 -5.52,-7.43 -2.07,-36.19 -7.02,-43.71 -3.04,-4.62 -8.03,-8.24 -13.65,-10.67 -0.6,-0.26 -4.73,-0.83 -7.59,-2.09 -2.25,-1 -5.94,-3.53 -5.85,-6.49z"></path><path fill="#8C5320" d="M84.41 31.04c0.08,-2.63 3.05,-4.6 5.87,-5.31 -1.93,0.98 -3.49,2.54 -3.55,4.44 -0.09,2.96 3.6,5.49 5.85,6.49 2.86,1.27 6.99,1.83 7.59,2.09 5.62,2.43 10.61,6.05 13.65,10.67 4.95,7.52 1.5,36.28 7.02,43.71 1.73,2.33 3.17,3.36 4.43,3.48 -1.8,1.55 -3.87,1.27 -6.75,-2.61 -5.52,-7.43 -2.07,-36.19 -7.02,-43.71 -3.04,-4.62 -8.03,-8.24 -13.65,-10.67 -0.6,-0.26 -4.73,-0.83 -7.59,-2.09 -2.25,-1 -5.94,-3.53 -5.85,-6.49z"></path><path fill="#E7A873" d="M55.12 22.9c8.51,-2 7.67,-2.02 0.24,1.37 -3.71,1.69 -8.13,2.01 -11.83,3.67 -3.51,1.58 -4.83,3.23 -7.59,5.93 -10.32,10.07 -3.37,2.69 1.17,-3.47 5.06,-6.86 9.61,-5.53 18.02,-7.5z"></path><path fill="#E7A873" d="M105.44 28.36c-3.78,-1.42 -3.41,-1.44 -0.1,0.98 1.65,1.2 3.61,1.43 5.26,2.62 1.56,1.12 2.14,2.31 3.37,4.23 4.59,7.18 1.5,1.92 -0.52,-2.48 -2.25,-4.89 -4.27,-3.94 -8.01,-5.35z"></path><path fill="#8C5320" d="M28.42 81.66c0.49,4.01 -1.07,7.01 -4.9,8.9 5.72,-1.03 7.14,-4.12 4.9,-8.9z"></path><path fill="#8C5320" d="M32.05 87.82c-0.01,8.41 -12.8,13.21 -10.67,0.29 -2.72,5.86 0.63,8.9 4.32,8.98 3.79,0.08 7.95,-2.95 6.35,-9.27z"></path><path fill="#8C5320" d="M33.87 70.34c-0.01,8.41 -15.18,13.21 -12.66,0.29 -3.22,5.86 0.74,8.9 5.13,8.98 4.5,0.08 9.43,-2.95 7.53,-9.27z"></path><path fill="#8C5320" d="M25.9 75.38c-2.46,-2.2 -3.11,-4.88 -1.78,-8.11 -2.96,3.71 -2.18,6.37 1.78,8.11z"></path><path fill="#8C5320" d="M119.29 83.25c0,4.2 6.4,6.61 5.33,0.14 1.36,2.93 -0.31,4.45 -2.16,4.49 -1.89,0.04 -3.98,-1.48 -3.17,-4.63z"></path><path fill="#8C5320" d="M124.28 93.48c2.46,-3.41 3.11,-7.57 1.78,-12.56 2.96,5.74 2.18,9.87 -1.78,12.56z"></path><path fill="#8C5320" d="M119.08 74.15c0,4.2 7.59,6.61 6.33,0.14 1.61,2.93 -0.37,4.45 -2.56,4.49 -2.25,0.04 -4.72,-1.48 -3.77,-4.63z"></path><path fill="#8C5320" d="M122.92 66.32c-1.95,2.17 -2.27,4.6 -0.79,7.31 -2.96,-2.98 -2.53,-5.41 0.79,-7.31z"></path><path fill="#8C5320" d="M69.89 29.74c8.01,1.69 17.22,-6.84 4.15,-7.86 6.56,-0.84 8.25,2.25 6.98,5.01 -1.3,2.83 -5.7,5.31 -11.13,2.85z"></path></g></svg>