<svg xmlns="http://www.w3.org/2000/svg" width="81.267mm" height="81.267mm" version="1.1" viewBox="0 0 150.58 150.58"><g><path fill="#C5C6C6" d="M57.92 28.08c-1.38,0 -2.49,1.12 -2.49,2.49 0,1.38 1.12,2.49 2.49,2.49 1.38,0 2.49,-1.12 2.49,-2.49 0,-1.38 -1.12,-2.49 -2.49,-2.49z"></path><path fill="#FEFEFE" d="M58.24 28.31c-1.38,0 -2.49,1.12 -2.49,2.49 0,1.38 1.12,2.49 2.49,2.49 1.38,0 2.49,-1.12 2.49,-2.49 0,-1.38 -1.12,-2.49 -2.49,-2.49z"></path></g><g><path fill="#C5C6C6" d="M53.99 28.24c-1.38,0 -2.49,1.12 -2.49,2.49 0,1.38 1.12,2.49 2.49,2.49 1.38,0 2.49,-1.12 2.49,-2.49 0,-1.38 -1.12,-2.49 -2.49,-2.49z"></path><path fill="#FEFEFE" d="M54.31 28.47c-1.38,0 -2.49,1.12 -2.49,2.49 0,1.38 1.12,2.49 2.49,2.49 1.38,0 2.49,-1.12 2.49,-2.49 0,-1.38 -1.12,-2.49 -2.49,-2.49z"></path></g><g><path fill="#C5C6C6" d="M50.69 29.05c-1.38,0 -2.49,1.12 -2.49,2.49 0,1.38 1.12,2.49 2.49,2.49 1.38,0 2.49,-1.12 2.49,-2.49 0,-1.38 -1.12,-2.49 -2.49,-2.49z"></path><path fill="#FEFEFE" d="M51 29.29c-1.38,0 -2.49,1.12 -2.49,2.49 0,1.38 1.12,2.49 2.49,2.49 1.38,0 2.49,-1.12 2.49,-2.49 0,-1.38 -1.12,-2.49 -2.49,-2.49z"></path></g><g><path fill="#C5C6C6" d="M46.72 30.25c-1.38,0 -2.49,1.12 -2.49,2.49 0,1.38 1.12,2.49 2.49,2.49 1.38,0 2.49,-1.12 2.49,-2.49 0,-1.38 -1.12,-2.49 -2.49,-2.49z"></path><path fill="#FEFEFE" d="M47.04 30.48c-1.38,0 -2.49,1.12 -2.49,2.49 0,1.38 1.12,2.49 2.49,2.49 1.38,0 2.49,-1.12 2.49,-2.49 0,-1.38 -1.12,-2.49 -2.49,-2.49z"></path></g><g><path fill="#C5C6C6" d="M42.53 32.3c-1.38,0 -2.49,1.12 -2.49,2.49 0,1.38 1.12,2.49 2.49,2.49 1.38,0 2.49,-1.12 2.49,-2.49 0,-1.38 -1.12,-2.49 -2.49,-2.49z"></path><path fill="#FEFEFE" d="M42.85 32.53c-1.38,0 -2.49,1.12 -2.49,2.49 0,1.38 1.12,2.49 2.49,2.49 1.38,0 2.49,-1.12 2.49,-2.49 0,-1.38 -1.12,-2.49 -2.49,-2.49z"></path></g><g><path fill="#C5C6C6" d="M39.77 35.13c-1.38,0 -2.49,1.12 -2.49,2.49 0,1.38 1.12,2.49 2.49,2.49 1.38,0 2.49,-1.12 2.49,-2.49 0,-1.38 -1.12,-2.49 -2.49,-2.49z"></path><path fill="#FEFEFE" d="M40.08 35.36c-1.38,0 -2.49,1.12 -2.49,2.49 0,1.38 1.12,2.49 2.49,2.49 1.38,0 2.49,-1.12 2.49,-2.49 0,-1.38 -1.12,-2.49 -2.49,-2.49z"></path></g><g><path fill="#C5C6C6" d="M37.66 37.9c-1.38,0 -2.49,1.12 -2.49,2.49 0,1.38 1.12,2.49 2.49,2.49 1.38,0 2.49,-1.12 2.49,-2.49 0,-1.38 -1.12,-2.49 -2.49,-2.49z"></path><path fill="#FEFEFE" d="M37.98 38.13c-1.38,0 -2.49,1.12 -2.49,2.49 0,1.38 1.12,2.49 2.49,2.49 1.38,0 2.49,-1.12 2.49,-2.49 0,-1.38 -1.12,-2.49 -2.49,-2.49z"></path></g><g><path fill="#C5C6C6" d="M35.61 41.74c-1.38,0 -2.49,1.12 -2.49,2.49 0,1.38 1.12,2.49 2.49,2.49 1.38,0 2.49,-1.12 2.49,-2.49 0,-1.38 -1.12,-2.49 -2.49,-2.49z"></path><path fill="#FEFEFE" d="M35.93 41.97c-1.38,0 -2.49,1.12 -2.49,2.49 0,1.38 1.12,2.49 2.49,2.49 1.38,0 2.49,-1.12 2.49,-2.49 0,-1.38 -1.12,-2.49 -2.49,-2.49z"></path></g><g><path fill="#C5C6C6" d="M34.52 44.7c-1.38,0 -2.49,1.12 -2.49,2.49 0,1.38 1.12,2.49 2.49,2.49 1.38,0 2.49,-1.12 2.49,-2.49 0,-1.38 -1.12,-2.49 -2.49,-2.49z"></path><path fill="#FEFEFE" d="M34.84 44.94c-1.38,0 -2.49,1.12 -2.49,2.49 0,1.38 1.12,2.49 2.49,2.49 1.38,0 2.49,-1.12 2.49,-2.49 0,-1.38 -1.12,-2.49 -2.49,-2.49z"></path></g><g><path fill="#C5C6C6" d="M33.8 48.07c-1.38,0 -2.49,1.12 -2.49,2.49 0,1.38 1.12,2.49 2.49,2.49 1.38,0 2.49,-1.12 2.49,-2.49 0,-1.38 -1.12,-2.49 -2.49,-2.49z"></path><path fill="#FEFEFE" d="M34.12 48.3c-1.38,0 -2.49,1.12 -2.49,2.49 0,1.38 1.12,2.49 2.49,2.49 1.38,0 2.49,-1.12 2.49,-2.49 0,-1.38 -1.12,-2.49 -2.49,-2.49z"></path></g><g><path fill="#C5C6C6" d="M33.08 51.91c-1.38,0 -2.49,1.12 -2.49,2.49 0,1.38 1.12,2.49 2.49,2.49 1.38,0 2.49,-1.12 2.49,-2.49 0,-1.38 -1.12,-2.49 -2.49,-2.49z"></path><path fill="#FEFEFE" d="M33.4 52.14c-1.38,0 -2.49,1.12 -2.49,2.49 0,1.38 1.12,2.49 2.49,2.49 1.38,0 2.49,-1.12 2.49,-2.49 0,-1.38 -1.12,-2.49 -2.49,-2.49z"></path></g><g><path fill="#C5C6C6" d="M32.53 55.71c-1.38,0 -2.49,1.12 -2.49,2.49 0,1.38 1.12,2.49 2.49,2.49 1.38,0 2.49,-1.12 2.49,-2.49 0,-1.38 -1.12,-2.49 -2.49,-2.49z"></path><path fill="#FEFEFE" d="M32.85 55.94c-1.38,0 -2.49,1.12 -2.49,2.49 0,1.38 1.12,2.49 2.49,2.49 1.38,0 2.49,-1.12 2.49,-2.49 0,-1.38 -1.12,-2.49 -2.49,-2.49z"></path></g><g><path fill="#C5C6C6" d="M32.6 59.33c-1.38,0 -2.49,1.12 -2.49,2.49 0,1.38 1.12,2.49 2.49,2.49 1.38,0 2.49,-1.12 2.49,-2.49 0,-1.38 -1.12,-2.49 -2.49,-2.49z"></path><path fill="#FEFEFE" d="M32.92 59.56c-1.38,0 -2.49,1.12 -2.49,2.49 0,1.38 1.12,2.49 2.49,2.49 1.38,0 2.49,-1.12 2.49,-2.49 0,-1.38 -1.12,-2.49 -2.49,-2.49z"></path></g><g><path fill="#C5C6C6" d="M32.53 62.86c-1.38,0 -2.49,1.12 -2.49,2.49 0,1.38 1.12,2.49 2.49,2.49 1.38,0 2.49,-1.12 2.49,-2.49 0,-1.38 -1.12,-2.49 -2.49,-2.49z"></path><path fill="#FEFEFE" d="M32.85 63.09c-1.38,0 -2.49,1.12 -2.49,2.49 0,1.38 1.12,2.49 2.49,2.49 1.38,0 2.49,-1.12 2.49,-2.49 0,-1.38 -1.12,-2.49 -2.49,-2.49z"></path></g><g><path fill="#C5C6C6" d="M32.65 65.95c-1.38,0 -2.49,1.12 -2.49,2.49 0,1.38 1.12,2.49 2.49,2.49 1.38,0 2.49,-1.12 2.49,-2.49 0,-1.38 -1.12,-2.49 -2.49,-2.49z"></path><path fill="#FEFEFE" d="M32.97 66.18c-1.38,0 -2.49,1.12 -2.49,2.49 0,1.38 1.12,2.49 2.49,2.49 1.38,0 2.49,-1.12 2.49,-2.49 0,-1.38 -1.12,-2.49 -2.49,-2.49z"></path></g><g><path fill="#C5C6C6" d="M32.77 69.39c-1.38,0 -2.49,1.12 -2.49,2.49 0,1.38 1.12,2.49 2.49,2.49 1.38,0 2.49,-1.12 2.49,-2.49 0,-1.38 -1.12,-2.49 -2.49,-2.49z"></path><path fill="#FEFEFE" d="M33.09 69.62c-1.38,0 -2.49,1.12 -2.49,2.49 0,1.38 1.12,2.49 2.49,2.49 1.38,0 2.49,-1.12 2.49,-2.49 0,-1.38 -1.12,-2.49 -2.49,-2.49z"></path></g><g><path fill="#C5C6C6" d="M33.12 72.62c-1.38,0 -2.49,1.12 -2.49,2.49 0,1.38 1.12,2.49 2.49,2.49 1.38,0 2.49,-1.12 2.49,-2.49 0,-1.38 -1.12,-2.49 -2.49,-2.49z"></path><path fill="#FEFEFE" d="M33.44 72.85c-1.38,0 -2.49,1.12 -2.49,2.49 0,1.38 1.12,2.49 2.49,2.49 1.38,0 2.49,-1.12 2.49,-2.49 0,-1.38 -1.12,-2.49 -2.49,-2.49z"></path></g><g><path fill="#C5C6C6" d="M33.69 76.28c-1.38,0 -2.49,1.12 -2.49,2.49 0,1.38 1.12,2.49 2.49,2.49 1.38,0 2.49,-1.12 2.49,-2.49 0,-1.38 -1.12,-2.49 -2.49,-2.49z"></path><path fill="#FEFEFE" d="M34.01 76.52c-1.38,0 -2.49,1.12 -2.49,2.49 0,1.38 1.12,2.49 2.49,2.49 1.38,0 2.49,-1.12 2.49,-2.49 0,-1.38 -1.12,-2.49 -2.49,-2.49z"></path></g><g><path fill="#C5C6C6" d="M55.67 30.65c-1.38,0 -2.49,1.12 -2.49,2.49 0,1.38 1.12,2.49 2.49,2.49 1.38,0 2.49,-1.12 2.49,-2.49 0,-1.38 -1.12,-2.49 -2.49,-2.49z"></path><path fill="#FEFEFE" d="M55.99 30.88c-1.38,0 -2.49,1.12 -2.49,2.49 0,1.38 1.12,2.49 2.49,2.49 1.38,0 2.49,-1.12 2.49,-2.49 0,-1.38 -1.12,-2.49 -2.49,-2.49z"></path></g><g><path fill="#C5C6C6" d="M51.73 32.01c-1.38,0 -2.49,1.12 -2.49,2.49 0,1.38 1.12,2.49 2.49,2.49 1.38,0 2.49,-1.12 2.49,-2.49 0,-1.38 -1.12,-2.49 -2.49,-2.49z"></path><path fill="#FEFEFE" d="M52.05 32.25c-1.38,0 -2.49,1.12 -2.49,2.49 0,1.38 1.12,2.49 2.49,2.49 1.38,0 2.49,-1.12 2.49,-2.49 0,-1.38 -1.12,-2.49 -2.49,-2.49z"></path></g><g><path fill="#C5C6C6" d="M47.71 33.9c-1.38,0 -2.49,1.12 -2.49,2.49 0,1.38 1.12,2.49 2.49,2.49 1.38,0 2.49,-1.12 2.49,-2.49 0,-1.38 -1.12,-2.49 -2.49,-2.49z"></path><path fill="#FEFEFE" d="M48.03 34.13c-1.38,0 -2.49,1.12 -2.49,2.49 0,1.38 1.12,2.49 2.49,2.49 1.38,0 2.49,-1.12 2.49,-2.49 0,-1.38 -1.12,-2.49 -2.49,-2.49z"></path></g><g><path fill="#C5C6C6" d="M44.2 36.5c-1.38,0 -2.49,1.12 -2.49,2.49 0,1.38 1.12,2.49 2.49,2.49 1.38,0 2.49,-1.12 2.49,-2.49 0,-1.38 -1.12,-2.49 -2.49,-2.49z"></path><path fill="#FEFEFE" d="M44.52 36.74c-1.38,0 -2.49,1.12 -2.49,2.49 0,1.38 1.12,2.49 2.49,2.49 1.38,0 2.49,-1.12 2.49,-2.49 0,-1.38 -1.12,-2.49 -2.49,-2.49z"></path></g><g><path fill="#C5C6C6" d="M41.3 39.33c-1.38,0 -2.49,1.12 -2.49,2.49 0,1.38 1.12,2.49 2.49,2.49 1.38,0 2.49,-1.12 2.49,-2.49 0,-1.38 -1.12,-2.49 -2.49,-2.49z"></path><path fill="#FEFEFE" d="M41.62 39.56c-1.38,0 -2.49,1.12 -2.49,2.49 0,1.38 1.12,2.49 2.49,2.49 1.38,0 2.49,-1.12 2.49,-2.49 0,-1.38 -1.12,-2.49 -2.49,-2.49z"></path></g><g><path fill="#C5C6C6" d="M38.91 42.84c-1.38,0 -2.49,1.12 -2.49,2.49 0,1.38 1.12,2.49 2.49,2.49 1.38,0 2.49,-1.12 2.49,-2.49 0,-1.38 -1.12,-2.49 -2.49,-2.49z"></path><path fill="#FEFEFE" d="M39.23 43.08c-1.38,0 -2.49,1.12 -2.49,2.49 0,1.38 1.12,2.49 2.49,2.49 1.38,0 2.49,-1.12 2.49,-2.49 0,-1.38 -1.12,-2.49 -2.49,-2.49z"></path></g><g><path fill="#C5C6C6" d="M38.09 45.53c-1.38,0 -2.49,1.12 -2.49,2.49 0,1.38 1.12,2.49 2.49,2.49 1.38,0 2.49,-1.12 2.49,-2.49 0,-1.38 -1.12,-2.49 -2.49,-2.49z"></path><path fill="#FEFEFE" d="M38.41 45.76c-1.38,0 -2.49,1.12 -2.49,2.49 0,1.38 1.12,2.49 2.49,2.49 1.38,0 2.49,-1.12 2.49,-2.49 0,-1.38 -1.12,-2.49 -2.49,-2.49z"></path></g><g><path fill="#C5C6C6" d="M37.32 49.36c-1.38,0 -2.49,1.12 -2.49,2.49 0,1.38 1.12,2.49 2.49,2.49 1.38,0 2.49,-1.12 2.49,-2.49 0,-1.38 -1.12,-2.49 -2.49,-2.49z"></path><path fill="#FEFEFE" d="M37.64 49.59c-1.38,0 -2.49,1.12 -2.49,2.49 0,1.38 1.12,2.49 2.49,2.49 1.38,0 2.49,-1.12 2.49,-2.49 0,-1.38 -1.12,-2.49 -2.49,-2.49z"></path></g><g><path fill="#C5C6C6" d="M36.55 52.89c-1.38,0 -2.49,1.12 -2.49,2.49 0,1.38 1.12,2.49 2.49,2.49 1.38,0 2.49,-1.12 2.49,-2.49 0,-1.38 -1.12,-2.49 -2.49,-2.49z"></path><path fill="#FEFEFE" d="M36.87 53.12c-1.38,0 -2.49,1.12 -2.49,2.49 0,1.38 1.12,2.49 2.49,2.49 1.38,0 2.49,-1.12 2.49,-2.49 0,-1.38 -1.12,-2.49 -2.49,-2.49z"></path></g><g><path fill="#C5C6C6" d="M35.34 57.38c-1.38,0 -2.49,1.12 -2.49,2.49 0,1.38 1.12,2.49 2.49,2.49 1.38,0 2.49,-1.12 2.49,-2.49 0,-1.38 -1.12,-2.49 -2.49,-2.49z"></path><path fill="#FEFEFE" d="M35.66 57.62c-1.38,0 -2.49,1.12 -2.49,2.49 0,1.38 1.12,2.49 2.49,2.49 1.38,0 2.49,-1.12 2.49,-2.49 0,-1.38 -1.12,-2.49 -2.49,-2.49z"></path></g><g><path fill="#C5C6C6" d="M35.33 61.35c-1.38,0 -2.49,1.12 -2.49,2.49 0,1.38 1.12,2.49 2.49,2.49 1.38,0 2.49,-1.12 2.49,-2.49 0,-1.38 -1.12,-2.49 -2.49,-2.49z"></path><path fill="#FEFEFE" d="M35.65 61.58c-1.38,0 -2.49,1.12 -2.49,2.49 0,1.38 1.12,2.49 2.49,2.49 1.38,0 2.49,-1.12 2.49,-2.49 0,-1.38 -1.12,-2.49 -2.49,-2.49z"></path></g><g><path fill="#C5C6C6" d="M54.77 33.06c-1.38,0 -2.49,1.12 -2.49,2.49 0,1.38 1.12,2.49 2.49,2.49 1.38,0 2.49,-1.12 2.49,-2.49 0,-1.38 -1.12,-2.49 -2.49,-2.49z"></path><path fill="#FEFEFE" d="M55.09 33.3c-1.38,0 -2.49,1.12 -2.49,2.49 0,1.38 1.12,2.49 2.49,2.49 1.38,0 2.49,-1.12 2.49,-2.49 0,-1.38 -1.12,-2.49 -2.49,-2.49z"></path></g><g><path fill="#C5C6C6" d="M51 34.91c-1.38,0 -2.49,1.12 -2.49,2.49 0,1.38 1.12,2.49 2.49,2.49 1.38,0 2.49,-1.12 2.49,-2.49 0,-1.38 -1.12,-2.49 -2.49,-2.49z"></path><path fill="#FEFEFE" d="M51.32 35.14c-1.38,0 -2.49,1.12 -2.49,2.49 0,1.38 1.12,2.49 2.49,2.49 1.38,0 2.49,-1.12 2.49,-2.49 0,-1.38 -1.12,-2.49 -2.49,-2.49z"></path></g><g><path fill="#C5C6C6" d="M47.68 37.01c-1.38,0 -2.49,1.12 -2.49,2.49 0,1.38 1.12,2.49 2.49,2.49 1.38,0 2.49,-1.12 2.49,-2.49 0,-1.38 -1.12,-2.49 -2.49,-2.49z"></path><path fill="#FEFEFE" d="M48 37.25c-1.38,0 -2.49,1.12 -2.49,2.49 0,1.38 1.12,2.49 2.49,2.49 1.38,0 2.49,-1.12 2.49,-2.49 0,-1.38 -1.12,-2.49 -2.49,-2.49z"></path></g><g><path fill="#C5C6C6" d="M44.34 39.92c-1.38,0 -2.49,1.12 -2.49,2.49 0,1.38 1.12,2.49 2.49,2.49 1.38,0 2.49,-1.12 2.49,-2.49 0,-1.38 -1.12,-2.49 -2.49,-2.49z"></path><path fill="#FEFEFE" d="M44.66 40.16c-1.38,0 -2.49,1.12 -2.49,2.49 0,1.38 1.12,2.49 2.49,2.49 1.38,0 2.49,-1.12 2.49,-2.49 0,-1.38 -1.12,-2.49 -2.49,-2.49z"></path></g><g><path fill="#C5C6C6" d="M41.31 43.77c-1.38,0 -2.49,1.12 -2.49,2.49 0,1.38 1.12,2.49 2.49,2.49 1.38,0 2.49,-1.12 2.49,-2.49 0,-1.38 -1.12,-2.49 -2.49,-2.49z"></path><path fill="#FEFEFE" d="M41.63 44c-1.38,0 -2.49,1.12 -2.49,2.49 0,1.38 1.12,2.49 2.49,2.49 1.38,0 2.49,-1.12 2.49,-2.49 0,-1.38 -1.12,-2.49 -2.49,-2.49z"></path></g><g><path fill="#C5C6C6" d="M72.08 29.46c1.38,0 2.49,1.12 2.49,2.49 0,1.38 -1.12,2.49 -2.49,2.49 -1.38,0 -2.49,-1.12 -2.49,-2.49 0,-1.38 1.12,-2.49 2.49,-2.49z"></path><path fill="#FEFEFE" d="M71.76 29.69c1.38,0 2.49,1.12 2.49,2.49 0,1.38 -1.12,2.49 -2.49,2.49 -1.38,0 -2.49,-1.12 -2.49,-2.49 0,-1.38 1.12,-2.49 2.49,-2.49z"></path></g><g><path fill="#C5C6C6" d="M73.74 30.71c-1.38,0 -2.49,1.12 -2.49,2.49 0,1.38 1.12,2.49 2.49,2.49 1.38,0 2.49,-1.12 2.49,-2.49 0,-1.38 -1.12,-2.49 -2.49,-2.49z"></path><path fill="#FEFEFE" d="M74.06 30.95c-1.38,0 -2.49,1.12 -2.49,2.49 0,1.38 1.12,2.49 2.49,2.49 1.38,0 2.49,-1.12 2.49,-2.49 0,-1.38 -1.12,-2.49 -2.49,-2.49z"></path></g><g><path fill="#C5C6C6" d="M58.28 29.86c-1.38,0 -2.49,1.12 -2.49,2.49 0,1.38 1.12,2.49 2.49,2.49 1.38,0 2.49,-1.12 2.49,-2.49 0,-1.38 -1.12,-2.49 -2.49,-2.49z"></path><path fill="#FEFEFE" d="M58.6 30.1c-1.38,0 -2.49,1.12 -2.49,2.49 0,1.38 1.12,2.49 2.49,2.49 1.38,0 2.49,-1.12 2.49,-2.49 0,-1.38 -1.12,-2.49 -2.49,-2.49z"></path></g><g><path fill="#C5C6C6" d="M60.81 28.16c-1.38,0 -2.49,1.12 -2.49,2.49 0,1.38 1.12,2.49 2.49,2.49 1.38,0 2.49,-1.12 2.49,-2.49 0,-1.38 -1.12,-2.49 -2.49,-2.49z"></path><path fill="#FEFEFE" d="M61.13 28.4c-1.38,0 -2.49,1.12 -2.49,2.49 0,1.38 1.12,2.49 2.49,2.49 1.38,0 2.49,-1.12 2.49,-2.49 0,-1.38 -1.12,-2.49 -2.49,-2.49z"></path></g><g><path fill="#C5C6C6" d="M64.89 28.38c-1.38,0 -2.49,1.12 -2.49,2.49 0,1.38 1.12,2.49 2.49,2.49 1.38,0 2.49,-1.12 2.49,-2.49 0,-1.38 -1.12,-2.49 -2.49,-2.49z"></path><path fill="#FEFEFE" d="M65.21 28.62c-1.38,0 -2.49,1.12 -2.49,2.49 0,1.38 1.12,2.49 2.49,2.49 1.38,0 2.49,-1.12 2.49,-2.49 0,-1.38 -1.12,-2.49 -2.49,-2.49z"></path></g><g><path fill="#C5C6C6" d="M68 28.77c-1.38,0 -2.49,1.12 -2.49,2.49 0,1.38 1.12,2.49 2.49,2.49 1.38,0 2.49,-1.12 2.49,-2.49 0,-1.38 -1.12,-2.49 -2.49,-2.49z"></path><path fill="#FEFEFE" d="M68.32 29c-1.38,0 -2.49,1.12 -2.49,2.49 0,1.38 1.12,2.49 2.49,2.49 1.38,0 2.49,-1.12 2.49,-2.49 0,-1.38 -1.12,-2.49 -2.49,-2.49z"></path></g><g><path fill="#C5C6C6" d="M57.48 33.01c1.38,0 2.49,1.12 2.49,2.49 0,1.38 -1.12,2.49 -2.49,2.49 -1.38,0 -2.49,-1.12 -2.49,-2.49 0,-1.38 1.12,-2.49 2.49,-2.49z"></path><path fill="#FEFEFE" d="M57.16 33.24c1.38,0 2.49,1.12 2.49,2.49 0,1.38 -1.12,2.49 -2.49,2.49 -1.38,0 -2.49,-1.12 -2.49,-2.49 0,-1.38 1.12,-2.49 2.49,-2.49z"></path></g><g><path fill="#C5C6C6" d="M56.88 36.06c1.38,0 2.49,1.12 2.49,2.49 0,1.38 -1.12,2.49 -2.49,2.49 -1.38,0 -2.49,-1.12 -2.49,-2.49 0,-1.38 1.12,-2.49 2.49,-2.49z"></path><path fill="#FEFEFE" d="M56.56 36.3c1.38,0 2.49,1.12 2.49,2.49 0,1.38 -1.12,2.49 -2.49,2.49 -1.38,0 -2.49,-1.12 -2.49,-2.49 0,-1.38 1.12,-2.49 2.49,-2.49z"></path></g><g><path fill="#C5C6C6" d="M69.87 30.85c-1.38,0 -2.49,1.12 -2.49,2.49 0,1.38 1.12,2.49 2.49,2.49 1.38,0 2.49,-1.12 2.49,-2.49 0,-1.38 -1.12,-2.49 -2.49,-2.49z"></path><path fill="#FEFEFE" d="M70.19 31.09c-1.38,0 -2.49,1.12 -2.49,2.49 0,1.38 1.12,2.49 2.49,2.49 1.38,0 2.49,-1.12 2.49,-2.49 0,-1.38 -1.12,-2.49 -2.49,-2.49z"></path></g><g><path fill="#C5C6C6" d="M66.7 31.48c-1.38,0 -2.49,1.12 -2.49,2.49 0,1.38 1.12,2.49 2.49,2.49 1.38,0 2.49,-1.12 2.49,-2.49 0,-1.38 -1.12,-2.49 -2.49,-2.49z"></path><path fill="#FEFEFE" d="M67.02 31.71c-1.38,0 -2.49,1.12 -2.49,2.49 0,1.38 1.12,2.49 2.49,2.49 1.38,0 2.49,-1.12 2.49,-2.49 0,-1.38 -1.12,-2.49 -2.49,-2.49z"></path></g><g><path fill="#C5C6C6" d="M63.83 32.35c-1.38,0 -2.49,1.12 -2.49,2.49 0,1.38 1.12,2.49 2.49,2.49 1.38,0 2.49,-1.12 2.49,-2.49 0,-1.38 -1.12,-2.49 -2.49,-2.49z"></path><path fill="#FEFEFE" d="M64.15 32.58c-1.38,0 -2.49,1.12 -2.49,2.49 0,1.38 1.12,2.49 2.49,2.49 1.38,0 2.49,-1.12 2.49,-2.49 0,-1.38 -1.12,-2.49 -2.49,-2.49z"></path></g><g><path fill="#C5C6C6" d="M60.93 33.24c-1.38,0 -2.49,1.12 -2.49,2.49 0,1.38 1.12,2.49 2.49,2.49 1.38,0 2.49,-1.12 2.49,-2.49 0,-1.38 -1.12,-2.49 -2.49,-2.49z"></path><path fill="#FEFEFE" d="M61.25 33.48c-1.38,0 -2.49,1.12 -2.49,2.49 0,1.38 1.12,2.49 2.49,2.49 1.38,0 2.49,-1.12 2.49,-2.49 0,-1.38 -1.12,-2.49 -2.49,-2.49z"></path></g><g><path fill="#C5C6C6" d="M58 34.89c-1.38,0 -2.49,1.12 -2.49,2.49 0,1.38 1.12,2.49 2.49,2.49 1.38,0 2.49,-1.12 2.49,-2.49 0,-1.38 -1.12,-2.49 -2.49,-2.49z"></path><path fill="#FEFEFE" d="M58.32 35.13c-1.38,0 -2.49,1.12 -2.49,2.49 0,1.38 1.12,2.49 2.49,2.49 1.38,0 2.49,-1.12 2.49,-2.49 0,-1.38 -1.12,-2.49 -2.49,-2.49z"></path></g><g><path fill="#C5C6C6" d="M55.89 36.21c-1.38,0 -2.49,1.12 -2.49,2.49 0,1.38 1.12,2.49 2.49,2.49 1.38,0 2.49,-1.12 2.49,-2.49 0,-1.38 -1.12,-2.49 -2.49,-2.49z"></path><path fill="#FEFEFE" d="M56.21 36.45c-1.38,0 -2.49,1.12 -2.49,2.49 0,1.38 1.12,2.49 2.49,2.49 1.38,0 2.49,-1.12 2.49,-2.49 0,-1.38 -1.12,-2.49 -2.49,-2.49z"></path></g><g><path fill="#C5C6C6" d="M52.9 37.6c-1.38,0 -2.49,1.12 -2.49,2.49 0,1.38 1.12,2.49 2.49,2.49 1.38,0 2.49,-1.12 2.49,-2.49 0,-1.38 -1.12,-2.49 -2.49,-2.49z"></path><path fill="#FEFEFE" d="M53.22 37.84c-1.38,0 -2.49,1.12 -2.49,2.49 0,1.38 1.12,2.49 2.49,2.49 1.38,0 2.49,-1.12 2.49,-2.49 0,-1.38 -1.12,-2.49 -2.49,-2.49z"></path></g><g><path fill="#C5C6C6" d="M49.75 39.87c-1.38,0 -2.49,1.12 -2.49,2.49 0,1.38 1.12,2.49 2.49,2.49 1.38,0 2.49,-1.12 2.49,-2.49 0,-1.38 -1.12,-2.49 -2.49,-2.49z"></path><path fill="#FEFEFE" d="M50.07 40.1c-1.38,0 -2.49,1.12 -2.49,2.49 0,1.38 1.12,2.49 2.49,2.49 1.38,0 2.49,-1.12 2.49,-2.49 0,-1.38 -1.12,-2.49 -2.49,-2.49z"></path></g><g><path fill="#C5C6C6" d="M46.64 42.05c-1.38,0 -2.49,1.12 -2.49,2.49 0,1.38 1.12,2.49 2.49,2.49 1.38,0 2.49,-1.12 2.49,-2.49 0,-1.38 -1.12,-2.49 -2.49,-2.49z"></path><path fill="#FEFEFE" d="M46.96 42.29c-1.38,0 -2.49,1.12 -2.49,2.49 0,1.38 1.12,2.49 2.49,2.49 1.38,0 2.49,-1.12 2.49,-2.49 0,-1.38 -1.12,-2.49 -2.49,-2.49z"></path></g><g><path fill="#C5C6C6" d="M44.29 44.52c-1.38,0 -2.49,1.12 -2.49,2.49 0,1.38 1.12,2.49 2.49,2.49 1.38,0 2.49,-1.12 2.49,-2.49 0,-1.38 -1.12,-2.49 -2.49,-2.49z"></path><path fill="#FEFEFE" d="M44.61 44.75c-1.38,0 -2.49,1.12 -2.49,2.49 0,1.38 1.12,2.49 2.49,2.49 1.38,0 2.49,-1.12 2.49,-2.49 0,-1.38 -1.12,-2.49 -2.49,-2.49z"></path></g><g><path fill="#C5C6C6" d="M42.68 47.68c-1.38,0 -2.49,1.12 -2.49,2.49 0,1.38 1.12,2.49 2.49,2.49 1.38,0 2.49,-1.12 2.49,-2.49 0,-1.38 -1.12,-2.49 -2.49,-2.49z"></path><path fill="#FEFEFE" d="M43 47.92c-1.38,0 -2.49,1.12 -2.49,2.49 0,1.38 1.12,2.49 2.49,2.49 1.38,0 2.49,-1.12 2.49,-2.49 0,-1.38 -1.12,-2.49 -2.49,-2.49z"></path></g><g><path fill="#C5C6C6" d="M41.11 50.42c-1.38,0 -2.49,1.12 -2.49,2.49 0,1.38 1.12,2.49 2.49,2.49 1.38,0 2.49,-1.12 2.49,-2.49 0,-1.38 -1.12,-2.49 -2.49,-2.49z"></path><path fill="#FEFEFE" d="M41.43 50.66c-1.38,0 -2.49,1.12 -2.49,2.49 0,1.38 1.12,2.49 2.49,2.49 1.38,0 2.49,-1.12 2.49,-2.49 0,-1.38 -1.12,-2.49 -2.49,-2.49z"></path></g><g><path fill="#C5C6C6" d="M39.56 54.22c-1.38,0 -2.49,1.12 -2.49,2.49 0,1.38 1.12,2.49 2.49,2.49 1.38,0 2.49,-1.12 2.49,-2.49 0,-1.38 -1.12,-2.49 -2.49,-2.49z"></path><path fill="#FEFEFE" d="M39.88 54.45c-1.38,0 -2.49,1.12 -2.49,2.49 0,1.38 1.12,2.49 2.49,2.49 1.38,0 2.49,-1.12 2.49,-2.49 0,-1.38 -1.12,-2.49 -2.49,-2.49z"></path></g><g><path fill="#C5C6C6" d="M38.73 56.89c-1.38,0 -2.49,1.12 -2.49,2.49 0,1.38 1.12,2.49 2.49,2.49 1.38,0 2.49,-1.12 2.49,-2.49 0,-1.38 -1.12,-2.49 -2.49,-2.49z"></path><path fill="#FEFEFE" d="M39.05 57.12c-1.38,0 -2.49,1.12 -2.49,2.49 0,1.38 1.12,2.49 2.49,2.49 1.38,0 2.49,-1.12 2.49,-2.49 0,-1.38 -1.12,-2.49 -2.49,-2.49z"></path></g><g><path fill="#C5C6C6" d="M38.26 60.63c-1.38,0 -2.49,1.12 -2.49,2.49 0,1.38 1.12,2.49 2.49,2.49 1.38,0 2.49,-1.12 2.49,-2.49 0,-1.38 -1.12,-2.49 -2.49,-2.49z"></path><path fill="#FEFEFE" d="M38.58 60.87c-1.38,0 -2.49,1.12 -2.49,2.49 0,1.38 1.12,2.49 2.49,2.49 1.38,0 2.49,-1.12 2.49,-2.49 0,-1.38 -1.12,-2.49 -2.49,-2.49z"></path></g><g><path fill="#C5C6C6" d="M37.61 63.96c-1.38,0 -2.49,1.12 -2.49,2.49 0,1.38 1.12,2.49 2.49,2.49 1.38,0 2.49,-1.12 2.49,-2.49 0,-1.38 -1.12,-2.49 -2.49,-2.49z"></path><path fill="#FEFEFE" d="M37.93 64.19c-1.38,0 -2.49,1.12 -2.49,2.49 0,1.38 1.12,2.49 2.49,2.49 1.38,0 2.49,-1.12 2.49,-2.49 0,-1.38 -1.12,-2.49 -2.49,-2.49z"></path></g><g><path fill="#C5C6C6" d="M36.8 67.97c-1.38,0 -2.49,1.12 -2.49,2.49 0,1.38 1.12,2.49 2.49,2.49 1.38,0 2.49,-1.12 2.49,-2.49 0,-1.38 -1.12,-2.49 -2.49,-2.49z"></path><path fill="#FEFEFE" d="M37.11 68.2c-1.38,0 -2.49,1.12 -2.49,2.49 0,1.38 1.12,2.49 2.49,2.49 1.38,0 2.49,-1.12 2.49,-2.49 0,-1.38 -1.12,-2.49 -2.49,-2.49z"></path></g><g><path fill="#C5C6C6" d="M36.01 72.04c-1.38,0 -2.49,1.12 -2.49,2.49 0,1.38 1.12,2.49 2.49,2.49 1.38,0 2.49,-1.12 2.49,-2.49 0,-1.38 -1.12,-2.49 -2.49,-2.49z"></path><path fill="#FEFEFE" d="M36.33 72.27c-1.38,0 -2.49,1.12 -2.49,2.49 0,1.38 1.12,2.49 2.49,2.49 1.38,0 2.49,-1.12 2.49,-2.49 0,-1.38 -1.12,-2.49 -2.49,-2.49z"></path></g><g><path fill="#C5C6C6" d="M35.03 76.09c-1.38,0 -2.49,1.12 -2.49,2.49 0,1.38 1.12,2.49 2.49,2.49 1.38,0 2.49,-1.12 2.49,-2.49 0,-1.38 -1.12,-2.49 -2.49,-2.49z"></path><path fill="#FEFEFE" d="M35.35 76.33c-1.38,0 -2.49,1.12 -2.49,2.49 0,1.38 1.12,2.49 2.49,2.49 1.38,0 2.49,-1.12 2.49,-2.49 0,-1.38 -1.12,-2.49 -2.49,-2.49z"></path></g><g><path fill="#C5C6C6" d="M34.06 80.12c-1.38,0 -2.49,1.12 -2.49,2.49 0,1.38 1.12,2.49 2.49,2.49 1.38,0 2.49,-1.12 2.49,-2.49 0,-1.38 -1.12,-2.49 -2.49,-2.49z"></path><path fill="#FEFEFE" d="M34.38 80.35c-1.38,0 -2.49,1.12 -2.49,2.49 0,1.38 1.12,2.49 2.49,2.49 1.38,0 2.49,-1.12 2.49,-2.49 0,-1.38 -1.12,-2.49 -2.49,-2.49z"></path></g><g><path fill="#C5C6C6" d="M33.47 83.01c-1.38,0 -2.49,1.12 -2.49,2.49 0,1.38 1.12,2.49 2.49,2.49 1.38,0 2.49,-1.12 2.49,-2.49 0,-1.38 -1.12,-2.49 -2.49,-2.49z"></path><path fill="#FEFEFE" d="M33.79 83.25c-1.38,0 -2.49,1.12 -2.49,2.49 0,1.38 1.12,2.49 2.49,2.49 1.38,0 2.49,-1.12 2.49,-2.49 0,-1.38 -1.12,-2.49 -2.49,-2.49z"></path></g><g><path fill="#C5C6C6" d="M32.72 86.16c-1.38,0 -2.49,1.12 -2.49,2.49 0,1.38 1.12,2.49 2.49,2.49 1.38,0 2.49,-1.12 2.49,-2.49 0,-1.38 -1.12,-2.49 -2.49,-2.49z"></path><path fill="#FEFEFE" d="M33.04 86.39c-1.38,0 -2.49,1.12 -2.49,2.49 0,1.38 1.12,2.49 2.49,2.49 1.38,0 2.49,-1.12 2.49,-2.49 0,-1.38 -1.12,-2.49 -2.49,-2.49z"></path></g><g><g><path fill="#FEFEFE" d="M34.75 103.47l1.26 -1.56c3.92,8.24 11.13,13.99 22.79,16.36l-1.94 20.73 -22.11 -18.55 0 -16.98z"></path><path fill="#FEFEFE" d="M116.26 103.39l-1.43 -1.99c-3.92,8.24 -10.96,14.42 -22.62,16.79l2.93 20.95 21.11 -18.77 0 -16.98z"></path></g><g><g><g><path fill="#C5C6C6" d="M55.46 139.24c-1.38,0 -2.49,-1.12 -2.49,-2.49 0,-1.38 1.12,-2.49 2.49,-2.49 0.6,0 1.15,0.21 1.58,0.56 -0.12,1.39 -0.23,2.76 -0.34,4.09 -0.37,0.21 -0.79,0.33 -1.24,0.33z"></path><path fill="#FEFEFE" d="M55.78 139c-1.38,0 -2.49,-1.12 -2.49,-2.49 0,-1.38 1.12,-2.49 2.49,-2.49 0.47,0 0.92,0.13 1.3,0.36 -0.13,1.51 -0.25,3 -0.37,4.44 -0.29,0.12 -0.6,0.18 -0.93,0.18z"></path></g><g><path fill="#C5C6C6" d="M51.33 137.65c-1.38,0 -2.49,-1.12 -2.49,-2.49 0,-1.38 1.12,-2.49 2.49,-2.49 1.38,0 2.49,1.12 2.49,2.49 0,1.38 -1.12,2.49 -2.49,2.49z"></path><path fill="#FEFEFE" d="M51.64 137.41c-1.38,0 -2.49,-1.12 -2.49,-2.49 0,-1.38 1.12,-2.49 2.49,-2.49 1.38,0 2.49,1.12 2.49,2.49 0,1.38 -1.12,2.49 -2.49,2.49z"></path></g><g><path fill="#C5C6C6" d="M47.81 135.34c-1.38,0 -2.49,-1.12 -2.49,-2.49 0,-1.38 1.12,-2.49 2.49,-2.49 1.38,0 2.49,1.12 2.49,2.49 0,1.38 -1.12,2.49 -2.49,2.49z"></path><path fill="#FEFEFE" d="M48.13 135.11c-1.38,0 -2.49,-1.12 -2.49,-2.49 0,-1.38 1.12,-2.49 2.49,-2.49 1.38,0 2.49,1.12 2.49,2.49 0,1.38 -1.12,2.49 -2.49,2.49z"></path></g><g><path fill="#C5C6C6" d="M44.44 132.61c-1.38,0 -2.49,-1.12 -2.49,-2.49 0,-1.38 1.12,-2.49 2.49,-2.49 1.38,0 2.49,1.12 2.49,2.49 0,1.38 -1.12,2.49 -2.49,2.49z"></path><path fill="#FEFEFE" d="M44.76 132.38c-1.38,0 -2.49,-1.12 -2.49,-2.49 0,-1.38 1.12,-2.49 2.49,-2.49 1.38,0 2.49,1.12 2.49,2.49 0,1.38 -1.12,2.49 -2.49,2.49z"></path></g><g><path fill="#C5C6C6" d="M41.45 129.68c-1.38,0 -2.49,-1.12 -2.49,-2.49 0,-1.38 1.12,-2.49 2.49,-2.49 1.38,0 2.49,1.12 2.49,2.49 0,1.38 -1.12,2.49 -2.49,2.49z"></path><path fill="#FEFEFE" d="M41.77 129.45c-1.38,0 -2.49,-1.12 -2.49,-2.49 0,-1.38 1.12,-2.49 2.49,-2.49 1.38,0 2.49,1.12 2.49,2.49 0,1.38 -1.12,2.49 -2.49,2.49z"></path></g><g><path fill="#C5C6C6" d="M38.47 126.95c-1.38,0 -2.49,-1.12 -2.49,-2.49 0,-1.38 1.12,-2.49 2.49,-2.49 1.38,0 2.49,1.12 2.49,2.49 0,1.38 -1.12,2.49 -2.49,2.49z"></path><path fill="#FEFEFE" d="M38.79 126.72c-1.38,0 -2.49,-1.12 -2.49,-2.49 0,-1.38 1.12,-2.49 2.49,-2.49 1.38,0 2.49,1.12 2.49,2.49 0,1.38 -1.12,2.49 -2.49,2.49z"></path></g><g><path fill="#C5C6C6" d="M35.86 123.39c-1.38,0 -2.49,-1.12 -2.49,-2.49 0,-1.38 1.12,-2.49 2.49,-2.49 1.38,0 2.49,1.12 2.49,2.49 0,1.38 -1.12,2.49 -2.49,2.49z"></path><path fill="#FEFEFE" d="M36.18 123.15c-1.38,0 -2.49,-1.12 -2.49,-2.49 0,-1.38 1.12,-2.49 2.49,-2.49 1.38,0 2.49,1.12 2.49,2.49 0,1.38 -1.12,2.49 -2.49,2.49z"></path></g><g><path fill="#C5C6C6" d="M34.01 119.57c-1.38,0 -2.49,-1.12 -2.49,-2.49 0,-1.38 1.12,-2.49 2.49,-2.49 1.38,0 2.49,1.12 2.49,2.49 0,1.38 -1.12,2.49 -2.49,2.49z"></path><path fill="#FEFEFE" d="M34.33 119.34c-1.38,0 -2.49,-1.12 -2.49,-2.49 0,-1.38 1.12,-2.49 2.49,-2.49 1.38,0 2.49,1.12 2.49,2.49 0,1.38 -1.12,2.49 -2.49,2.49z"></path></g><g><path fill="#C5C6C6" d="M33 114.8c-1.38,0 -2.49,-1.12 -2.49,-2.49 0,-1.38 1.12,-2.49 2.49,-2.49 1.38,0 2.49,1.12 2.49,2.49 0,1.38 -1.12,2.49 -2.49,2.49z"></path><path fill="#FEFEFE" d="M33.32 114.57c-1.38,0 -2.49,-1.12 -2.49,-2.49 0,-1.38 1.12,-2.49 2.49,-2.49 1.38,0 2.49,1.12 2.49,2.49 0,1.38 -1.12,2.49 -2.49,2.49z"></path></g><g><path fill="#C5C6C6" d="M32.66 110.65c-1.38,0 -2.49,-1.12 -2.49,-2.49 0,-1.38 1.12,-2.49 2.49,-2.49 1.38,0 2.49,1.12 2.49,2.49 0,1.38 -1.12,2.49 -2.49,2.49z"></path><path fill="#FEFEFE" d="M32.98 110.42c-1.38,0 -2.49,-1.12 -2.49,-2.49 0,-1.38 1.12,-2.49 2.49,-2.49 1.38,0 2.49,1.12 2.49,2.49 0,1.38 -1.12,2.49 -2.49,2.49z"></path></g><g><path fill="#C5C6C6" d="M32.17 106.62c-1.38,0 -2.49,-1.12 -2.49,-2.49 0,-1.38 1.12,-2.49 2.49,-2.49 1.38,0 2.49,1.12 2.49,2.49 0,1.38 -1.12,2.49 -2.49,2.49z"></path><path fill="#FEFEFE" d="M32.49 106.38c-1.38,0 -2.49,-1.12 -2.49,-2.49 0,-1.38 1.12,-2.49 2.49,-2.49 1.38,0 2.49,1.12 2.49,2.49 0,1.38 -1.12,2.49 -2.49,2.49z"></path></g><g><path fill="#C5C6C6" d="M32.35 102.17c-1.38,0 -2.49,-1.12 -2.49,-2.49 0,-1.38 1.12,-2.49 2.49,-2.49 1.38,0 2.49,1.12 2.49,2.49 0,1.38 -1.12,2.49 -2.49,2.49z"></path><path fill="#FEFEFE" d="M32.67 101.94c-1.38,0 -2.49,-1.12 -2.49,-2.49 0,-1.38 1.12,-2.49 2.49,-2.49 0.64,0 1.23,0.24 1.67,0.65l0.03 0.11 0 0.01 0.06 0.19 0 0 0 0 0 0 0.06 0.19 0.01 0.02c0.06,0.19 0.12,0.38 0.19,0.58l0 0.01 0.07 0.19 0.01 0.02 0 0 0.03 0.08 0.03 0.08 0.02 0.06 0.01 0.02 0.07 0.2 0 0.01 0.01 0.03c0.05,0.13 0.1,0.26 0.15,0.4l0.01 0.02 0.01 0.02 0.02 0.04c-0.2,1.17 -1.22,2.07 -2.45,2.07z"></path></g><g><path fill="#C5C6C6" d="M32.35 98.36c-1.38,0 -2.49,-1.12 -2.49,-2.49 0,-1.38 1.12,-2.49 2.49,-2.49 0.54,0 1.04,0.17 1.45,0.47 -0,0.91 0.08,1.48 0.11,1.73l0 0.02 0 0 0 0.01 0 0.01 0.01 0.06 0.01 0.06 0.01 0.05 0 0.01 0.01 0.06 0.01 0.06 0 0.01 0.01 0.05 0.01 0.06 0 0.02 0.01 0.05 0.01 0.06 0.01 0.06 0 0.01 0.01 0.05 0.01 0.06 0.01 0.06 0.01 0.03 0.01 0.03 0.01 0.06 0.01 0.06 0 0.02 0.01 0.04 0.03 0.13 0 0.01 0 0.01 0.03 0.11 0.01 0.06 0 0 0 0.02 0.03 0.11 0.01 0.05 0 0.02 0.03 0.13 0.01 0.04 0 0 0.02 0.08c-0.46,0.57 -1.16,0.93 -1.94,0.93z"></path><path fill="#FEFEFE" d="M32.67 98.12c-1.38,0 -2.49,-1.12 -2.49,-2.49 0,-1.38 1.12,-2.49 2.49,-2.49 0.41,0 0.8,0.1 1.14,0.28 -0.03,1.16 0.07,1.86 0.11,2.15l0 0.02 0 0 0 0.01 0 0.01 0.01 0.06 0.01 0.06 0.01 0.05 0 0.01 0.01 0.06 0.01 0.06 0 0.01 0.01 0.05 0.01 0.06 0 0.02 0.01 0.05 0.01 0.06 0.01 0.06 0 0.01 0.01 0.05 0.01 0.06 0.01 0.06 0.01 0.03 0.01 0.03 0.01 0.06 0.01 0.06 0 0.02 0.01 0.04 0.03 0.13 0 0.01 0 0.01 0.03 0.11 0.01 0.06 0 0 0 0.02 0.03 0.11 0.01 0.05 0 0.02 0.03 0.13 0.01 0.04 0 0 0.04 0.16c-0.44,0.39 -1.01,0.62 -1.64,0.62z"></path></g><g><path fill="#C5C6C6" d="M32.54 94.92c-1.38,0 -2.49,-1.12 -2.49,-2.49 0,-1.38 1.12,-2.49 2.49,-2.49 0.57,0 1.09,0.19 1.5,0.51 -0.08,0.77 -0.15,1.47 -0.19,2.13l0 -0c-0.06,0.83 -0.06,1.49 -0.03,1.99 -0.37,0.22 -0.81,0.35 -1.28,0.35z"></path><path fill="#FEFEFE" d="M32.86 94.69c-1.38,0 -2.49,-1.12 -2.49,-2.49 0,-1.38 1.12,-2.49 2.49,-2.49 0.45,0 0.87,0.12 1.23,0.32 -0.1,0.94 -0.19,1.76 -0.24,2.55l0 -0c-0.06,0.8 -0.06,1.43 -0.03,1.92 -0.29,0.12 -0.62,0.19 -0.96,0.19z"></path></g><g><path fill="#C5C6C6" d="M56.28 135.38c-1.38,0 -2.49,-1.12 -2.49,-2.49 0,-1.38 1.12,-2.49 2.49,-2.49 0.4,0 0.78,0.09 1.11,0.26 -0.14,1.54 -0.27,3.09 -0.4,4.61 -0.23,0.07 -0.47,0.1 -0.72,0.1z"></path><path fill="#FEFEFE" d="M56.6 135.15c-1.38,0 -2.49,-1.12 -2.49,-2.49 0,-1.38 1.12,-2.49 2.49,-2.49 0.29,0 0.57,0.05 0.82,0.14 -0.14,1.6 -0.28,3.22 -0.41,4.81 -0.13,0.02 -0.27,0.03 -0.41,0.03z"></path></g><g><path fill="#C5C6C6" d="M52.29 133.31c-1.38,0 -2.49,-1.12 -2.49,-2.49 0,-1.38 1.12,-2.49 2.49,-2.49 1.38,0 2.49,1.12 2.49,2.49 0,1.38 -1.12,2.49 -2.49,2.49z"></path><path fill="#FEFEFE" d="M52.61 133.08c-1.38,0 -2.49,-1.12 -2.49,-2.49 0,-1.38 1.12,-2.49 2.49,-2.49 1.38,0 2.49,1.12 2.49,2.49 0,1.38 -1.12,2.49 -2.49,2.49z"></path></g><g><path fill="#C5C6C6" d="M48.78 130.52c-1.38,0 -2.49,-1.12 -2.49,-2.49 0,-1.38 1.12,-2.49 2.49,-2.49 1.38,0 2.49,1.12 2.49,2.49 0,1.38 -1.12,2.49 -2.49,2.49z"></path><path fill="#FEFEFE" d="M49.1 130.29c-1.38,0 -2.49,-1.12 -2.49,-2.49 0,-1.38 1.12,-2.49 2.49,-2.49 1.38,0 2.49,1.12 2.49,2.49 0,1.38 -1.12,2.49 -2.49,2.49z"></path></g><g><path fill="#C5C6C6" d="M45.22 127.83c-1.38,0 -2.49,-1.12 -2.49,-2.49 0,-1.38 1.12,-2.49 2.49,-2.49 1.38,0 2.49,1.12 2.49,2.49 0,1.38 -1.12,2.49 -2.49,2.49z"></path><path fill="#FEFEFE" d="M45.54 127.59c-1.38,0 -2.49,-1.12 -2.49,-2.49 0,-1.38 1.12,-2.49 2.49,-2.49 1.38,0 2.49,1.12 2.49,2.49 0,1.38 -1.12,2.49 -2.49,2.49z"></path></g><g><path fill="#C5C6C6" d="M42.81 124.7c-1.38,0 -2.49,-1.12 -2.49,-2.49 0,-1.38 1.12,-2.49 2.49,-2.49 1.38,0 2.49,1.12 2.49,2.49 0,1.38 -1.12,2.49 -2.49,2.49z"></path><path fill="#FEFEFE" d="M43.13 124.47c-1.38,0 -2.49,-1.12 -2.49,-2.49 0,-1.38 1.12,-2.49 2.49,-2.49 1.38,0 2.49,1.12 2.49,2.49 0,1.38 -1.12,2.49 -2.49,2.49z"></path></g><g><path fill="#C5C6C6" d="M40.12 121.91c-1.38,0 -2.49,-1.12 -2.49,-2.49 0,-1.38 1.12,-2.49 2.49,-2.49 1.38,0 2.49,1.12 2.49,2.49 0,1.38 -1.12,2.49 -2.49,2.49z"></path><path fill="#FEFEFE" d="M40.44 121.68c-1.38,0 -2.49,-1.12 -2.49,-2.49 0,-1.38 1.12,-2.49 2.49,-2.49 1.38,0 2.49,1.12 2.49,2.49 0,1.38 -1.12,2.49 -2.49,2.49z"></path></g><g><path fill="#C5C6C6" d="M38.55 118.97c-1.38,0 -2.49,-1.12 -2.49,-2.49 0,-1.38 1.12,-2.49 2.49,-2.49 1.38,0 2.49,1.12 2.49,2.49 0,1.38 -1.12,2.49 -2.49,2.49z"></path><path fill="#FEFEFE" d="M38.87 118.73c-1.38,0 -2.49,-1.12 -2.49,-2.49 0,-1.38 1.12,-2.49 2.49,-2.49 1.38,0 2.49,1.12 2.49,2.49 0,1.38 -1.12,2.49 -2.49,2.49z"></path></g><g><path fill="#C5C6C6" d="M36.67 115.07c-1.38,0 -2.49,-1.12 -2.49,-2.49 0,-1.38 1.12,-2.49 2.49,-2.49 1.38,0 2.49,1.12 2.49,2.49 0,1.38 -1.12,2.49 -2.49,2.49z"></path><path fill="#FEFEFE" d="M36.99 114.84c-1.38,0 -2.49,-1.12 -2.49,-2.49 0,-1.38 1.12,-2.49 2.49,-2.49 1.38,0 2.49,1.12 2.49,2.49 0,1.38 -1.12,2.49 -2.49,2.49z"></path></g><g><path fill="#C5C6C6" d="M36.31 111.2c-1.38,0 -2.49,-1.12 -2.49,-2.49 0,-1.38 1.12,-2.49 2.49,-2.49 1.38,0 2.49,1.12 2.49,2.49 0,1.38 -1.12,2.49 -2.49,2.49z"></path><path fill="#FEFEFE" d="M36.63 110.96c-1.38,0 -2.49,-1.12 -2.49,-2.49 0,-1.38 1.12,-2.49 2.49,-2.49 1.38,0 2.49,1.12 2.49,2.49 0,1.38 -1.12,2.49 -2.49,2.49z"></path></g><g><path fill="#C5C6C6" d="M35.61 107.38c-1.38,0 -2.49,-1.12 -2.49,-2.49 0,-1.38 1.12,-2.49 2.49,-2.49 0.24,0 0.47,0.03 0.69,0.1 0.54,1.07 1.11,2.07 1.73,3 -0.27,1.08 -1.25,1.88 -2.42,1.88z"></path><path fill="#FEFEFE" d="M35.93 107.15c-1.38,0 -2.49,-1.12 -2.49,-2.49 0,-1.38 1.12,-2.49 2.49,-2.49 0.07,0 0.14,0 0.21,0.01 0.62,1.28 1.31,2.46 2.04,3.55 -0.4,0.84 -1.26,1.42 -2.25,1.42z"></path></g><g><path fill="#C5C6C6" d="M35.51 103.59c-1.38,0 -2.49,-1.12 -2.49,-2.49 0,-1.09 0.7,-2.02 1.68,-2.35l0.06 0.17 0.01 0.02 0 0 0.03 0.08 0.03 0.08 0.02 0.06 0.01 0.02 0.07 0.2 0 0.01 0.01 0.03c0.05,0.13 0.1,0.26 0.15,0.4l0.01 0.02 0.01 0.02 0.08 0.21c0.11,0.27 0.22,0.53 0.33,0.79l0 0c0.37,0.86 0.77,1.67 1.19,2.45 -0.36,0.19 -0.76,0.31 -1.2,0.31z"></path><path fill="#FEFEFE" d="M35.83 103.36c-1.38,0 -2.49,-1.12 -2.49,-2.49 0,-0.96 0.54,-1.78 1.33,-2.2l0.02 0.05 0 0.01 0.07 0.19 0.01 0.02 0 0 0.03 0.08 0.03 0.08 0.02 0.06 0.01 0.02 0.07 0.2 0 0.01 0.01 0.03c0.05,0.13 0.1,0.26 0.15,0.4l0.01 0.02 0.01 0.02 0.08 0.21c0.11,0.27 0.22,0.53 0.33,0.79l0 0c0.36,0.83 0.75,1.62 1.15,2.38 -0.26,0.09 -0.54,0.14 -0.84,0.14z"></path></g><g><path fill="#C5C6C6" d="M56.76 130.81c-1.38,0 -2.49,-1.12 -2.49,-2.49 0,-1.38 1.12,-2.49 2.49,-2.49 0.37,0 0.73,0.08 1.05,0.23 -0.14,1.51 -0.29,3.09 -0.43,4.67 -0.2,0.05 -0.41,0.08 -0.62,0.08z"></path><path fill="#FEFEFE" d="M57.08 130.58c-1.38,0 -2.49,-1.12 -2.49,-2.49 0,-1.38 1.12,-2.49 2.49,-2.49 0.27,0 0.52,0.04 0.76,0.12 -0.15,1.56 -0.3,3.19 -0.44,4.84 -0.1,0.01 -0.21,0.02 -0.32,0.02z"></path></g><g><path fill="#C5C6C6" d="M53 128.3c-1.38,0 -2.49,-1.12 -2.49,-2.49 0,-1.38 1.12,-2.49 2.49,-2.49 1.38,0 2.49,1.12 2.49,2.49 0,1.38 -1.12,2.49 -2.49,2.49z"></path><path fill="#FEFEFE" d="M53.32 128.07c-1.38,0 -2.49,-1.12 -2.49,-2.49 0,-1.38 1.12,-2.49 2.49,-2.49 1.38,0 2.49,1.12 2.49,2.49 0,1.38 -1.12,2.49 -2.49,2.49z"></path></g><g><path fill="#C5C6C6" d="M49.69 125.79c-1.38,0 -2.49,-1.12 -2.49,-2.49 0,-1.38 1.12,-2.49 2.49,-2.49 1.38,0 2.49,1.12 2.49,2.49 0,1.38 -1.12,2.49 -2.49,2.49z"></path><path fill="#FEFEFE" d="M50.01 125.56c-1.38,0 -2.49,-1.12 -2.49,-2.49 0,-1.38 1.12,-2.49 2.49,-2.49 1.38,0 2.49,1.12 2.49,2.49 0,1.38 -1.12,2.49 -2.49,2.49z"></path></g><g><path fill="#C5C6C6" d="M47.06 123.49c-1.38,0 -2.49,-1.12 -2.49,-2.49 0,-1.38 1.12,-2.49 2.49,-2.49 1.38,0 2.49,1.12 2.49,2.49 0,1.38 -1.12,2.49 -2.49,2.49z"></path><path fill="#FEFEFE" d="M47.38 123.26c-1.38,0 -2.49,-1.12 -2.49,-2.49 0,-1.38 1.12,-2.49 2.49,-2.49 1.38,0 2.49,1.12 2.49,2.49 0,1.38 -1.12,2.49 -2.49,2.49z"></path></g><g><path fill="#C5C6C6" d="M44.17 120.1c-1.38,0 -2.49,-1.12 -2.49,-2.49 0,-1.38 1.12,-2.49 2.49,-2.49 1.38,0 2.49,1.12 2.49,2.49 0,1.38 -1.12,2.49 -2.49,2.49z"></path><path fill="#FEFEFE" d="M44.49 119.87c-1.38,0 -2.49,-1.12 -2.49,-2.49 0,-1.38 1.12,-2.49 2.49,-2.49 1.38,0 2.49,1.12 2.49,2.49 0,1.38 -1.12,2.49 -2.49,2.49z"></path></g><g><path fill="#C5C6C6" d="M42.01 117.35c-1.38,0 -2.49,-1.12 -2.49,-2.49 0,-1.38 1.12,-2.49 2.49,-2.49 1.38,0 2.49,1.12 2.49,2.49 0,1.38 -1.12,2.49 -2.49,2.49z"></path><path fill="#FEFEFE" d="M42.33 117.11c-1.38,0 -2.49,-1.12 -2.49,-2.49 0,-1.38 1.12,-2.49 2.49,-2.49 1.38,0 2.49,1.12 2.49,2.49 0,1.38 -1.12,2.49 -2.49,2.49z"></path></g><g><path fill="#C5C6C6" d="M40.99 114.65c-1.38,0 -2.49,-1.12 -2.49,-2.49 0,-1.38 1.12,-2.49 2.49,-2.49 0.15,0 0.3,0.01 0.44,0.04 0.63,0.64 1.29,1.24 1.96,1.8 0.06,0.21 0.09,0.43 0.09,0.66 0,1.38 -1.12,2.49 -2.49,2.49z"></path><path fill="#FEFEFE" d="M41.31 114.42c-1.38,0 -2.49,-1.12 -2.49,-2.49 0,-1.33 1.04,-2.41 2.35,-2.49 0.84,0.87 1.72,1.67 2.63,2.39 0,0.03 0,0.06 0,0.1 0,1.38 -1.12,2.49 -2.49,2.49z"></path></g><g><path fill="#C5C6C6" d="M39.8 111.58c-1.38,0 -2.49,-1.12 -2.49,-2.49 0,-1.06 0.66,-1.97 1.6,-2.33 0.96,1.3 1.99,2.46 3.09,3.5 -0.42,0.78 -1.25,1.31 -2.2,1.31z"></path><path fill="#FEFEFE" d="M40.11 111.34c-1.38,0 -2.49,-1.12 -2.49,-2.49 0,-0.92 0.5,-1.72 1.24,-2.15 1,1.36 2.08,2.58 3.23,3.66 -0.46,0.6 -1.17,0.98 -1.98,0.98z"></path></g><g><path fill="#C5C6C6" d="M56.78 125.95c-1.38,0 -2.49,-1.12 -2.49,-2.49 0,-1.38 1.12,-2.49 2.49,-2.49 0.56,0 1.08,0.19 1.49,0.5 -0.14,1.33 -0.28,2.76 -0.42,4.24 -0.32,0.15 -0.69,0.24 -1.07,0.24z"></path><path fill="#FEFEFE" d="M57.1 125.72c-1.38,0 -2.49,-1.12 -2.49,-2.49 0,-1.38 1.12,-2.49 2.49,-2.49 0.44,0 0.86,0.12 1.22,0.32 -0.15,1.41 -0.3,2.94 -0.46,4.54 -0.24,0.08 -0.5,0.12 -0.76,0.12z"></path></g><g><path fill="#C5C6C6" d="M53.38 123.87c-1.38,0 -2.49,-1.12 -2.49,-2.49 0,-1.38 1.12,-2.49 2.49,-2.49 1.38,0 2.49,1.12 2.49,2.49 0,1.38 -1.12,2.49 -2.49,2.49z"></path><path fill="#FEFEFE" d="M53.7 123.63c-1.38,0 -2.49,-1.12 -2.49,-2.49 0,-1.38 1.12,-2.49 2.49,-2.49 1.38,0 2.49,1.12 2.49,2.49 0,1.38 -1.12,2.49 -2.49,2.49z"></path></g><g><path fill="#C5C6C6" d="M50.28 121.15c-1.38,0 -2.49,-1.12 -2.49,-2.49 0,-1.38 1.12,-2.49 2.49,-2.49 1.38,0 2.49,1.12 2.49,2.49 0,1.38 -1.12,2.49 -2.49,2.49z"></path><path fill="#FEFEFE" d="M50.6 120.91c-1.38,0 -2.49,-1.12 -2.49,-2.49 0,-1.38 1.12,-2.49 2.49,-2.49 0.1,0 0.21,0.01 0.31,0.02 0.38,0.16 0.76,0.31 1.15,0.45 0.63,0.45 1.04,1.19 1.04,2.02 0,1.38 -1.12,2.49 -2.49,2.49z"></path></g><g><path fill="#C5C6C6" d="M47.64 118.43c-1.38,0 -2.49,-1.12 -2.49,-2.49 0,-0.96 0.55,-1.8 1.35,-2.21 1.17,0.72 2.37,1.34 3.61,1.89 0.01,0.11 0.02,0.21 0.02,0.32 0,1.38 -1.12,2.49 -2.49,2.49z"></path><path fill="#FEFEFE" d="M47.96 118.19c-1.38,0 -2.49,-1.12 -2.49,-2.49 0,-0.82 0.39,-1.54 1,-2 1.28,0.79 2.61,1.47 3.98,2.05 -0.03,1.35 -1.13,2.43 -2.49,2.43z"></path></g><g><path fill="#C5C6C6" d="M45.84 115.58c-1.38,0 -2.49,-1.12 -2.49,-2.49 0,-0.48 0.14,-0.93 0.37,-1.31 1.32,1.05 2.71,1.96 4.16,2.74 -0.45,0.64 -1.2,1.06 -2.04,1.06z"></path><path fill="#FEFEFE" d="M46.16 115.35c-1.38,0 -2.49,-1.12 -2.49,-2.49 0,-0.34 0.07,-0.67 0.19,-0.97 1.3,1.03 2.68,1.91 4.11,2.68 -0.45,0.48 -1.1,0.78 -1.81,0.78z"></path></g><g><path fill="#C5C6C6" d="M57.36 121.77c-1.38,0 -2.49,-1.12 -2.49,-2.49 0,-0.68 0.27,-1.3 0.72,-1.75 1.01,0.27 2.02,0.51 3.04,0.71 -0.12,1.02 -0.25,2.15 -0.38,3.37 -0.28,0.11 -0.58,0.17 -0.89,0.17z"></path><path fill="#FEFEFE" d="M57.68 121.53c-1.38,0 -2.49,-1.12 -2.49,-2.49 0,-0.56 0.18,-1.08 0.5,-1.49 0.98,0.26 1.96,0.49 2.95,0.68 -0.12,0.98 -0.24,2.07 -0.36,3.23 -0.19,0.05 -0.39,0.07 -0.59,0.07z"></path></g><g><path fill="#C5C6C6" d="M54.14 119.3c-1.38,0 -2.49,-1.12 -2.49,-2.49 0,-0.18 0.02,-0.36 0.06,-0.54 1.55,0.59 3.14,1.08 4.74,1.48 -0.37,0.91 -1.26,1.55 -2.31,1.55z"></path><path fill="#FEFEFE" d="M54.46 119.07c-1.38,0 -2.49,-1.12 -2.49,-2.49 0,-0.07 0,-0.14 0.01,-0.2 1.52,0.57 3.08,1.04 4.66,1.42 -0.43,0.76 -1.24,1.27 -2.17,1.27z"></path></g></g><g><g><path fill="#C5C6C6" d="M96.39 139.55c1.38,0 2.49,-1.12 2.49,-2.49 0,-1.38 -1.12,-2.49 -2.49,-2.49 -0.69,0 -1.31,0.28 -1.76,0.73 0.18,1.34 0.36,2.65 0.52,3.93 0.36,0.21 0.78,0.33 1.23,0.33z"></path><path fill="#FEFEFE" d="M96.07 139.31c1.38,0 2.49,-1.12 2.49,-2.49 0,-1.38 -1.12,-2.49 -2.49,-2.49 -0.56,0 -1.08,0.19 -1.5,0.5 0.2,1.46 0.4,2.91 0.58,4.3 0.29,0.11 0.6,0.18 0.92,0.18z"></path></g><g><path fill="#C5C6C6" d="M99.96 137.57c1.38,0 2.49,-1.12 2.49,-2.49 0,-1.38 -1.12,-2.49 -2.49,-2.49 -1.38,0 -2.49,1.12 -2.49,2.49 0,1.38 1.12,2.49 2.49,2.49z"></path><path fill="#FEFEFE" d="M99.64 137.34c1.38,0 2.49,-1.12 2.49,-2.49 0,-1.38 -1.12,-2.49 -2.49,-2.49 -1.38,0 -2.49,1.12 -2.49,2.49 0,1.38 1.12,2.49 2.49,2.49z"></path></g><g><path fill="#C5C6C6" d="M102.88 135.47c1.38,0 2.49,-1.12 2.49,-2.49 0,-1.38 -1.12,-2.49 -2.49,-2.49 -1.38,0 -2.49,1.12 -2.49,2.49 0,1.38 1.12,2.49 2.49,2.49z"></path><path fill="#FEFEFE" d="M102.56 135.24c1.38,0 2.49,-1.12 2.49,-2.49 0,-1.38 -1.12,-2.49 -2.49,-2.49 -1.38,0 -2.49,1.12 -2.49,2.49 0,1.38 1.12,2.49 2.49,2.49z"></path></g><g><path fill="#C5C6C6" d="M105.75 133.18c1.38,0 2.49,-1.12 2.49,-2.49 0,-1.38 -1.12,-2.49 -2.49,-2.49 -1.38,0 -2.49,1.12 -2.49,2.49 0,1.38 1.12,2.49 2.49,2.49z"></path><path fill="#FEFEFE" d="M105.43 132.95c1.38,0 2.49,-1.12 2.49,-2.49 0,-1.38 -1.12,-2.49 -2.49,-2.49 -1.38,0 -2.49,1.12 -2.49,2.49 0,1.38 1.12,2.49 2.49,2.49z"></path></g><g><path fill="#C5C6C6" d="M108.55 130.51c1.38,0 2.49,-1.12 2.49,-2.49 0,-1.38 -1.12,-2.49 -2.49,-2.49 -1.38,0 -2.49,1.12 -2.49,2.49 0,1.38 1.12,2.49 2.49,2.49z"></path><path fill="#FEFEFE" d="M108.23 130.28c1.38,0 2.49,-1.12 2.49,-2.49 0,-1.38 -1.12,-2.49 -2.49,-2.49 -1.38,0 -2.49,1.12 -2.49,2.49 0,1.38 1.12,2.49 2.49,2.49z"></path></g><g><path fill="#C5C6C6" d="M110.9 128.54c1.38,0 2.49,-1.12 2.49,-2.49 0,-1.38 -1.12,-2.49 -2.49,-2.49 -1.38,0 -2.49,1.12 -2.49,2.49 0,1.38 1.12,2.49 2.49,2.49z"></path><path fill="#FEFEFE" d="M110.58 128.3c1.38,0 2.49,-1.12 2.49,-2.49 0,-1.38 -1.12,-2.49 -2.49,-2.49 -1.38,0 -2.49,1.12 -2.49,2.49 0,1.38 1.12,2.49 2.49,2.49z"></path></g><g><path fill="#C5C6C6" d="M113.13 125.54c1.38,0 2.49,-1.12 2.49,-2.49 0,-1.38 -1.12,-2.49 -2.49,-2.49 -1.38,0 -2.49,1.12 -2.49,2.49 0,1.38 1.12,2.49 2.49,2.49z"></path><path fill="#FEFEFE" d="M112.81 125.31c1.38,0 2.49,-1.12 2.49,-2.49 0,-1.38 -1.12,-2.49 -2.49,-2.49 -1.38,0 -2.49,1.12 -2.49,2.49 0,1.38 1.12,2.49 2.49,2.49z"></path></g><g><path fill="#C5C6C6" d="M115.55 122.43c1.38,0 2.49,-1.12 2.49,-2.49 0,-1.38 -1.12,-2.49 -2.49,-2.49 -1.38,0 -2.49,1.12 -2.49,2.49 0,1.38 1.12,2.49 2.49,2.49z"></path><path fill="#FEFEFE" d="M115.23 122.19c1.38,0 2.49,-1.12 2.49,-2.49 0,-1.38 -1.12,-2.49 -2.49,-2.49 -1.38,0 -2.49,1.12 -2.49,2.49 0,1.38 1.12,2.49 2.49,2.49z"></path></g><g><path fill="#C5C6C6" d="M117.33 118.54c1.38,0 2.49,-1.12 2.49,-2.49 0,-1.38 -1.12,-2.49 -2.49,-2.49 -1.38,0 -2.49,1.12 -2.49,2.49 0,1.38 1.12,2.49 2.49,2.49z"></path><path fill="#FEFEFE" d="M117.01 118.31c1.38,0 2.49,-1.12 2.49,-2.49 0,-1.38 -1.12,-2.49 -2.49,-2.49 -1.38,0 -2.49,1.12 -2.49,2.49 0,1.38 1.12,2.49 2.49,2.49z"></path></g><g><path fill="#C5C6C6" d="M118.6 114.92c1.38,0 2.49,-1.12 2.49,-2.49 0,-1.38 -1.12,-2.49 -2.49,-2.49 -1.38,0 -2.49,1.12 -2.49,2.49 0,1.38 1.12,2.49 2.49,2.49z"></path><path fill="#FEFEFE" d="M118.28 114.68c1.38,0 2.49,-1.12 2.49,-2.49 0,-1.38 -1.12,-2.49 -2.49,-2.49 -1.38,0 -2.49,1.12 -2.49,2.49 0,1.38 1.12,2.49 2.49,2.49z"></path></g><g><path fill="#C5C6C6" d="M118.73 111.16c1.38,0 2.49,-1.12 2.49,-2.49 0,-1.38 -1.12,-2.49 -2.49,-2.49 -1.38,0 -2.49,1.12 -2.49,2.49 0,1.38 1.12,2.49 2.49,2.49z"></path><path fill="#FEFEFE" d="M118.41 110.93c1.38,0 2.49,-1.12 2.49,-2.49 0,-1.38 -1.12,-2.49 -2.49,-2.49 -1.38,0 -2.49,1.12 -2.49,2.49 0,1.38 1.12,2.49 2.49,2.49z"></path></g><g><path fill="#C5C6C6" d="M120.34 107.65c1.38,0 2.49,-1.12 2.49,-2.49 0,-1.38 -1.12,-2.49 -2.49,-2.49 -1.38,0 -2.49,1.12 -2.49,2.49 0,1.38 1.12,2.49 2.49,2.49z"></path><path fill="#FEFEFE" d="M120.02 107.41c1.38,0 2.49,-1.12 2.49,-2.49 0,-1.38 -1.12,-2.49 -2.49,-2.49 -1.38,0 -2.49,1.12 -2.49,2.49 0,1.38 1.12,2.49 2.49,2.49z"></path></g><g><path fill="#C5C6C6" d="M120.63 103.33c1.38,0 2.49,-1.12 2.49,-2.49 0,-1.38 -1.12,-2.49 -2.49,-2.49 -1.38,0 -2.49,1.12 -2.49,2.49 0,1.38 1.12,2.49 2.49,2.49z"></path><path fill="#FEFEFE" d="M120.31 103.1c1.38,0 2.49,-1.12 2.49,-2.49 0,-1.38 -1.12,-2.49 -2.49,-2.49 -1.38,0 -2.49,1.12 -2.49,2.49 0,1.38 1.12,2.49 2.49,2.49z"></path></g><g><path fill="#C5C6C6" d="M95.89 135.17c1.38,0 2.49,-1.12 2.49,-2.49 0,-1.38 -1.12,-2.49 -2.49,-2.49 -0.74,0 -1.4,0.32 -1.86,0.83 0.18,1.25 0.36,2.51 0.53,3.77 0.38,0.24 0.84,0.38 1.33,0.38z"></path><path fill="#FEFEFE" d="M95.58 134.94c1.38,0 2.49,-1.12 2.49,-2.49 0,-1.38 -1.12,-2.49 -2.49,-2.49 -0.61,0 -1.17,0.22 -1.61,0.59 0.2,1.38 0.4,2.79 0.59,4.18 0.31,0.14 0.66,0.22 1.02,0.22z"></path></g><g><path fill="#C5C6C6" d="M98.82 132.97c1.38,0 2.49,-1.12 2.49,-2.49 0,-1.38 -1.12,-2.49 -2.49,-2.49 -1.38,0 -2.49,1.12 -2.49,2.49 0,1.38 1.12,2.49 2.49,2.49z"></path><path fill="#FEFEFE" d="M98.5 132.74c1.38,0 2.49,-1.12 2.49,-2.49 0,-1.38 -1.12,-2.49 -2.49,-2.49 -1.38,0 -2.49,1.12 -2.49,2.49 0,1.38 1.12,2.49 2.49,2.49z"></path></g><g><path fill="#C5C6C6" d="M102.41 130.78c1.38,0 2.49,-1.12 2.49,-2.49 0,-1.38 -1.12,-2.49 -2.49,-2.49 -1.38,0 -2.49,1.12 -2.49,2.49 0,1.38 1.12,2.49 2.49,2.49z"></path><path fill="#FEFEFE" d="M102.09 130.54c1.38,0 2.49,-1.12 2.49,-2.49 0,-1.38 -1.12,-2.49 -2.49,-2.49 -1.38,0 -2.49,1.12 -2.49,2.49 0,1.38 1.12,2.49 2.49,2.49z"></path></g><g><path fill="#C5C6C6" d="M104.75 128c1.38,0 2.49,-1.12 2.49,-2.49 0,-1.38 -1.12,-2.49 -2.49,-2.49 -1.38,0 -2.49,1.12 -2.49,2.49 0,1.38 1.12,2.49 2.49,2.49z"></path><path fill="#FEFEFE" d="M104.43 127.76c1.38,0 2.49,-1.12 2.49,-2.49 0,-1.38 -1.12,-2.49 -2.49,-2.49 -1.38,0 -2.49,1.12 -2.49,2.49 0,1.38 1.12,2.49 2.49,2.49z"></path></g><g><path fill="#C5C6C6" d="M107.68 125.58c1.38,0 2.49,-1.12 2.49,-2.49 0,-1.38 -1.12,-2.49 -2.49,-2.49 -1.38,0 -2.49,1.12 -2.49,2.49 0,1.38 1.12,2.49 2.49,2.49z"></path><path fill="#FEFEFE" d="M107.36 125.35c1.38,0 2.49,-1.12 2.49,-2.49 0,-1.38 -1.12,-2.49 -2.49,-2.49 -1.38,0 -2.49,1.12 -2.49,2.49 0,1.38 1.12,2.49 2.49,2.49z"></path></g><g><path fill="#C5C6C6" d="M109.93 122.35c1.38,0 2.49,-1.12 2.49,-2.49 0,-1.38 -1.12,-2.49 -2.49,-2.49 -1.38,0 -2.49,1.12 -2.49,2.49 0,1.38 1.12,2.49 2.49,2.49z"></path><path fill="#FEFEFE" d="M109.62 122.12c1.38,0 2.49,-1.12 2.49,-2.49 0,-1.38 -1.12,-2.49 -2.49,-2.49 -1.38,0 -2.49,1.12 -2.49,2.49 0,1.38 1.12,2.49 2.49,2.49z"></path></g><g><path fill="#C5C6C6" d="M111.98 120.01c1.38,0 2.49,-1.12 2.49,-2.49 0,-1.38 -1.12,-2.49 -2.49,-2.49 -1.38,0 -2.49,1.12 -2.49,2.49 0,1.38 1.12,2.49 2.49,2.49z"></path><path fill="#FEFEFE" d="M111.66 119.78c1.38,0 2.49,-1.12 2.49,-2.49 0,-1.38 -1.12,-2.49 -2.49,-2.49 -1.38,0 -2.49,1.12 -2.49,2.49 0,1.38 1.12,2.49 2.49,2.49z"></path></g><g><path fill="#C5C6C6" d="M113.29 117.89c1.38,0 2.49,-1.12 2.49,-2.49 0,-1.38 -1.12,-2.49 -2.49,-2.49 -1.38,0 -2.49,1.12 -2.49,2.49 0,1.38 1.12,2.49 2.49,2.49z"></path><path fill="#FEFEFE" d="M112.97 117.65c1.38,0 2.49,-1.12 2.49,-2.49 0,-1.38 -1.12,-2.49 -2.49,-2.49 -1.38,0 -2.49,1.12 -2.49,2.49 0,1.38 1.12,2.49 2.49,2.49z"></path></g><g><path fill="#C5C6C6" d="M114.47 114.15c1.38,0 2.49,-1.12 2.49,-2.49 0,-1.38 -1.12,-2.49 -2.49,-2.49 -1.38,0 -2.49,1.12 -2.49,2.49 0,1.38 1.12,2.49 2.49,2.49z"></path><path fill="#FEFEFE" d="M114.15 113.92c1.38,0 2.49,-1.12 2.49,-2.49 0,-1.38 -1.12,-2.49 -2.49,-2.49 -1.38,0 -2.49,1.12 -2.49,2.49 0,1.38 1.12,2.49 2.49,2.49z"></path></g><g><path fill="#C5C6C6" d="M115.92 110.93c1.38,0 2.49,-1.12 2.49,-2.49 0,-1.38 -1.12,-2.49 -2.49,-2.49 -1.38,0 -2.49,1.12 -2.49,2.49 0,1.38 1.12,2.49 2.49,2.49z"></path><path fill="#FEFEFE" d="M115.6 110.69c1.38,0 2.49,-1.12 2.49,-2.49 0,-1.38 -1.12,-2.49 -2.49,-2.49 -1.38,0 -2.49,1.12 -2.49,2.49 0,1.38 1.12,2.49 2.49,2.49z"></path></g><g><path fill="#C5C6C6" d="M115.92 108.44c1.38,0 2.49,-1.12 2.49,-2.49 0,-1.38 -1.12,-2.49 -2.49,-2.49 -1.38,0 -2.49,1.12 -2.49,2.49 0,1.38 1.12,2.49 2.49,2.49z"></path><path fill="#FEFEFE" d="M115.6 108.2c1.38,0 2.49,-1.12 2.49,-2.49 0,-1.38 -1.12,-2.49 -2.49,-2.49 -1.38,0 -2.49,1.12 -2.49,2.49 0,1.38 1.12,2.49 2.49,2.49z"></path></g><g><path fill="#C5C6C6" d="M116.99 104.87c1.38,0 2.49,-1.12 2.49,-2.49 0,-1.38 -1.12,-2.49 -2.49,-2.49 -0.74,0 -1.4,0.32 -1.86,0.83 -0.2,0.46 -0.4,0.9 -0.61,1.34 -0.01,0.11 -0.02,0.21 -0.02,0.32 0,1.38 1.12,2.49 2.49,2.49z"></path><path fill="#FEFEFE" d="M116.67 104.64c1.38,0 2.49,-1.12 2.49,-2.49 0,-1.38 -1.12,-2.49 -2.49,-2.49 -0.45,0 -0.87,0.12 -1.23,0.32l-0.03 0.06c-0.37,0.91 -0.77,1.78 -1.19,2.6 0.23,1.14 1.24,1.99 2.44,1.99z"></path></g><g><path fill="#C5C6C6" d="M117.49 101.36c1.38,0 2.49,-1.12 2.49,-2.49 0,-1.38 -1.12,-2.49 -2.49,-2.49 -0.34,0 -0.67,0.07 -0.97,0.2 -0.21,1.01 -0.56,2.13 -1.1,3.47l-0.05 0.13c0.44,0.72 1.23,1.19 2.13,1.19z"></path><path fill="#FEFEFE" d="M117.17 101.13c1.38,0 2.49,-1.12 2.49,-2.49 0,-1.38 -1.12,-2.49 -2.49,-2.49 -0.2,0 -0.39,0.02 -0.58,0.07 -0.2,1.11 -0.57,2.33 -1.17,3.83 -0.03,0.09 -0.07,0.17 -0.11,0.25 0.46,0.51 1.12,0.83 1.86,0.83z"></path></g><g><path fill="#C5C6C6" d="M95.22 130.18c1.38,0 2.49,-1.12 2.49,-2.49 0,-1.38 -1.12,-2.49 -2.49,-2.49 -0.76,0 -1.45,0.34 -1.9,0.88 0.18,1.19 0.36,2.43 0.54,3.69 0.39,0.26 0.86,0.41 1.36,0.41z"></path><path fill="#FEFEFE" d="M94.9 129.95c1.38,0 2.49,-1.12 2.49,-2.49 0,-1.38 -1.12,-2.49 -2.49,-2.49 -0.64,0 -1.22,0.24 -1.66,0.63 0.2,1.32 0.4,2.71 0.6,4.12 0.32,0.15 0.68,0.23 1.05,0.23z"></path></g><g><path fill="#C5C6C6" d="M98.22 128.57c1.38,0 2.49,-1.12 2.49,-2.49 0,-1.38 -1.12,-2.49 -2.49,-2.49 -1.38,0 -2.49,1.12 -2.49,2.49 0,1.38 1.12,2.49 2.49,2.49z"></path><path fill="#FEFEFE" d="M97.9 128.34c1.38,0 2.49,-1.12 2.49,-2.49 0,-1.38 -1.12,-2.49 -2.49,-2.49 -1.38,0 -2.49,1.12 -2.49,2.49 0,1.38 1.12,2.49 2.49,2.49z"></path></g><g><path fill="#C5C6C6" d="M100.86 125.64c1.38,0 2.49,-1.12 2.49,-2.49 0,-1.38 -1.12,-2.49 -2.49,-2.49 -1.38,0 -2.49,1.12 -2.49,2.49 0,1.38 1.12,2.49 2.49,2.49z"></path><path fill="#FEFEFE" d="M100.54 125.41c1.38,0 2.49,-1.12 2.49,-2.49 0,-1.38 -1.12,-2.49 -2.49,-2.49 -1.38,0 -2.49,1.12 -2.49,2.49 0,1.38 1.12,2.49 2.49,2.49z"></path></g><g><path fill="#C5C6C6" d="M103.2 123.74c1.38,0 2.49,-1.12 2.49,-2.49 0,-1.38 -1.12,-2.49 -2.49,-2.49 -1.38,0 -2.49,1.12 -2.49,2.49 0,1.38 1.12,2.49 2.49,2.49z"></path><path fill="#FEFEFE" d="M102.88 123.51c1.38,0 2.49,-1.12 2.49,-2.49 0,-1.38 -1.12,-2.49 -2.49,-2.49 -1.38,0 -2.49,1.12 -2.49,2.49 0,1.38 1.12,2.49 2.49,2.49z"></path></g><g><path fill="#C5C6C6" d="M105.69 121.25c1.38,0 2.49,-1.12 2.49,-2.49 0,-1.38 -1.12,-2.49 -2.49,-2.49 -1.38,0 -2.49,1.12 -2.49,2.49 0,1.38 1.12,2.49 2.49,2.49z"></path><path fill="#FEFEFE" d="M105.37 121.02c1.38,0 2.49,-1.12 2.49,-2.49 0,-1.38 -1.12,-2.49 -2.49,-2.49 -1.38,0 -2.49,1.12 -2.49,2.49 0,1.38 1.12,2.49 2.49,2.49z"></path></g><g><path fill="#C5C6C6" d="M108.18 118.76c1.38,0 2.49,-1.12 2.49,-2.49 0,-1.38 -1.12,-2.49 -2.49,-2.49 -1.38,0 -2.49,1.12 -2.49,2.49 0,1.38 1.12,2.49 2.49,2.49z"></path><path fill="#FEFEFE" d="M107.86 118.53c1.38,0 2.49,-1.12 2.49,-2.49 0,-1.38 -1.12,-2.49 -2.49,-2.49 -1.38,0 -2.49,1.12 -2.49,2.49 0,1.38 1.12,2.49 2.49,2.49z"></path></g><g><path fill="#C5C6C6" d="M110.15 115.69c1.38,0 2.49,-1.12 2.49,-2.49 0,-1.38 -1.12,-2.49 -2.49,-2.49 -1.38,0 -2.49,1.12 -2.49,2.49 0,1.38 1.12,2.49 2.49,2.49z"></path><path fill="#FEFEFE" d="M109.83 115.46c1.38,0 2.49,-1.12 2.49,-2.49 0,-1.38 -1.12,-2.49 -2.49,-2.49 -1.38,0 -2.49,1.12 -2.49,2.49 0,1.38 1.12,2.49 2.49,2.49z"></path></g><g><path fill="#C5C6C6" d="M111.4 112.62c1.38,0 2.49,-1.12 2.49,-2.49 0,-1.38 -1.12,-2.49 -2.49,-2.49 -0.14,0 -0.27,0.01 -0.4,0.03 -0.66,0.83 -1.36,1.59 -2.09,2.3 -0,0.05 -0,0.1 -0,0.15 0,1.38 1.12,2.49 2.49,2.49z"></path><path fill="#FEFEFE" d="M111.08 112.38c1.38,0 2.49,-1.12 2.49,-2.49 0,-1.33 -1.05,-2.42 -2.36,-2.49 -0.82,1.04 -1.68,1.99 -2.59,2.86 0.18,1.2 1.21,2.12 2.46,2.12z"></path></g><g><path fill="#C5C6C6" d="M112.42 109.4c1.38,0 2.49,-1.12 2.49,-2.49 0,-1.11 -0.73,-2.05 -1.73,-2.37 -0.85,1.41 -1.78,2.69 -2.77,3.84 0.45,0.62 1.19,1.02 2.01,1.02z"></path><path fill="#FEFEFE" d="M112.1 109.16c1.38,0 2.49,-1.12 2.49,-2.49 0,-0.97 -0.55,-1.81 -1.36,-2.22 -0.88,1.47 -1.85,2.8 -2.88,3.99 0.45,0.45 1.07,0.72 1.75,0.72z"></path></g><g><path fill="#C5C6C6" d="M94.56 126.23c1.38,0 2.49,-1.12 2.49,-2.49 0,-1.38 -1.12,-2.49 -2.49,-2.49 -0.72,0 -1.36,0.3 -1.82,0.79l0.41 2.95 0.13 0.89c0.37,0.22 0.81,0.35 1.27,0.35z"></path><path fill="#FEFEFE" d="M94.24 126c1.38,0 2.49,-1.12 2.49,-2.49 0,-1.38 -1.12,-2.49 -2.49,-2.49 -0.59,0 -1.13,0.21 -1.56,0.55l0.48 3.43 0.12 0.81c0.3,0.13 0.62,0.19 0.97,0.19z"></path></g><g><path fill="#C5C6C6" d="M97.52 123.83c1.38,0 2.49,-1.12 2.49,-2.49 0,-1.38 -1.12,-2.49 -2.49,-2.49 -1.38,0 -2.49,1.12 -2.49,2.49 0,1.38 1.12,2.49 2.49,2.49z"></path><path fill="#FEFEFE" d="M97.2 123.6c1.38,0 2.49,-1.12 2.49,-2.49 0,-1.38 -1.12,-2.49 -2.49,-2.49 -1.38,0 -2.49,1.12 -2.49,2.49 0,1.38 1.12,2.49 2.49,2.49z"></path></g><g><path fill="#C5C6C6" d="M100.35 121.55c1.38,0 2.49,-1.12 2.49,-2.49 0,-1.38 -1.12,-2.49 -2.49,-2.49 -1.38,0 -2.49,1.12 -2.49,2.49 0,1.38 1.12,2.49 2.49,2.49z"></path><path fill="#FEFEFE" d="M100.03 121.31c1.38,0 2.49,-1.12 2.49,-2.49 0,-1.38 -1.12,-2.49 -2.49,-2.49 -1.38,0 -2.49,1.12 -2.49,2.49 0,1.38 1.12,2.49 2.49,2.49z"></path></g><g><path fill="#C5C6C6" d="M103.13 118.91c1.38,0 2.49,-1.12 2.49,-2.49 0,-1.19 -0.84,-2.19 -1.96,-2.43 -0.92,0.54 -1.87,1.03 -2.83,1.47 -0.12,0.3 -0.19,0.62 -0.19,0.96 0,1.38 1.12,2.49 2.49,2.49z"></path><path fill="#FEFEFE" d="M102.81 118.68c1.38,0 2.49,-1.12 2.49,-2.49 0,-1.02 -0.62,-1.9 -1.5,-2.28 -1.11,0.66 -2.26,1.25 -3.43,1.76 -0.04,0.17 -0.06,0.34 -0.06,0.52 0,1.38 1.12,2.49 2.49,2.49z"></path></g><g><path fill="#C5C6C6" d="M106.2 116.13c1.38,0 2.49,-1.12 2.49,-2.49 0,-0.97 -0.56,-1.82 -1.37,-2.23 -1.14,0.95 -2.34,1.79 -3.59,2.53 0.15,1.23 1.2,2.18 2.47,2.18z"></path><path fill="#FEFEFE" d="M105.88 115.9c1.38,0 2.49,-1.12 2.49,-2.49 0,-0.83 -0.4,-1.56 -1.03,-2.01 -1.23,1.02 -2.52,1.92 -3.86,2.7 0.3,1.04 1.26,1.81 2.4,1.81z"></path></g><g><path fill="#C5C6C6" d="M94.22 122.07c1.38,0 2.49,-1.12 2.49,-2.49 0,-0.93 -0.51,-1.75 -1.27,-2.17 -1.07,0.3 -2.15,0.56 -3.23,0.78l0.46 3.35c0.42,0.34 0.96,0.54 1.55,0.54z"></path><path fill="#FEFEFE" d="M93.91 121.84c1.38,0 2.49,-1.12 2.49,-2.49 0,-0.79 -0.37,-1.49 -0.94,-1.95 -1.07,0.3 -2.16,0.56 -3.25,0.78l0.46 3.33c0.36,0.21 0.78,0.32 1.23,0.32z"></path></g><g><path fill="#C5C6C6" d="M96.95 119.77c1.38,0 2.49,-1.12 2.49,-2.49 0,-0.4 -0.1,-0.78 -0.27,-1.12 -1.53,0.6 -3.1,1.1 -4.69,1.5 0.18,1.2 1.22,2.11 2.46,2.11z"></path><path fill="#FEFEFE" d="M96.63 119.54c1.38,0 2.49,-1.12 2.49,-2.49 0,-0.28 -0.05,-0.56 -0.14,-0.81 -1.55,0.6 -3.14,1.09 -4.75,1.49 0.3,1.05 1.26,1.81 2.4,1.81z"></path></g><g><path fill="#C5C6C6" d="M100.3 117.53c1.38,0 2.49,-1.12 2.49,-2.49 0,-0.18 -0.02,-0.36 -0.06,-0.53 -1.44,0.78 -2.93,1.44 -4.45,1.99 0.45,0.63 1.19,1.03 2.02,1.03z"></path><path fill="#FEFEFE" d="M99.98 117.3c1.38,0 2.49,-1.12 2.49,-2.49 0,-0.05 -0,-0.1 -0.01,-0.16 -1.39,0.73 -2.82,1.35 -4.28,1.88 0.45,0.47 1.09,0.77 1.8,0.77z"></path></g></g></g></g><g><path fill="#C5C6C6" d="M82.28 28.71c-1.38,0 -2.49,1.12 -2.49,2.49 0,1.38 1.12,2.49 2.49,2.49 1.38,0 2.49,-1.12 2.49,-2.49 0,-1.38 -1.12,-2.49 -2.49,-2.49z"></path><path fill="#FEFEFE" d="M82.6 28.95c-1.38,0 -2.49,1.12 -2.49,2.49 0,1.38 1.12,2.49 2.49,2.49 1.38,0 2.49,-1.12 2.49,-2.49 0,-1.38 -1.12,-2.49 -2.49,-2.49z"></path></g><g><path fill="#C5C6C6" d="M86.57 28.67c-1.38,0 -2.49,1.12 -2.49,2.49 0,1.38 1.12,2.49 2.49,2.49 1.38,0 2.49,-1.12 2.49,-2.49 0,-1.38 -1.12,-2.49 -2.49,-2.49z"></path><path fill="#FEFEFE" d="M86.89 28.91c-1.38,0 -2.49,1.12 -2.49,2.49 0,1.38 1.12,2.49 2.49,2.49 1.38,0 2.49,-1.12 2.49,-2.49 0,-1.38 -1.12,-2.49 -2.49,-2.49z"></path></g><g><path fill="#C5C6C6" d="M90.49 28.64c1.38,0 2.49,1.12 2.49,2.49 0,1.38 -1.12,2.49 -2.49,2.49 -1.38,0 -2.49,-1.12 -2.49,-2.49 0,-1.38 1.12,-2.49 2.49,-2.49z"></path><path fill="#FEFEFE" d="M90.17 28.87c1.38,0 2.49,1.12 2.49,2.49 0,1.38 -1.12,2.49 -2.49,2.49 -1.38,0 -2.49,-1.12 -2.49,-2.49 0,-1.38 1.12,-2.49 2.49,-2.49z"></path></g><g><path fill="#C5C6C6" d="M94.27 28.76c1.38,0 2.49,1.12 2.49,2.49 0,1.38 -1.12,2.49 -2.49,2.49 -1.38,0 -2.49,-1.12 -2.49,-2.49 0,-1.38 1.12,-2.49 2.49,-2.49z"></path><path fill="#FEFEFE" d="M93.95 28.99c1.38,0 2.49,1.12 2.49,2.49 0,1.38 -1.12,2.49 -2.49,2.49 -1.38,0 -2.49,-1.12 -2.49,-2.49 0,-1.38 1.12,-2.49 2.49,-2.49z"></path></g><g><path fill="#C5C6C6" d="M98.03 29.84c1.38,0 2.49,1.12 2.49,2.49 0,1.38 -1.12,2.49 -2.49,2.49 -1.38,0 -2.49,-1.12 -2.49,-2.49 0,-1.38 1.12,-2.49 2.49,-2.49z"></path><path fill="#FEFEFE" d="M97.71 30.08c1.38,0 2.49,1.12 2.49,2.49 0,1.38 -1.12,2.49 -2.49,2.49 -1.38,0 -2.49,-1.12 -2.49,-2.49 0,-1.38 1.12,-2.49 2.49,-2.49z"></path></g><g><path fill="#C5C6C6" d="M101.7 31.26c1.38,0 2.49,1.12 2.49,2.49 0,1.38 -1.12,2.49 -2.49,2.49 -1.38,0 -2.49,-1.12 -2.49,-2.49 0,-1.38 1.12,-2.49 2.49,-2.49z"></path><path fill="#FEFEFE" d="M101.38 31.49c1.38,0 2.49,1.12 2.49,2.49 0,1.38 -1.12,2.49 -2.49,2.49 -1.38,0 -2.49,-1.12 -2.49,-2.49 0,-1.38 1.12,-2.49 2.49,-2.49z"></path></g><g><path fill="#C5C6C6" d="M104.01 33.37c1.38,0 2.49,1.12 2.49,2.49 0,1.38 -1.12,2.49 -2.49,2.49 -1.38,0 -2.49,-1.12 -2.49,-2.49 0,-1.38 1.12,-2.49 2.49,-2.49z"></path><path fill="#FEFEFE" d="M103.69 33.6c1.38,0 2.49,1.12 2.49,2.49 0,1.38 -1.12,2.49 -2.49,2.49 -1.38,0 -2.49,-1.12 -2.49,-2.49 0,-1.38 1.12,-2.49 2.49,-2.49z"></path></g><g><path fill="#C5C6C6" d="M106.93 35.82c1.38,0 2.49,1.12 2.49,2.49 0,1.38 -1.12,2.49 -2.49,2.49 -1.38,0 -2.49,-1.12 -2.49,-2.49 0,-1.38 1.12,-2.49 2.49,-2.49z"></path><path fill="#FEFEFE" d="M106.61 36.05c1.38,0 2.49,1.12 2.49,2.49 0,1.38 -1.12,2.49 -2.49,2.49 -1.38,0 -2.49,-1.12 -2.49,-2.49 0,-1.38 1.12,-2.49 2.49,-2.49z"></path></g><g><path fill="#C5C6C6" d="M109.2 38.09c1.38,0 2.49,1.12 2.49,2.49 0,1.38 -1.12,2.49 -2.49,2.49 -1.38,0 -2.49,-1.12 -2.49,-2.49 0,-1.38 1.12,-2.49 2.49,-2.49z"></path><path fill="#FEFEFE" d="M108.88 38.33c1.38,0 2.49,1.12 2.49,2.49 0,1.38 -1.12,2.49 -2.49,2.49 -1.38,0 -2.49,-1.12 -2.49,-2.49 0,-1.38 1.12,-2.49 2.49,-2.49z"></path></g><g><path fill="#C5C6C6" d="M114.34 44.67c1.38,0 2.49,1.12 2.49,2.49 0,1.38 -1.12,2.49 -2.49,2.49 -1.38,0 -2.49,-1.12 -2.49,-2.49 0,-1.38 1.12,-2.49 2.49,-2.49z"></path><path fill="#FEFEFE" d="M114.02 44.9c1.38,0 2.49,1.12 2.49,2.49 0,1.38 -1.12,2.49 -2.49,2.49 -1.38,0 -2.49,-1.12 -2.49,-2.49 0,-1.38 1.12,-2.49 2.49,-2.49z"></path></g><g><path fill="#C5C6C6" d="M117.11 48.34c1.38,0 2.49,1.12 2.49,2.49 0,1.38 -1.12,2.49 -2.49,2.49 -1.38,0 -2.49,-1.12 -2.49,-2.49 0,-1.38 1.12,-2.49 2.49,-2.49z"></path><path fill="#FEFEFE" d="M116.79 48.58c1.38,0 2.49,1.12 2.49,2.49 0,1.38 -1.12,2.49 -2.49,2.49 -1.38,0 -2.49,-1.12 -2.49,-2.49 0,-1.38 1.12,-2.49 2.49,-2.49z"></path></g><g><path fill="#C5C6C6" d="M118.32 52.66c1.38,0 2.49,1.12 2.49,2.49 0,1.38 -1.12,2.49 -2.49,2.49 -1.38,0 -2.49,-1.12 -2.49,-2.49 0,-1.38 1.12,-2.49 2.49,-2.49z"></path><path fill="#FEFEFE" d="M118 52.89c1.38,0 2.49,1.12 2.49,2.49 0,1.38 -1.12,2.49 -2.49,2.49 -1.38,0 -2.49,-1.12 -2.49,-2.49 0,-1.38 1.12,-2.49 2.49,-2.49z"></path></g><g><path fill="#C5C6C6" d="M118.7 57.23c1.38,0 2.49,1.12 2.49,2.49 0,1.38 -1.12,2.49 -2.49,2.49 -1.38,0 -2.49,-1.12 -2.49,-2.49 0,-1.38 1.12,-2.49 2.49,-2.49z"></path><path fill="#FEFEFE" d="M118.38 57.46c1.38,0 2.49,1.12 2.49,2.49 0,1.38 -1.12,2.49 -2.49,2.49 -1.38,0 -2.49,-1.12 -2.49,-2.49 0,-1.38 1.12,-2.49 2.49,-2.49z"></path></g><g><path fill="#C5C6C6" d="M118.89 61.73c1.38,0 2.49,1.12 2.49,2.49 0,1.38 -1.12,2.49 -2.49,2.49 -1.38,0 -2.49,-1.12 -2.49,-2.49 0,-1.38 1.12,-2.49 2.49,-2.49z"></path><path fill="#FEFEFE" d="M118.57 61.97c1.38,0 2.49,1.12 2.49,2.49 0,1.38 -1.12,2.49 -2.49,2.49 -1.38,0 -2.49,-1.12 -2.49,-2.49 0,-1.38 1.12,-2.49 2.49,-2.49z"></path></g><g><path fill="#C5C6C6" d="M118.95 65.79c1.38,0 2.49,1.12 2.49,2.49 0,1.38 -1.12,2.49 -2.49,2.49 -1.38,0 -2.49,-1.12 -2.49,-2.49 0,-1.38 1.12,-2.49 2.49,-2.49z"></path><path fill="#FEFEFE" d="M118.63 66.03c1.38,0 2.49,1.12 2.49,2.49 0,1.38 -1.12,2.49 -2.49,2.49 -1.38,0 -2.49,-1.12 -2.49,-2.49 0,-1.38 1.12,-2.49 2.49,-2.49z"></path></g><g><path fill="#C5C6C6" d="M118.96 69.51c1.38,0 2.49,1.12 2.49,2.49 0,1.38 -1.12,2.49 -2.49,2.49 -1.38,0 -2.49,-1.12 -2.49,-2.49 0,-1.38 1.12,-2.49 2.49,-2.49z"></path><path fill="#FEFEFE" d="M118.65 69.75c1.38,0 2.49,1.12 2.49,2.49 0,1.38 -1.12,2.49 -2.49,2.49 -1.38,0 -2.49,-1.12 -2.49,-2.49 0,-1.38 1.12,-2.49 2.49,-2.49z"></path></g><g><path fill="#C5C6C6" d="M118.69 73.14c1.38,0 2.49,1.12 2.49,2.49 0,1.38 -1.12,2.49 -2.49,2.49 -1.38,0 -2.49,-1.12 -2.49,-2.49 0,-1.38 1.12,-2.49 2.49,-2.49z"></path><path fill="#FEFEFE" d="M118.37 73.37c1.38,0 2.49,1.12 2.49,2.49 0,1.38 -1.12,2.49 -2.49,2.49 -1.38,0 -2.49,-1.12 -2.49,-2.49 0,-1.38 1.12,-2.49 2.49,-2.49z"></path></g><g><path fill="#C5C6C6" d="M82.74 29.91c1.38,0 2.49,1.12 2.49,2.49 0,1.38 -1.12,2.49 -2.49,2.49 -1.38,0 -2.49,-1.12 -2.49,-2.49 0,-1.38 1.12,-2.49 2.49,-2.49z"></path><path fill="#FEFEFE" d="M82.42 30.14c1.38,0 2.49,1.12 2.49,2.49 0,1.38 -1.12,2.49 -2.49,2.49 -1.38,0 -2.49,-1.12 -2.49,-2.49 0,-1.38 1.12,-2.49 2.49,-2.49z"></path></g><g><path fill="#C5C6C6" d="M86.55 30.02c1.38,0 2.49,1.12 2.49,2.49 0,1.38 -1.12,2.49 -2.49,2.49 -1.38,0 -2.49,-1.12 -2.49,-2.49 0,-1.38 1.12,-2.49 2.49,-2.49z"></path><path fill="#FEFEFE" d="M86.23 30.25c1.38,0 2.49,1.12 2.49,2.49 0,1.38 -1.12,2.49 -2.49,2.49 -1.38,0 -2.49,-1.12 -2.49,-2.49 0,-1.38 1.12,-2.49 2.49,-2.49z"></path></g><g><path fill="#C5C6C6" d="M90.68 30.84c1.38,0 2.49,1.12 2.49,2.49 0,1.38 -1.12,2.49 -2.49,2.49 -1.38,0 -2.49,-1.12 -2.49,-2.49 0,-1.38 1.12,-2.49 2.49,-2.49z"></path><path fill="#FEFEFE" d="M90.37 31.08c1.38,0 2.49,1.12 2.49,2.49 0,1.38 -1.12,2.49 -2.49,2.49 -1.38,0 -2.49,-1.12 -2.49,-2.49 0,-1.38 1.12,-2.49 2.49,-2.49z"></path></g><g><path fill="#C5C6C6" d="M94.82 32.11c1.38,0 2.49,1.12 2.49,2.49 0,1.38 -1.12,2.49 -2.49,2.49 -1.38,0 -2.49,-1.12 -2.49,-2.49 0,-1.38 1.12,-2.49 2.49,-2.49z"></path><path fill="#FEFEFE" d="M94.5 32.35c1.38,0 2.49,1.12 2.49,2.49 0,1.38 -1.12,2.49 -2.49,2.49 -1.38,0 -2.49,-1.12 -2.49,-2.49 0,-1.38 1.12,-2.49 2.49,-2.49z"></path></g><g><path fill="#C5C6C6" d="M97.76 33.26c1.38,0 2.49,1.12 2.49,2.49 0,1.38 -1.12,2.49 -2.49,2.49 -1.38,0 -2.49,-1.12 -2.49,-2.49 0,-1.38 1.12,-2.49 2.49,-2.49z"></path><path fill="#FEFEFE" d="M97.44 33.5c1.38,0 2.49,1.12 2.49,2.49 0,1.38 -1.12,2.49 -2.49,2.49 -1.38,0 -2.49,-1.12 -2.49,-2.49 0,-1.38 1.12,-2.49 2.49,-2.49z"></path></g><g><path fill="#C5C6C6" d="M112.11 41.07c1.38,0 2.49,1.12 2.49,2.49 0,1.38 -1.12,2.49 -2.49,2.49 -1.38,0 -2.49,-1.12 -2.49,-2.49 0,-1.38 1.12,-2.49 2.49,-2.49z"></path><path fill="#FEFEFE" d="M111.79 41.31c1.38,0 2.49,1.12 2.49,2.49 0,1.38 -1.12,2.49 -2.49,2.49 -1.38,0 -2.49,-1.12 -2.49,-2.49 0,-1.38 1.12,-2.49 2.49,-2.49z"></path></g><g><path fill="#C5C6C6" d="M100.4 35c1.38,0 2.49,1.12 2.49,2.49 0,1.38 -1.12,2.49 -2.49,2.49 -1.38,0 -2.49,-1.12 -2.49,-2.49 0,-1.38 1.12,-2.49 2.49,-2.49z"></path><path fill="#FEFEFE" d="M100.08 35.24c1.38,0 2.49,1.12 2.49,2.49 0,1.38 -1.12,2.49 -2.49,2.49 -1.38,0 -2.49,-1.12 -2.49,-2.49 0,-1.38 1.12,-2.49 2.49,-2.49z"></path></g><g><path fill="#C5C6C6" d="M103.83 37.24c1.38,0 2.49,1.12 2.49,2.49 0,1.38 -1.12,2.49 -2.49,2.49 -1.38,0 -2.49,-1.12 -2.49,-2.49 0,-1.38 1.12,-2.49 2.49,-2.49z"></path><path fill="#FEFEFE" d="M103.51 37.47c1.38,0 2.49,1.12 2.49,2.49 0,1.38 -1.12,2.49 -2.49,2.49 -1.38,0 -2.49,-1.12 -2.49,-2.49 0,-1.38 1.12,-2.49 2.49,-2.49z"></path></g><g><path fill="#C5C6C6" d="M106.64 39.5c1.38,0 2.49,1.12 2.49,2.49 0,1.38 -1.12,2.49 -2.49,2.49 -1.38,0 -2.49,-1.12 -2.49,-2.49 0,-1.38 1.12,-2.49 2.49,-2.49z"></path><path fill="#FEFEFE" d="M106.32 39.74c1.38,0 2.49,1.12 2.49,2.49 0,1.38 -1.12,2.49 -2.49,2.49 -1.38,0 -2.49,-1.12 -2.49,-2.49 0,-1.38 1.12,-2.49 2.49,-2.49z"></path></g><g><path fill="#C5C6C6" d="M109.36 41.87c1.38,0 2.49,1.12 2.49,2.49 0,1.38 -1.12,2.49 -2.49,2.49 -1.38,0 -2.49,-1.12 -2.49,-2.49 0,-1.38 1.12,-2.49 2.49,-2.49z"></path><path fill="#FEFEFE" d="M109.04 42.1c1.38,0 2.49,1.12 2.49,2.49 0,1.38 -1.12,2.49 -2.49,2.49 -1.38,0 -2.49,-1.12 -2.49,-2.49 0,-1.38 1.12,-2.49 2.49,-2.49z"></path></g><g><path fill="#C5C6C6" d="M111.54 45.05c1.38,0 2.49,1.12 2.49,2.49 0,1.38 -1.12,2.49 -2.49,2.49 -1.38,0 -2.49,-1.12 -2.49,-2.49 0,-1.38 1.12,-2.49 2.49,-2.49z"></path><path fill="#FEFEFE" d="M111.22 45.29c1.38,0 2.49,1.12 2.49,2.49 0,1.38 -1.12,2.49 -2.49,2.49 -1.38,0 -2.49,-1.12 -2.49,-2.49 0,-1.38 1.12,-2.49 2.49,-2.49z"></path></g><g><path fill="#C5C6C6" d="M113.44 48.91c1.38,0 2.49,1.12 2.49,2.49 0,1.38 -1.12,2.49 -2.49,2.49 -1.38,0 -2.49,-1.12 -2.49,-2.49 0,-1.38 1.12,-2.49 2.49,-2.49z"></path><path fill="#FEFEFE" d="M113.12 49.14c1.38,0 2.49,1.12 2.49,2.49 0,1.38 -1.12,2.49 -2.49,2.49 -1.38,0 -2.49,-1.12 -2.49,-2.49 0,-1.38 1.12,-2.49 2.49,-2.49z"></path></g><g><path fill="#C5C6C6" d="M115.16 52.93c1.38,0 2.49,1.12 2.49,2.49 0,1.38 -1.12,2.49 -2.49,2.49 -1.38,0 -2.49,-1.12 -2.49,-2.49 0,-1.38 1.12,-2.49 2.49,-2.49z"></path><path fill="#FEFEFE" d="M114.84 53.16c1.38,0 2.49,1.12 2.49,2.49 0,1.38 -1.12,2.49 -2.49,2.49 -1.38,0 -2.49,-1.12 -2.49,-2.49 0,-1.38 1.12,-2.49 2.49,-2.49z"></path></g><g><path fill="#C5C6C6" d="M116.08 56.83c1.38,0 2.49,1.12 2.49,2.49 0,1.38 -1.12,2.49 -2.49,2.49 -1.38,0 -2.49,-1.12 -2.49,-2.49 0,-1.38 1.12,-2.49 2.49,-2.49z"></path><path fill="#FEFEFE" d="M115.76 57.06c1.38,0 2.49,1.12 2.49,2.49 0,1.38 -1.12,2.49 -2.49,2.49 -1.38,0 -2.49,-1.12 -2.49,-2.49 0,-1.38 1.12,-2.49 2.49,-2.49z"></path></g><g><path fill="#C5C6C6" d="M116.66 60.71c1.38,0 2.49,1.12 2.49,2.49 0,1.38 -1.12,2.49 -2.49,2.49 -1.38,0 -2.49,-1.12 -2.49,-2.49 0,-1.38 1.12,-2.49 2.49,-2.49z"></path><path fill="#FEFEFE" d="M116.34 60.94c1.38,0 2.49,1.12 2.49,2.49 0,1.38 -1.12,2.49 -2.49,2.49 -1.38,0 -2.49,-1.12 -2.49,-2.49 0,-1.38 1.12,-2.49 2.49,-2.49z"></path></g><g><path fill="#C5C6C6" d="M117.15 64.47c1.38,0 2.49,1.12 2.49,2.49 0,1.38 -1.12,2.49 -2.49,2.49 -1.38,0 -2.49,-1.12 -2.49,-2.49 0,-1.38 1.12,-2.49 2.49,-2.49z"></path><path fill="#FEFEFE" d="M116.83 64.71c1.38,0 2.49,1.12 2.49,2.49 0,1.38 -1.12,2.49 -2.49,2.49 -1.38,0 -2.49,-1.12 -2.49,-2.49 0,-1.38 1.12,-2.49 2.49,-2.49z"></path></g><g><path fill="#C5C6C6" d="M118.14 77.26c1.38,0 2.49,1.12 2.49,2.49 0,1.38 -1.12,2.49 -2.49,2.49 -1.38,0 -2.49,-1.12 -2.49,-2.49 0,-1.38 1.12,-2.49 2.49,-2.49z"></path><path fill="#FEFEFE" d="M117.82 77.49c1.38,0 2.49,1.12 2.49,2.49 0,1.38 -1.12,2.49 -2.49,2.49 -1.38,0 -2.49,-1.12 -2.49,-2.49 0,-1.38 1.12,-2.49 2.49,-2.49z"></path></g><g><path fill="#C5C6C6" d="M79.28 28.63c1.38,0 2.49,1.12 2.49,2.49 0,1.38 -1.12,2.49 -2.49,2.49 -1.38,0 -2.49,-1.12 -2.49,-2.49 0,-1.38 1.12,-2.49 2.49,-2.49z"></path><path fill="#FEFEFE" d="M78.96 28.86c1.38,0 2.49,1.12 2.49,2.49 0,1.38 -1.12,2.49 -2.49,2.49 -1.38,0 -2.49,-1.12 -2.49,-2.49 0,-1.38 1.12,-2.49 2.49,-2.49z"></path></g><g><path fill="#C5C6C6" d="M74.98 28.82c-1.38,0 -2.49,1.12 -2.49,2.49 0,1.38 1.12,2.49 2.49,2.49 1.38,0 2.49,-1.12 2.49,-2.49 0,-1.38 -1.12,-2.49 -2.49,-2.49z"></path><path fill="#FEFEFE" d="M75.3 29.06c-1.38,0 -2.49,1.12 -2.49,2.49 0,1.38 1.12,2.49 2.49,2.49 1.38,0 2.49,-1.12 2.49,-2.49 0,-1.38 -1.12,-2.49 -2.49,-2.49z"></path></g><g><path fill="#C5C6C6" d="M118.01 82.1c1.38,0 2.49,1.12 2.49,2.49 0,1.38 -1.12,2.49 -2.49,2.49 -1.38,0 -2.49,-1.12 -2.49,-2.49 0,-1.38 1.12,-2.49 2.49,-2.49z"></path><path fill="#FEFEFE" d="M117.69 82.33c1.38,0 2.49,1.12 2.49,2.49 0,1.38 -1.12,2.49 -2.49,2.49 -1.38,0 -2.49,-1.12 -2.49,-2.49 0,-1.38 1.12,-2.49 2.49,-2.49z"></path></g><g><path fill="#C5C6C6" d="M117.76 86.44c1.38,0 2.49,1.12 2.49,2.49 0,1.38 -1.12,2.49 -2.49,2.49 -1.38,0 -2.49,-1.12 -2.49,-2.49 0,-1.38 1.12,-2.49 2.49,-2.49z"></path><path fill="#FEFEFE" d="M117.44 86.67c1.38,0 2.49,1.12 2.49,2.49 0,1.38 -1.12,2.49 -2.49,2.49 -1.38,0 -2.49,-1.12 -2.49,-2.49 0,-1.38 1.12,-2.49 2.49,-2.49z"></path></g><g><path fill="#C5C6C6" d="M118.39 90.66c1.38,0 2.49,1.12 2.49,2.49 0,1.38 -1.12,2.49 -2.49,2.49 -1.38,0 -2.49,-1.12 -2.49,-2.49 0,-1.38 1.12,-2.49 2.49,-2.49z"></path><path fill="#FEFEFE" d="M118.07 90.9c1.38,0 2.49,1.12 2.49,2.49 0,1.38 -1.12,2.49 -2.49,2.49 -1.38,0 -2.49,-1.12 -2.49,-2.49 0,-1.38 1.12,-2.49 2.49,-2.49z"></path></g><g><path fill="#C5C6C6" d="M119.11 94.03c1.38,0 2.49,1.12 2.49,2.49 0,1.38 -1.12,2.49 -2.49,2.49 -1.38,0 -2.49,-1.12 -2.49,-2.49 0,-1.38 1.12,-2.49 2.49,-2.49z"></path><path fill="#FEFEFE" d="M118.79 94.26c1.38,0 2.49,1.12 2.49,2.49 0,1.38 -1.12,2.49 -2.49,2.49 -1.38,0 -2.49,-1.12 -2.49,-2.49 0,-1.38 1.12,-2.49 2.49,-2.49z"></path></g><g><path fill="#C5C6C6" d="M117.3 68.23c1.38,0 2.49,1.12 2.49,2.49 0,1.38 -1.12,2.49 -2.49,2.49 -1.38,0 -2.49,-1.12 -2.49,-2.49 0,-1.38 1.12,-2.49 2.49,-2.49z"></path><path fill="#FEFEFE" d="M116.98 68.46c1.38,0 2.49,1.12 2.49,2.49 0,1.38 -1.12,2.49 -2.49,2.49 -1.38,0 -2.49,-1.12 -2.49,-2.49 0,-1.38 1.12,-2.49 2.49,-2.49z"></path></g><g><path fill="#C5C6C6" d="M117.34 72.27c1.38,0 2.49,1.12 2.49,2.49 0,1.38 -1.12,2.49 -2.49,2.49 -1.38,0 -2.49,-1.12 -2.49,-2.49 0,-1.38 1.12,-2.49 2.49,-2.49z"></path><path fill="#FEFEFE" d="M117.02 72.5c1.38,0 2.49,1.12 2.49,2.49 0,1.38 -1.12,2.49 -2.49,2.49 -1.38,0 -2.49,-1.12 -2.49,-2.49 0,-1.38 1.12,-2.49 2.49,-2.49z"></path></g><g><path fill="#C5C6C6" d="M117.44 75.66c1.38,0 2.49,1.12 2.49,2.49 0,1.38 -1.12,2.49 -2.49,2.49 -1.38,0 -2.49,-1.12 -2.49,-2.49 0,-1.38 1.12,-2.49 2.49,-2.49z"></path><path fill="#FEFEFE" d="M117.13 75.89c1.38,0 2.49,1.12 2.49,2.49 0,1.38 -1.12,2.49 -2.49,2.49 -1.38,0 -2.49,-1.12 -2.49,-2.49 0,-1.38 1.12,-2.49 2.49,-2.49z"></path></g><g><path fill="#C5C6C6" d="M117.5 78.91c1.38,0 2.49,1.12 2.49,2.49 0,1.38 -1.12,2.49 -2.49,2.49 -1.38,0 -2.49,-1.12 -2.49,-2.49 0,-1.38 1.12,-2.49 2.49,-2.49z"></path><path fill="#FEFEFE" d="M117.18 79.14c1.38,0 2.49,1.12 2.49,2.49 0,1.38 -1.12,2.49 -2.49,2.49 -1.38,0 -2.49,-1.12 -2.49,-2.49 0,-1.38 1.12,-2.49 2.49,-2.49z"></path></g><g><path fill="#C5C6C6" d="M78.44 30.25c1.38,0 2.49,1.12 2.49,2.49 0,1.38 -1.12,2.49 -2.49,2.49 -1.38,0 -2.49,-1.12 -2.49,-2.49 0,-1.38 1.12,-2.49 2.49,-2.49z"></path><path fill="#FEFEFE" d="M78.13 30.48c1.38,0 2.49,1.12 2.49,2.49 0,1.38 -1.12,2.49 -2.49,2.49 -1.38,0 -2.49,-1.12 -2.49,-2.49 0,-1.38 1.12,-2.49 2.49,-2.49z"></path></g></svg>