<svg xmlns="http://www.w3.org/2000/svg" width="81.267mm" height="81.267mm" version="1.1" viewBox="0 0 150.58 150.58"><g><g><path fill="#434242" d="M35.31 51.8l-30.99 1.49 24.75 4.37 -26.8 4.52 29.05 3.3 -28.43 19.65 31.54 -9.56c0.07,-9.49 0.29,-19.97 6.37,-27.44 3.76,-4.62 9.35,-8.23 15.32,-10.73 5.59,-2.33 12.02,3.86 17.12,3.54 5.25,-0.33 11.57,-6.92 17.99,-4.9 5.69,1.8 11.07,4.43 14.8,7.74 9.23,8.2 10.21,20.59 10.15,35.03l29.5 8.29 -26.71 -22.26 27.37 -3.29 -20.02 -5.27 19.86 -5.87 -23.77 2.11 0.93 -2.17 -6.32 -1.7 20.55 -14.35 -26.17 6.88 4.57 -8.41 -16.63 2.73 -0.81 -28.84 -17.9 23.29 -9.22 -27.48 -7.48 24.66 -15.56 -17.72 -2.42 25.37 -22.98 -0.72 6.83 7.84 -17.77 -1.07 23.3 10.95z"></path><polygon fill="#2B2A29" points="63.93,27.15 62.19,25.17 62.01,33.47 "></polygon><polygon fill="#2B2A29" points="80.63,29.97 81.98,28.22 82.67,36.05 "></polygon><polygon fill="#2B2A29" points="46.11,33.05 45.94,34.81 55.29,35.1 "></polygon><polygon fill="#2B2A29" points="29.79,41.93 37.82,51.66 27.33,41.78 "></polygon><polygon fill="#2B2A29" points="35.31,51.8 37.91,51.8 26.47,47.65 "></polygon><polygon fill="#2B2A29" points="29.07,57.67 34.91,56.36 21.17,56.27 "></polygon><polygon fill="#2B2A29" points="31.32,65.49 34.77,65.79 34.7,66.76 26.42,68.88 "></polygon><polygon fill="#2B2A29" points="99.35,35.52 99.27,32.76 95.52,36.28 "></polygon><polygon fill="#2B2A29" points="111.4,41.2 114.52,40.38 108.93,45.3 "></polygon><polygon fill="#2B2A29" points="117.02,48.67 111.24,46.39 118.65,47.53 "></polygon><polygon fill="#2B2A29" points="122.41,52.54 117.63,60.72 125.47,52.27 "></polygon><polygon fill="#2B2A29" points="126.32,56.3 120.12,57.66 131.09,57.55 "></polygon><polygon fill="#2B2A29" points="118.98,64.86 115.65,65.36 115.85,67.51 122.17,67.52 "></polygon></g><polygon fill="#727271" points="71.72,5.83 81.04,35.12 74.97,30.05 "></polygon><polygon fill="#727271" points="97.68,11.54 96.22,32.88 97.68,31.42 "></polygon><polygon fill="#727271" points="104.01,37.4 114.88,33.75 100.19,35.93 "></polygon><polygon fill="#727271" points="49.3,11.92 60.45,25.9 60.03,27.9 "></polygon><polygon fill="#727271" points="25.6,35.31 48.77,36.36 47.84,37.92 "></polygon></g></svg>