<svg xmlns="http://www.w3.org/2000/svg" width="81.267mm" height="81.267mm" version="1.1" viewBox="0 0 176.79 176.79"><g><path fill="#FABD63" d="M63.49 131.55c1.83,0.92 3.85,2.48 5.93,3.39 2.08,0.91 3.71,3.97 1.74,5.62 -1.98,1.65 -10.04,-4.41 -10.06,-4.59 -0.03,-0.19 -1.18,-2.86 -1,-3.03 1.38,-1.31 3.4,-1.39 3.4,-1.39z"></path><path fill="#E08A2F" d="M72.12 138.83c0,0 -0.05,2.68 -2.13,3.33 -1.71,0.54 -10.26,-4.05 -10.26,-4.05l-7.09 12.68c0,0 -3,-0.94 0.86,-8.69 0.73,-1.47 2.41,-4.1 4.02,-6.55 3.6,-5.5 6.09,-3.94 6.09,-3.94 0,0 -1.56,0.19 -1.99,2.16 -0.22,1.05 4.13,3.64 6.19,4.84 2.06,1.19 2.96,1.17 4.31,0.21z"></path><path fill="#FABD63" d="M57.55 149.97c0,0 11.98,9.25 14.09,7.41 2.11,-1.84 4.44,-6.34 4.73,-8.38 0.29,-2.04 -2.26,-4.81 -3.28,-5.11 -1.02,-0.3 -1.87,1.53 -1.87,1.53 1.26,-2.47 0.01,-3.82 -1.68,-5.07 -1.69,-1.25 -4.51,-2.52 -5.15,-1.91 0,0 -0.14,-0.92 -1.46,-1.57 -1.32,-0.65 -3.44,-1.79 -5.06,-0.04 -1.61,1.75 -4.74,5.68 -5.13,8.96 -0.39,3.28 4.81,4.18 4.81,4.18z"></path><path fill="#E08A2F" d="M74.18 154.06c0,0 -1.66,0.31 -3.34,-0.64 -1.68,-0.95 -2.2,-2.15 -2.03,-3.04 2.04,-2.45 2.72,-5.68 2.72,-5.68 0,0 -2.54,3.4 -4.14,4.3 -1.04,0.58 -1.89,0.57 -3.83,-0.25 -1.94,-0.82 -2.63,-2.31 -2.53,-3.61 0.15,-1.91 3.37,-6.7 3.37,-6.7 0,0 -2.42,1.25 -5.1,5.68 -0.4,0.66 -1.56,0.74 -3.15,0.29 -1.59,-0.46 -1.68,-3.04 -1.68,-3.04 0,0 -2.02,3.05 -2.76,5.61 -0.74,2.56 0.03,4.96 0.81,5.63 0.78,0.67 3.17,0.97 3.62,1.47 0.45,0.5 1,3.16 2.42,3.89 1.42,0.73 3.79,0.12 4.69,0.46 0.9,0.33 1.61,2.37 3.5,2.82 1.89,0.45 5.93,-3.93 7.45,-7.19z"></path><path fill="#B7561D" d="M70.52 159.11c0,0 -1.91,0.94 -3.9,0.04 -1.99,-0.9 -2.04,-2.9 -2.04,-2.9 0,0 -2.94,0.44 -4.71,-0.34 -1.77,-0.79 -2.43,-3.85 -2.43,-3.85 0,0 -2.47,0.05 -3.79,-0.58 -1.32,-0.63 -2.16,-3.56 -1.89,-5.11 0,0 -1.63,3.46 -0.35,5.67 1.28,2.21 3.88,1.47 4.51,2.38 0.64,0.91 1.29,3.09 2.43,3.85 1.14,0.76 3.96,0.05 4.82,0.6 0.86,0.55 1.77,2.16 3.04,2.6 1.87,0.64 4.3,-2.36 4.3,-2.36z"></path><path fill="#FFE5AE" d="M63.49 131.55c0,0 4.68,2.37 6.35,3.38 1.67,1.02 2.56,2.66 2.28,3.92 0,0 -1.24,-2.45 -3.62,-3.59 -2.38,-1.14 -4.33,-2.65 -5.01,-3.71z"></path><path fill="#FFE5AE" d="M71.52 144.69c0,0 0.31,-2.23 -1.15,-3.92 -1.45,-1.69 -4.8,-3.02 -5.99,-2.34 0,0 3.13,0.96 4.69,2.51 1.56,1.55 2.45,3.75 2.45,3.75z"></path><path fill="#FABD63" d="M54.11 140.98c0.92,5.4 3.72,3.47 6.82,0.36 0.14,-0.14 0.18,0.16 0.21,0.13 0.39,-0.47 0.95,-1.24 2.2,-2.28 0.36,-0.3 0.35,-0.28 1.05,-0.75 0.68,-1.96 2.37,-5.24 3.06,-7.2 0.17,-0.47 0.59,-1.38 0.75,-2.13 0.3,-1.36 -2.65,-2.55 -3.75,-2.82 -0.88,-0.21 -1.63,0.19 -2.7,1.9 -1.14,1.83 -7.67,12.61 -7.63,12.79z"></path><path fill="#B7561D" d="M65.08 126.48c-0.23,-0.08 -0.45,-0.14 -0.64,-0.19 -0.88,-0.21 -1.63,0.19 -2.7,1.9 -1.12,1.8 -7.66,12.56 -7.63,12.79 1.68,-2.37 7.28,-10.94 8.39,-12.52 1.07,-1.52 1.82,-2.03 2.59,-1.98z"></path><path fill="#FFE5AE" d="M61.11 141.45c0.01,0.01 0.01,0.02 0.02,0.01l0.11 -0.14 -0.13 0.13zm2.13 -2.2l0.09 -0.07c0.36,-0.3 0.35,-0.28 1.05,-0.75 0.68,-1.96 2.37,-5.24 3.06,-7.2 0.17,-0.47 0.59,-1.38 0.75,-2.13 0.28,-1.29 -2.36,-2.43 -3.57,-2.77 1.39,0.52 3.18,1.53 2.88,2.76 -0.22,0.88 -0.69,1.97 -0.93,2.51l-3.33 7.65z"></path><path fill="#FABD63" d="M70.9 146.69c0.57,2.29 2.84,8.15 3.19,7.56 0.84,-1.44 1.84,-3.2 3.17,-5.57 1.96,-3.47 2.2,-3.62 2.92,-5.81 0.13,-0.41 0.49,-1.2 0.6,-1.85 0.21,-1.19 -2.71,-2.43 -3.8,-2.73 -0.86,-0.24 -1.57,0.07 -2.51,1.53 -0.63,0.99 -1.15,1.88 -2.63,4.64 -0.86,1.59 -0.96,2.18 -0.95,2.24z"></path><path fill="#B7561D" d="M77.62 138.49c-0.22,-0.08 -0.44,-0.15 -0.63,-0.2 -0.86,-0.24 -1.57,0.07 -2.51,1.53 -0.98,1.54 -3.07,4.98 -3.03,5.19 1.49,-2.01 2.79,-3.56 3.78,-4.9 0.95,-1.3 1.65,-1.7 2.39,-1.61z"></path><path fill="#FFE5AE" d="M73.45 155.41c3.92,-6.02 3.35,-4.91 6.73,-12.54 0.17,-0.39 0.49,-1.2 0.6,-1.85 0.2,-1.13 -2.43,-2.3 -3.62,-2.68 1.38,0.54 3.17,1.55 2.95,2.62 -0.16,0.77 -0.53,1.72 -0.75,2.18l-5.91 12.27z"></path></g><g><path fill="#FABD63" d="M115.79 131.55c-1.83,0.92 -3.85,2.48 -5.93,3.39 -2.08,0.91 -3.71,3.97 -1.74,5.62 1.98,1.65 10.04,-4.41 10.06,-4.59 0.03,-0.19 1.18,-2.86 1,-3.03 -1.38,-1.31 -3.4,-1.39 -3.4,-1.39z"></path><path fill="#E08A2F" d="M107.16 138.83c0,0 0.05,2.68 2.13,3.33 1.71,0.54 10.26,-4.05 10.26,-4.05l7.09 12.68c0,0 3,-0.94 -0.86,-8.69 -0.73,-1.47 -2.41,-4.1 -4.02,-6.55 -3.6,-5.5 -6.09,-3.94 -6.09,-3.94 0,0 1.56,0.19 1.99,2.16 0.22,1.05 -4.13,3.64 -6.19,4.84 -2.06,1.19 -2.96,1.17 -4.31,0.21z"></path><path fill="#FABD63" d="M121.73 149.97c0,0 -11.98,9.25 -14.09,7.41 -2.11,-1.84 -4.44,-6.34 -4.73,-8.38 -0.29,-2.04 2.26,-4.81 3.28,-5.11 1.02,-0.3 1.87,1.53 1.87,1.53 -1.26,-2.47 -0.01,-3.82 1.68,-5.07 1.69,-1.25 4.51,-2.52 5.15,-1.91 0,0 0.14,-0.92 1.46,-1.57 1.32,-0.65 3.44,-1.79 5.06,-0.04 1.61,1.75 4.74,5.68 5.13,8.96 0.39,3.28 -4.81,4.18 -4.81,4.18z"></path><path fill="#E08A2F" d="M105.1 154.06c0,0 1.66,0.31 3.34,-0.64 1.68,-0.95 2.2,-2.15 2.03,-3.04 -2.04,-2.45 -2.72,-5.68 -2.72,-5.68 0,0 2.54,3.4 4.14,4.3 1.04,0.58 1.89,0.57 3.83,-0.25 1.94,-0.82 2.63,-2.31 2.53,-3.61 -0.15,-1.91 -3.37,-6.7 -3.37,-6.7 0,0 2.42,1.25 5.1,5.68 0.4,0.66 1.56,0.74 3.15,0.29 1.59,-0.46 1.68,-3.04 1.68,-3.04 0,0 2.02,3.05 2.76,5.61 0.74,2.56 -0.03,4.96 -0.81,5.63 -0.78,0.67 -3.17,0.97 -3.62,1.47 -0.45,0.5 -1,3.16 -2.42,3.89 -1.42,0.73 -3.79,0.12 -4.69,0.46 -0.9,0.33 -1.61,2.37 -3.5,2.82 -1.89,0.45 -5.93,-3.93 -7.45,-7.19z"></path><path fill="#B7561D" d="M108.76 159.11c0,0 1.91,0.94 3.9,0.04 1.99,-0.9 2.04,-2.9 2.04,-2.9 0,0 2.94,0.44 4.71,-0.34 1.77,-0.79 2.43,-3.85 2.43,-3.85 0,0 2.47,0.05 3.79,-0.58 1.32,-0.63 2.16,-3.56 1.89,-5.11 0,0 1.63,3.46 0.35,5.67 -1.28,2.21 -3.88,1.47 -4.51,2.38 -0.64,0.91 -1.29,3.09 -2.43,3.85 -1.14,0.76 -3.96,0.05 -4.82,0.6 -0.86,0.55 -1.77,2.16 -3.04,2.6 -1.87,0.64 -4.3,-2.36 -4.3,-2.36z"></path><path fill="#FFE5AE" d="M115.79 131.55c0,0 -4.68,2.37 -6.35,3.38 -1.67,1.02 -2.56,2.66 -2.28,3.92 0,0 1.24,-2.45 3.62,-3.59 2.38,-1.14 4.33,-2.65 5.01,-3.71z"></path><path fill="#FFE5AE" d="M107.76 144.69c0,0 -0.31,-2.23 1.15,-3.92 1.45,-1.69 4.8,-3.02 5.99,-2.34 0,0 -3.13,0.96 -4.69,2.51 -1.56,1.55 -2.45,3.75 -2.45,3.75z"></path><path fill="#FABD63" d="M125.18 140.98c-0.92,5.4 -3.72,3.47 -6.82,0.36 -0.14,-0.14 -0.18,0.16 -0.21,0.13 -0.39,-0.47 -0.95,-1.24 -2.2,-2.28 -0.36,-0.3 -0.35,-0.28 -1.05,-0.75 -0.68,-1.96 -2.37,-5.24 -3.06,-7.2 -0.17,-0.47 -0.59,-1.38 -0.75,-2.13 -0.3,-1.36 2.65,-2.55 3.75,-2.82 0.88,-0.21 1.63,0.19 2.7,1.9 1.14,1.83 7.67,12.61 7.63,12.79z"></path><path fill="#FFE5AE" d="M114.2 126.48c0.23,-0.08 0.45,-0.14 0.64,-0.19 0.88,-0.21 1.63,0.19 2.7,1.9 1.12,1.8 7.66,12.56 7.63,12.79 -1.68,-2.37 -7.28,-10.94 -8.39,-12.52 -1.07,-1.52 -1.82,-2.03 -2.59,-1.98z"></path><path fill="#B7561D" d="M118.17 141.45c-0.01,0.01 -0.01,0.02 -0.02,0.01l-0.11 -0.14 0.13 0.13zm-2.13 -2.2l-0.09 -0.07c-0.36,-0.3 -0.35,-0.28 -1.05,-0.75 -0.68,-1.96 -2.37,-5.24 -3.06,-7.2 -0.17,-0.47 -0.59,-1.38 -0.75,-2.13 -0.28,-1.29 2.36,-2.43 3.57,-2.77 -1.39,0.52 -3.18,1.53 -2.88,2.76 0.22,0.88 0.69,1.97 0.93,2.51l3.33 7.65z"></path><path fill="#FABD63" d="M108.39 146.69c-0.57,2.29 -2.84,8.15 -3.19,7.56 -0.84,-1.44 -1.84,-3.2 -3.17,-5.57 -1.96,-3.47 -2.2,-3.62 -2.92,-5.81 -0.13,-0.41 -0.49,-1.2 -0.6,-1.85 -0.21,-1.19 2.71,-2.43 3.8,-2.73 0.86,-0.24 1.57,0.07 2.51,1.53 0.63,0.99 1.15,1.88 2.63,4.64 0.86,1.59 0.96,2.18 0.95,2.24z"></path><path fill="#FFE5AE" d="M101.67 138.49c0.22,-0.08 0.44,-0.15 0.63,-0.2 0.86,-0.24 1.57,0.07 2.51,1.53 0.98,1.54 3.07,4.98 3.03,5.19 -1.49,-2.01 -2.79,-3.56 -3.78,-4.9 -0.95,-1.3 -1.65,-1.7 -2.39,-1.61z"></path><path fill="#B7561D" d="M105.83 155.41c-3.92,-6.02 -3.35,-4.91 -6.73,-12.54 -0.17,-0.39 -0.49,-1.2 -0.6,-1.85 -0.2,-1.13 2.43,-2.3 3.62,-2.68 -1.38,0.54 -3.17,1.55 -2.95,2.62 0.16,0.77 0.53,1.72 0.75,2.18l5.91 12.27z"></path></g></svg>