<svg xmlns="http://www.w3.org/2000/svg" width="81.267mm" height="81.267mm" version="1.1" viewBox="0 0 176.79 176.79"><path fill="#FABD63" d="M67.28 138.48c-3.08,2.64 -12.46,12.12 -14.42,30.87 3.54,1.55 7.19,2.89 10.96,3.97 0.2,-0.02 0.4,-0.03 0.61,-0.06 0.56,-0.06 1.09,-0.31 1.59,-0.7 0.69,-8.79 2.01,-24.94 3.11,-33.69 -0.62,-0.12 -1.23,-0.25 -1.85,-0.39z"></path><path fill="#C97821" d="M63.99 141.79c0,0 1.53,-0.54 2.35,0.97 0,0 -4.02,6.46 -6.18,15.4 -1.56,6.45 -1.67,11.27 -1.61,13.45 1.81,0.65 3.64,1.24 5.5,1.77 0.49,-0.07 0.99,-0.18 1.47,-0.35l0.97 -6.24c0.73,-8.95 1.76,-20.86 2.65,-27.93 -0.67,-0.13 -1.33,-0.27 -2,-0.43 -0.93,0.82 -2.38,2.18 -3.14,3.34z"></path><path fill="#B7561D" d="M67.68 152.79c-1.31,4.97 -2.65,11.84 -3.25,20.48 0,0 0.81,0.39 1.49,0.55 0.39,-5.04 1.05,-13.26 1.76,-21.02z"></path><path fill="#F9E0A4" d="M64.01 141.73c0,0 -9.72,9.86 -11.17,27.61 0.46,0.2 0.91,0.4 1.37,0.59 0.3,-3.42 1.94,-17.01 9.8,-28.2z"></path><path fill="#B7561D" d="M67.68 152.79c-1.31,4.97 -2.65,11.84 -3.25,20.48 0,0 0.81,0.39 1.49,0.55 0.39,-5.04 1.05,-13.26 1.76,-21.02z"></path><path fill="#F9E0A4" d="M64.01 141.73c0,0 -9.72,9.86 -11.17,27.61 0.46,0.2 0.91,0.4 1.37,0.59 0.3,-3.42 1.94,-17.01 9.8,-28.2z"></path><path fill="#FABD63" d="M110.89 138.15c2.54,2.07 12.5,11.32 14.72,30.43 -3.87,1.8 -7.89,3.32 -12.03,4.55 -0.19,-0.06 -0.38,-0.15 -0.57,-0.25 -0.83,-8.92 -3.59,-26.63 -4.79,-34.12 0.89,-0.18 1.78,-0.39 2.67,-0.61z"></path><path fill="#C97821" d="M114.56 141.79c0,0 -1.53,-0.54 -2.35,0.97 0,0 4.02,6.46 6.18,15.4 1.41,5.86 1.64,10.38 1.62,12.79 -2.14,0.82 -4.33,1.56 -6.55,2.22 -0.14,-0.04 -0.29,-0.08 -0.43,-0.13l-0.05 -0.29c-0.85,-8.96 -3.59,-26.53 -4.78,-33.99l-0.06 0.01c0.96,-0.2 1.93,-0.42 2.88,-0.66 0.86,0.73 2.65,2.33 3.52,3.68z"></path><path fill="#B7561D" d="M109.85 149.22c1.55,4.97 3.48,12.97 4.26,23.76 -0.52,0.16 -1.05,0.32 -1.58,0.47l-0 -0 0.52 -0.15c-0.52,-5.83 -1.95,-15.81 -3.2,-24.08z"></path><path fill="#F9E0A4" d="M114.54 141.73c0,0 9.44,9.58 11.1,26.84 -0.46,0.21 -0.91,0.42 -1.37,0.63 -0.45,-4.33 -2.35,-16.96 -9.73,-27.46z"></path><path fill="#B7561D" d="M109.85 149.22c1.55,4.97 3.48,12.97 4.26,23.76 -0.52,0.16 -1.05,0.32 -1.58,0.47l-0 -0 0.52 -0.15c-0.52,-5.83 -1.95,-15.81 -3.2,-24.08z"></path><path fill="#F9E0A4" d="M114.54 141.73c0,0 9.44,9.58 11.1,26.84 -0.46,0.21 -0.91,0.42 -1.37,0.63 -0.45,-4.33 -2.35,-16.96 -9.73,-27.46z"></path></svg>