<svg xmlns="http://www.w3.org/2000/svg" width="81.267mm" height="81.267mm" version="1.1" viewBox="0 0 176.79 176.79"><g><path fill="#E08A2F" d="M32.56 131.89c0,0 -0.88,1.03 -0.98,2.4 -0.1,1.37 1.45,2.24 2.78,3.02 1.33,0.78 2.05,2.04 2.12,2.25 0.07,0.22 1.71,-0.56 1.71,-0.64 -0.01,-0.08 -0.34,-1.71 -0.52,-2 -0.19,-0.29 -5.11,-5.04 -5.11,-5.04z"></path><path fill="#FABD63" d="M53.94 139.97c0,0 -0.93,-2.33 -2.59,-2.95 -1.65,-0.61 -2.47,-0.28 -2.47,-0.28 0,0 -0.71,-2.35 -2.91,-2.76 -2.2,-0.41 -4.56,-0.03 -5.29,-0.09 -0.73,-0.06 -4.43,-3.11 -6.15,-2.99 -1.72,0.11 -3.27,1.83 -1.99,3.59 1.28,1.75 4.99,2.29 4.97,4.57 0,0 -2.31,0.43 -4.73,1.65 -2.42,1.22 -4.46,4.87 -2.29,6.56l1.9 0.1 2.1 1.48c0,0 2.92,-0.36 3.56,-0.79 0.64,-0.43 4.61,-3.43 4.61,-3.43 0,0 3.27,2.29 3.43,2.34 0.17,0.04 5.39,-2.59 5.55,-2.71 0.16,-0.12 2.27,-4.27 2.27,-4.27z"></path><path fill="#FABD63" d="M63.7 142.92c0,0 -4.12,6.64 -6.3,8.96 -2.18,2.32 0.6,7.37 1.39,7.6 0.79,0.23 7.35,-9.12 7.75,-10.54 0.41,-1.42 0.95,-5.02 0.8,-5.57 -0.15,-0.55 -1.74,-2 -1.74,-2l-1.9 1.55z"></path><path fill="#E08A2F" d="M63.7 142.92c0,0 0.86,-0.5 1.94,0.17 1.08,0.67 0.26,3.68 -2.35,7.9 -2.16,3.48 -4.34,5.24 -4.34,5.24 0,0 -2.69,-14.59 -5.7,-17.5 0,0 0.32,1.22 -0.59,2.03 -0.91,0.8 -5.12,4.35 -6.88,4.76 -1.75,0.41 -2.64,-4.13 -3.39,-5.27 -0.74,-1.14 -2.25,-1.56 -2.49,-0.65 -0.24,0.91 0.87,4.18 0.87,4.18 0,0 -3.35,3.12 -4.28,3.7 -0.92,0.58 -2.13,0.28 -2.75,-0.12 -0.52,-0.34 -0.21,-0.63 -0.21,-0.63 0,0 1.85,-3.13 6.1,-4.47 0,0 -1.89,-0.04 -3.78,0.81 -1.89,0.85 -3.09,2.82 -3.09,2.82 0,0 -2.13,-0.25 -2.91,-1.98 0,0 -0.26,0.83 -0.21,1.67 0.08,1.22 1.38,2.43 2.96,2.11 0,0 0.11,1.72 1.7,2.17 1.59,0.45 2.57,0.16 3.63,-0.58 1.06,-0.74 2.59,-2.01 4.02,-3.05 0,0 2.35,6.08 3.42,10.47 1.07,4.39 2.98,7.27 4.6,8.22 1.62,0.95 8.77,1.54 10.49,0.53 1.71,-1 5.42,-8.88 6.78,-11.7 1.37,-2.82 1.83,-15.1 1.83,-15.1l-2.81 -0.62c0,0 -1.2,2.88 -2.57,4.9z"></path><path fill="#B7561D" d="M40.78 143.77c0,0 0.22,3.01 2.29,4.05 1.54,0.77 4.83,0.68 8.45,-2.56 0,0 -4.49,1.86 -6.1,1.91 -1.61,0.05 -3.19,-0.66 -4.63,-3.39z"></path><path fill="#FFE5AE" d="M39.89 139.67c0,0 -0.08,-2.11 1.64,-2.59 1.72,-0.48 2.33,0.76 2.95,1.7 0.62,0.93 1.81,3.03 2.61,3.7 0,0 -1.1,0.16 -1.96,-1.04 -0.86,-1.2 -1.93,-2.84 -2.41,-3.21 -0.7,-0.54 -1.94,-0.36 -2.82,1.44z"></path><path fill="#FFE5AE" d="M32.56 131.89c0,0 1.24,-0.95 2.68,-0.23 1.44,0.71 4.22,2.87 5.45,3.04 1.23,0.17 3.82,-0.64 5.78,0.34 1.96,0.98 1.9,2.24 1.9,2.24l0.94 -0.45c0,0 -0.84,-2.26 -2.64,-2.97 -1.8,-0.72 -4.88,0.16 -5.82,-0.12 -0.94,-0.27 -4,-2.46 -5.28,-2.91 -1.28,-0.44 -2.59,0.28 -3.01,1.06z"></path><path fill="#FFE5AE" d="M46.94 137.84c0,0 1.74,-0.98 3.57,-0.65 1.83,0.33 2.72,1.52 2.72,1.52 0,0 -0.34,-1.31 -1.95,-2.07 -1.61,-0.76 -3.59,-0.01 -4.34,1.21z"></path><path fill="#FFE5AE" d="M45.94 141.67c0,0 1.55,-0.49 2.39,0.4 0,0 -0.25,-1.65 -2.72,-1.19l0.33 0.79z"></path><path fill="#FFE5AE" d="M38.13 138.73c0,0 -2.63,0.28 -4.8,1.36 -2.51,1.24 -3.28,3.08 -3.47,3.81 0,0 1.41,-1.65 3.72,-2.94 2.64,-1.48 4.56,-2.23 4.56,-2.23z"></path></g><g><path fill="#E08A2F" d="M144.86 131.76c0,0 0.88,1.03 0.98,2.4 0.1,1.37 -1.45,2.24 -2.78,3.02 -1.33,0.78 -2.05,2.04 -2.12,2.25 -0.07,0.22 -1.71,-0.56 -1.71,-0.64 0.01,-0.08 0.34,-1.71 0.52,-2 0.19,-0.29 5.11,-5.04 5.11,-5.04z"></path><path fill="#FABD63" d="M123.48 139.85c0,0 0.93,-2.33 2.59,-2.95 1.65,-0.61 2.47,-0.28 2.47,-0.28 0,0 0.71,-2.35 2.91,-2.76 2.2,-0.41 4.56,-0.03 5.29,-0.09 0.73,-0.06 4.43,-3.11 6.15,-2.99 1.72,0.11 3.27,1.83 1.99,3.59 -1.28,1.75 -4.99,2.29 -4.97,4.57 0,0 2.31,0.43 4.73,1.65 2.42,1.22 4.46,4.87 2.29,6.56l-1.9 0.1 -2.1 1.48c0,0 -2.92,-0.36 -3.56,-0.79 -0.64,-0.43 -4.61,-3.43 -4.61,-3.43 0,0 -3.27,2.29 -3.43,2.34 -0.17,0.04 -5.39,-2.59 -5.55,-2.71 -0.16,-0.12 -2.27,-4.27 -2.27,-4.27z"></path><path fill="#FABD63" d="M113.72 142.8c0,0 4.12,6.64 6.3,8.96 2.18,2.32 -0.6,7.37 -1.39,7.6 -0.79,0.23 -7.35,-9.12 -7.75,-10.54 -0.41,-1.42 -0.95,-5.02 -0.8,-5.57 0.15,-0.55 1.74,-2 1.74,-2l1.9 1.55z"></path><path fill="#E08A2F" d="M113.72 142.8c0,0 -0.86,-0.5 -1.94,0.17 -1.08,0.67 -0.26,3.68 2.35,7.9 2.16,3.48 4.34,5.24 4.34,5.24 0,0 2.69,-14.59 5.7,-17.5 0,0 -0.32,1.22 0.59,2.03 0.91,0.8 5.12,4.35 6.88,4.76 1.75,0.41 2.64,-4.13 3.39,-5.27 0.74,-1.14 2.25,-1.56 2.49,-0.65 0.24,0.91 -0.87,4.18 -0.87,4.18 0,0 3.35,3.12 4.28,3.7 0.92,0.58 2.13,0.28 2.75,-0.12 0.52,-0.34 0.21,-0.63 0.21,-0.63 0,0 -1.85,-3.13 -6.1,-4.47 0,0 1.89,-0.04 3.78,0.81 1.89,0.85 3.09,2.82 3.09,2.82 0,0 2.13,-0.25 2.91,-1.98 0,0 0.26,0.83 0.21,1.67 -0.08,1.22 -1.38,2.43 -2.96,2.11 0,0 -0.11,1.72 -1.7,2.17 -1.59,0.45 -2.57,0.16 -3.63,-0.58 -1.06,-0.74 -2.59,-2.01 -4.02,-3.05 0,0 -2.35,6.08 -3.42,10.47 -1.07,4.39 -2.98,7.27 -4.6,8.22 -1.62,0.95 -8.77,1.54 -10.49,0.53 -1.71,-1 -5.42,-8.88 -6.78,-11.7 -1.37,-2.82 -1.83,-15.1 -1.83,-15.1l2.81 -0.62c0,0 1.2,2.88 2.57,4.9z"></path><path fill="#B7561D" d="M136.64 143.65c0,0 -0.22,3.01 -2.29,4.05 -1.54,0.77 -4.83,0.68 -8.45,-2.56 0,0 4.49,1.86 6.1,1.91 1.61,0.05 3.19,-0.66 4.63,-3.39z"></path><path fill="#FFE5AE" d="M137.53 139.55c0,0 0.08,-2.11 -1.64,-2.59 -1.72,-0.48 -2.33,0.76 -2.95,1.7 -0.62,0.93 -1.81,3.03 -2.61,3.7 0,0 1.1,0.16 1.96,-1.04 0.86,-1.2 1.93,-2.84 2.41,-3.21 0.7,-0.54 1.94,-0.36 2.82,1.44z"></path><path fill="#FFE5AE" d="M144.86 131.76c0,0 -1.24,-0.95 -2.68,-0.23 -1.44,0.71 -4.22,2.87 -5.45,3.04 -1.23,0.17 -3.82,-0.64 -5.78,0.34 -1.96,0.98 -1.9,2.24 -1.9,2.24l-0.94 -0.45c0,0 0.84,-2.26 2.64,-2.97 1.8,-0.72 4.88,0.16 5.82,-0.12 0.94,-0.27 4,-2.46 5.28,-2.91 1.28,-0.44 2.59,0.28 3.01,1.06z"></path><path fill="#FFE5AE" d="M130.48 137.72c0,0 -1.74,-0.98 -3.57,-0.65 -1.83,0.33 -2.72,1.52 -2.72,1.52 0,0 0.34,-1.31 1.95,-2.07 1.61,-0.76 3.59,-0.01 4.34,1.21z"></path><path fill="#FFE5AE" d="M131.48 141.54c0,0 -1.55,-0.49 -2.39,0.4 0,0 0.25,-1.65 2.72,-1.19l-0.33 0.79z"></path><path fill="#FFE5AE" d="M139.29 138.61c0,0 2.63,0.28 4.8,1.36 2.51,1.24 3.28,3.08 3.47,3.81 0,0 -1.41,-1.65 -3.72,-2.94 -2.64,-1.48 -4.56,-2.23 -4.56,-2.23z"></path></g></svg>