<svg xmlns="http://www.w3.org/2000/svg" width="81.267mm" height="81.2671mm" version="1.1" viewBox="0 0 184.83 184.83" style="
    /* display: none; */
"><g><path fill="#5B5B5B" d="M92.41 184.83c8.92,0 17.54,-1.27 25.7,-3.62 -0.81,-8.52 -2.9,-22.69 -4.28,-31.61l-8.42 -1.7 -30.77 3.16 -5.25 30.89c7.36,1.89 15.07,2.89 23.02,2.89z"></path><path fill="#434242" d="M113.79 182.34c1.48,-0.35 2.95,-0.74 4.4,-1.16 -0.82,-9.17 -3.78,-28.96 -5.05,-36.92 -5.33,1.09 -10.75,1.49 -15.74,1.75l-9.94 0c-4.82,-0.24 -10.03,-0.63 -15.19,-1.64 -1.21,9.63 -2.68,28.66 -3.36,37.44 1.72,0.45 3.46,0.86 5.23,1.21 0.08,-2.43 0.14,-5.41 0.16,-8.77 0.07,-12.2 1.2,-21.04 1.2,-21.04 18.38,3.88 29.8,0.57 35.01,-1.77 0.82,4.64 2.34,13.97 3.29,30.9z"></path><g><g><path fill="#434242" d="M83.89 166.57c0.75,0 1.44,0.31 1.93,0.8 0.5,0.5 0.8,1.18 0.8,1.93 0,0.75 -0.31,1.44 -0.8,1.93 -0.5,0.5 -1.18,0.8 -1.93,0.8 -0.75,0 -1.44,-0.31 -1.93,-0.8 -0.5,-0.5 -0.8,-1.18 -0.8,-1.93 0,-0.75 0.31,-1.44 0.8,-1.93 0.5,-0.5 1.18,-0.8 1.93,-0.8zm1.53 1.2c-0.39,-0.39 -0.93,-0.63 -1.53,-0.63 -0.6,0 -1.14,0.24 -1.53,0.63 -0.39,0.39 -0.63,0.93 -0.63,1.53 0,0.6 0.24,1.14 0.63,1.53 0.39,0.39 0.93,0.63 1.53,0.63 0.6,0 1.14,-0.24 1.53,-0.63 0.39,-0.39 0.63,-0.93 0.63,-1.53 0,-0.6 -0.24,-1.14 -0.63,-1.53z"></path><circle fill="#434242" cx="83.9" cy="169.71" r="1.08"></circle></g><g><path fill="#434242" d="M103.54 166.57c0.75,0 1.44,0.31 1.93,0.8 0.5,0.5 0.8,1.18 0.8,1.93 0,0.75 -0.31,1.44 -0.8,1.93 -0.5,0.5 -1.18,0.8 -1.93,0.8 -0.75,0 -1.44,-0.31 -1.93,-0.8 -0.5,-0.5 -0.8,-1.18 -0.8,-1.93 0,-0.75 0.31,-1.44 0.8,-1.93 0.5,-0.5 1.18,-0.8 1.93,-0.8zm1.53 1.2c-0.39,-0.39 -0.93,-0.63 -1.53,-0.63 -0.6,0 -1.14,0.24 -1.53,0.63 -0.39,0.39 -0.63,0.93 -0.63,1.53 0,0.6 0.24,1.14 0.63,1.53 0.39,0.39 0.93,0.63 1.53,0.63 0.6,0 1.14,-0.24 1.53,-0.63 0.39,-0.39 0.63,-0.93 0.63,-1.53 0,-0.6 -0.24,-1.14 -0.63,-1.53z"></path><circle fill="#434242" cx="103.55" cy="169.71" r="1.08"></circle></g></g><ellipse fill="#FFED00" cx="93.75" cy="162.92" rx="6.27" ry="3.33"></ellipse><path fill="#434242" d="M93.75 159.48c1.75,0 3.34,0.38 4.48,0.99 1.17,0.62 1.89,1.49 1.89,2.45 0,0.96 -0.72,1.83 -1.89,2.45 -1.15,0.61 -2.74,0.99 -4.48,0.99 -1.75,0 -3.34,-0.38 -4.48,-0.99 -1.17,-0.62 -1.89,-1.49 -1.89,-2.45 0,-0.96 0.72,-1.83 1.89,-2.45 1.15,-0.61 2.74,-0.99 4.48,-0.99zm4.38 1.18c-1.12,-0.59 -2.67,-0.96 -4.38,-0.96 -1.71,0 -3.26,0.37 -4.38,0.96 -1.1,0.58 -1.78,1.38 -1.78,2.26 0,0.88 0.68,1.68 1.78,2.26 1.12,0.59 2.67,0.96 4.38,0.96 1.71,0 3.26,-0.37 4.38,-0.96 1.1,-0.58 1.78,-1.38 1.78,-2.26 0,-0.88 -0.68,-1.68 -1.78,-2.26z"></path><path fill="#434242" d="M93.75 161.18c-0.12,-0 -0.23,0.03 -0.28,0.04 -0.16,-0.06 -0.21,-0.19 -0.17,-0.38 -0.33,0.42 -0.19,0.93 -0.37,1.28 -1.27,0.26 -2.17,-0.38 -1.73,-1.19 -1.77,0.48 -2.38,1.18 -2.6,1.75 -0.28,0.71 0.31,1.57 1.53,2.09 -0.1,-0.81 0.19,-1.03 0.45,-1.15 0.27,-0.12 0.64,-0.18 1.15,0.46 0.9,-1.03 1.63,-0.11 2.01,0.8l0 0.1c0.01,-0.02 0.01,-0.04 0.02,-0.05 0.01,0.02 0.01,0.04 0.02,0.05l0 -0.1c0.38,-0.91 1.11,-1.84 2.01,-0.8 0.51,-0.63 0.88,-0.58 1.15,-0.46 0.26,0.12 0.54,0.34 0.45,1.15 1.22,-0.52 1.81,-1.37 1.53,-2.09 -0.22,-0.57 -0.83,-1.28 -2.6,-1.75 0.43,0.82 -0.46,1.45 -1.73,1.19 -0.18,-0.35 -0.04,-0.86 -0.37,-1.28 0.04,0.19 -0.02,0.32 -0.17,0.38 -0.05,-0.02 -0.16,-0.05 -0.28,-0.04z"></path></g></svg>