<svg xmlns="http://www.w3.org/2000/svg" width="81.267mm" height="81.2671mm" version="1.1" viewBox="0 0 184.83 184.83"><path fill="#FABD63" d="M92.41 184.83c8.92,0 17.54,-1.27 25.7,-3.62 -0.81,-8.52 -2.9,-22.69 -4.28,-31.61l-8.42 -1.7 -30.77 3.16 -5.25 30.89c7.36,1.89 15.07,2.89 23.02,2.89z"></path><path fill="#C97821" d="M113.79 182.34c1.48,-0.35 2.95,-0.74 4.4,-1.16 -0.82,-9.17 -3.78,-28.96 -5.05,-36.92 -5.33,1.09 -10.75,1.49 -15.74,1.75l-9.94 0c-4.82,-0.24 -10.03,-0.63 -15.19,-1.64 -1.21,9.63 -2.68,28.66 -3.36,37.44 1.72,0.45 3.46,0.86 5.23,1.21 0.08,-2.43 0.14,-5.41 0.16,-8.77 0.07,-12.2 1.2,-21.04 1.2,-21.04 18.38,3.88 29.8,0.57 35.01,-1.77 0.82,4.64 2.34,13.97 3.29,30.9z"></path><g><path fill="#E08A2F" d="M87.67 156.95c0,0 -0.74,5.85 5.34,4.98 6.09,-0.87 4.6,-7.35 1.37,-8.34 -3.23,-1 -6.71,3.36 -6.71,3.36z"></path><path fill="#56291F" d="M90.9 152.1c-3.12,0.48 -4.55,5.73 -1.82,7.55 2.73,1.83 7.37,0.83 7.29,-3.24 -0.07,-3.58 -3.31,-4.65 -5.47,-4.31z"></path><path fill="#874123" d="M91.65 153.22c-2.21,-0.34 -3.6,3.36 -1.74,4.48 1.86,1.12 4.85,1.37 4.85,-1.87 0,-1.62 -1.49,-2.37 -3.11,-2.62z"></path><path fill="#B45A28" d="M92.75 153.33c1.9,-0.15 2.05,1.76 0.15,2.05 -1.9,0.29 -2.05,-1.91 -0.15,-2.05z"></path><path fill="#B45A28" d="M90.66 155.79c0.57,-0.13 0.75,0.83 0.17,0.83 -0.58,0 -0.91,-0.66 -0.17,-0.83z"></path></g><g><path fill="#E08A2F" d="M88.13 174.73c0,0 -1.28,4.73 3.37,5.6 4.64,0.87 7.08,-5.85 3.95,-7.97 -3.14,-2.11 -7.32,2.37 -7.32,2.37z"></path><path fill="#56291F" d="M91.37 170.41c-3.12,0.48 -4.55,5.73 -1.82,7.55 2.73,1.83 7.37,0.83 7.29,-3.24 -0.07,-3.58 -3.31,-4.65 -5.47,-4.32z"></path><path fill="#874123" d="M92 171.12c-2.21,-0.34 -3.6,3.36 -1.74,4.48 1.86,1.12 4.85,1.37 4.85,-1.87 0,-1.62 -1.49,-2.37 -3.11,-2.61z"></path><path fill="#B45A28" d="M92.97 171.35c1.9,-0.15 2.05,1.76 0.15,2.06 -1.9,0.29 -2.05,-1.91 -0.15,-2.06z"></path><path fill="#B45A28" d="M90.88 173.81c0.57,-0.13 0.74,0.83 0.16,0.83 -0.58,0 -0.91,-0.66 -0.16,-0.83z"></path></g></svg>