<svg xmlns="http://www.w3.org/2000/svg" width="81.267mm" height="81.267mm" version="1.1" viewBox="0 0 131.14 131.14"><path fill="#434242" d="M64.92 25.8c-10.56,0.22 -19.48,2.62 -26.23,7.91 -5.17,4.55 -8.17,10.41 -9.41,17.31 -0.76,4.22 0.45,11.35 0.62,18.51 0.11,4.46 -1.02,9.08 -0.73,13.06 0.14,1.9 0.9,3.9 1.76,5.74 0.94,2.01 2.29,3.92 3.59,5.53 0.15,0.19 0.31,0.37 0.47,0.51 -1.79,-7.41 -2.23,-14.49 -0.18,-20.93 7.69,2.59 16.07,2.86 24.91,1.55l5.21 1.58 5.44 -1.58c9.23,1.31 17.97,1.04 26,-1.55 2.14,6.44 1.69,13.51 -0.18,20.92 1.88,-2.19 4.03,-4.91 5.09,-8.85 1.29,-4.8 -0.07,-10.15 0.07,-15.77 0.18,-7.16 1.57,-14.49 0.78,-18.7 -1.3,-6.9 -4.42,-12.76 -9.82,-17.31 -7.05,-5.29 -16.36,-7.69 -27.38,-7.91z"></path><path fill="#9D9E9E" d="M40.17 66.1c0,0 -1.64,6.78 4.83,7.76 6.47,0.98 10.81,-2.59 10.81,-7.5 0.01,-4.91 -2.37,-12.37 -2.37,-12.37l-13.27 12.11z"></path><path fill="#FEFEFE" d="M50.66 50.08c4.3,-0.17 4.92,11.53 4.16,16.26 -0.76,4.72 -4.49,6.38 -9.36,6.11 -3.7,-0.2 -5.94,-2.97 -5.52,-7.3 0.42,-4.33 3.85,-14.8 10.72,-15.07z"></path><path fill="#EBECEC" d="M55.04 61.75c0,0 -0.51,6.07 -4.1,7.79 -3.59,1.72 -7.73,1.63 -9.43,-0.67 -1.34,-1.81 -1.45,-4.63 -1.45,-4.63 0,0 -0.85,3.25 0.72,5.96 1.58,2.71 4.93,2.76 7.76,2.34 2.83,-0.42 5.28,-2.12 6.08,-4.66 0.8,-2.53 0.42,-6.12 0.42,-6.12z"></path><path fill="#898989" d="M92.3 33.71c5.4,4.55 8.53,10.41 9.82,17.31 0.79,4.22 -0.6,11.54 -0.78,18.7 0.29,-11.46 0.17,-25.37 -9.37,-33.38 -14.59,-10.91 -38.49,-11.3 -52.98,0 -8.85,7.76 -9.36,20.85 -9.13,32.09 0,0.01 -0.01,-0.07 -0.01,-0.06 -0,0.05 0.01,0.2 0.01,0.25 0.01,0.3 0.02,0.61 0.03,0.91 -0.17,-7.16 -1.38,-14.29 -0.62,-18.51 1.24,-6.9 4.24,-12.76 9.41,-17.31 13.73,-10.95 39.91,-10.51 53.61,0z"></path><path fill="#9D9E9E" d="M91.06 66.1c0,0 1.64,6.78 -4.83,7.76 -6.47,0.98 -10.81,-2.59 -10.81,-7.5 -0.01,-4.91 2.37,-12.37 2.37,-12.37l13.27 12.11z"></path><path fill="#FEFEFE" d="M80.57 50.08c-4.3,-0.17 -4.92,11.53 -4.16,16.26 0.76,4.72 4.49,6.38 9.36,6.11 3.7,-0.2 5.94,-2.97 5.52,-7.3 -0.42,-4.33 -3.85,-14.8 -10.72,-15.07z"></path><path fill="#EBECEC" d="M76.19 61.75c0,0 0.51,6.07 4.1,7.79 3.59,1.72 7.73,1.63 9.43,-0.67 1.34,-1.81 1.45,-4.63 1.45,-4.63 0,0 0.85,3.25 -0.72,5.96 -1.58,2.71 -4.93,2.76 -7.76,2.34 -2.83,-0.42 -5.28,-2.12 -6.08,-4.66 -0.8,-2.53 -0.42,-6.12 -0.42,-6.12z"></path><path fill="#434242" d="M29.93 68.17c0.36,-18.3 4.65,-29.97 17.35,-36.66 -5.11,-1.69 -9.21,-4.37 -9.46,-11.81 -9.53,15.93 -11.12,38.81 -7.9,48.47z"></path><path fill="#2B2A29" d="M29.87 68.43c0.36,-18.3 4.7,-30.22 17.41,-36.91 -1.3,-0.43 -2.53,-0.92 -3.64,-1.54 -8.57,6.91 -13.14,16.53 -15.14,29.38 0.18,3.5 0.62,6.78 1.38,9.07z"></path><path fill="#898989" d="M44.43 33.19c0.9,-0.59 2.16,-1.28 3.16,-1.81 -5.11,-1.69 -9.52,-4.24 -9.77,-11.68 -0.69,7.2 2.29,10.9 6.61,13.49z"></path><path fill="#434242" d="M101.38 68.17c-0.36,-18.3 -4.65,-29.97 -17.35,-36.66 5.11,-1.69 9.21,-4.37 9.46,-11.81 9.53,15.93 11.12,38.81 7.9,48.47z"></path><path fill="#2B2A29" d="M101.38 68.17c-0.36,-18.3 -4.65,-29.97 -17.35,-36.66 1.3,-0.43 2.53,-0.92 3.64,-1.54 8.57,6.91 13.14,16.53 15.14,29.38 -0.18,3.5 -0.67,6.53 -1.44,8.81z"></path><path fill="#898989" d="M86.88 33.19c-0.9,-0.59 -2.16,-1.28 -3.16,-1.81 5.11,-1.69 9.52,-4.24 9.77,-11.68 0.69,7.2 -2.29,10.9 -6.61,13.49z"></path><path fill="#B2B3B3" d="M34.85 27.34c0.73,-1.71 1.55,-3 1.83,-2.88 0.28,0.12 -0.08,1.61 -0.81,3.32 -0.73,1.71 -1.86,5.14 -2.14,5.02 -0.28,-0.12 0.38,-3.74 1.11,-5.45z"></path><path fill="#B2B3B3" d="M96.17 27.34c-0.73,-1.71 -1.55,-3 -1.83,-2.88 -0.28,0.12 0.08,1.61 0.81,3.32 0.73,1.71 1.86,5.14 2.14,5.02 0.28,-0.12 -0.38,-3.74 -1.11,-5.45z"></path><path fill="#B2B3B3" d="M53.93 31.45c4.41,-0.97 8.6,-1.19 8.82,-1.1 0.2,0.09 -3.99,1.13 -8.11,2.27 -14.14,3.92 -15.93,13.82 -17.73,13.05 -0.03,-0.01 3.91,-11.33 17.02,-14.21z"></path></svg>