<svg xmlns="http://www.w3.org/2000/svg" width="81.267mm" height="81.267mm" version="1.1" viewBox="0 0 131.14 131.14"><g><path fill="#727271" d="M66.47 22.82c24.53,0.52 37.03,9.61 42.03,23.59 0.25,0.7 0.47,1.43 0.66,2.18l-3.26 0 -0.03 -0.1c-4.69,-13.12 -16.43,-21.66 -39.46,-22.14 -0.58,-0.01 -1.15,-0.02 -1.73,-0 -23.18,0.44 -34.97,8.98 -39.68,22.15l-0.03 0.1 -3.26 0c0.19,-0.75 0.41,-1.48 0.66,-2.18 5.01,-14.02 17.57,-23.13 42.26,-23.59 0.62,-0.01 1.22,-0.01 1.84,0.01z"></path><path fill="#434242" d="M107.92 44.9c0.2,0.5 0.4,1 0.58,1.51 0.25,0.7 0.47,1.43 0.66,2.18l-3.26 0 -0.03 -0.1c-0.44,-1.24 -0.95,-2.44 -1.52,-3.59l3.58 0zm-81.4 0c-0.57,1.16 -1.08,2.35 -1.52,3.59l-0.03 0.1 -3.26 0c0.19,-0.75 0.41,-1.48 0.66,-2.18 0.18,-0.51 0.38,-1.01 0.58,-1.51l3.58 0z"></path></g><g><rect fill="#434242" x="13.25" y="56.42" width="3.6" height="10.12" rx="1.8" ry="1.51"></rect><rect fill="#5B5B5B" x="15.05" y="50.97" width="7.06" height="21.02" rx="3.53" ry="3.14"></rect><rect fill="#727271" x="18.26" y="47.72" width="11.56" height="27.53" rx="5.78" ry="4.12"></rect><path fill="#434242" d="M24.04 47.72c3.18,0 5.78,1.85 5.78,4.12l0 19.3c0,2.26 -2.6,4.12 -5.78,4.12 -0.3,0 -0.6,-0.02 -0.9,-0.05 2.76,-0.31 4.88,-2.02 4.88,-4.07l0 -19.3c0,-2.05 -2.13,-3.76 -4.88,-4.07 0.29,-0.03 0.59,-0.05 0.9,-0.05z"></path><path fill="#EBECEC" d="M22.22 48.93c0.05,0 0.1,0 0.15,0.01 -1.15,0.35 -2.03,1.81 -2.03,3.54l0 16.98c0,1.92 1.07,3.51 2.42,3.62 -0.17,0.05 -0.35,0.08 -0.53,0.08 -1.41,0 -2.56,-1.63 -2.56,-3.62l0 -16.98c0,-1.99 1.15,-3.62 2.56,-3.62z"></path></g><g><rect fill="#434242" x="113.84" y="56.42" width="3.6" height="10.12" rx="1.8" ry="1.51"></rect><rect fill="#5B5B5B" x="108.59" y="50.97" width="7.06" height="21.02" rx="3.53" ry="3.14"></rect><rect fill="#727271" x="100.88" y="47.72" width="11.56" height="27.53" rx="5.78" ry="4.12"></rect><path fill="#434242" d="M106.66 47.72c-3.18,0 -5.78,1.85 -5.78,4.12l0 19.3c0,2.26 2.6,4.12 5.78,4.12 0.3,0 0.6,-0.02 0.9,-0.05 -2.76,-0.31 -4.88,-2.02 -4.88,-4.07l0 -19.3c0,-2.05 2.13,-3.76 4.88,-4.07 -0.29,-0.03 -0.59,-0.05 -0.9,-0.05z"></path><path fill="#EBECEC" d="M108.48 48.93c-0.05,0 -0.1,0 -0.15,0.01 1.15,0.35 2.03,1.81 2.03,3.54l0 16.98c0,1.92 -1.07,3.51 -2.42,3.62 0.17,0.05 0.35,0.08 0.53,0.08 1.41,0 2.56,-1.63 2.56,-3.62l0 -16.98c0,-1.99 -1.15,-3.62 -2.56,-3.62z"></path></g></svg>