<svg xmlns="http://www.w3.org/2000/svg" width="81.267mm" height="81.267mm" version="1.1" viewBox="0 0 131.14 131.14"><g><g><path fill="#FABD63" d="M48.38 6.84c-1.91,7.27 0.33,11.17 6.24,12.11l-6.24 5.37c-4.68,-5 -5.64,-10.65 0,-17.48z"></path><path fill="#FABD63" d="M82.77 6.84c1.91,7.27 -0.33,11.17 -6.24,12.11l6.24 5.37c4.68,-5 5.64,-10.65 0,-17.48z"></path><path fill="#E08A2F" d="M49.52 23.45l-1.14 0.99c-4.8,-4.75 -5.92,-10.18 -0.79,-16.77 -3.34,5.98 -2.12,11.13 1.93,15.78z"></path><path fill="#FFE5AE" d="M50.1 19.83c-3.61,-2.16 -5.13,-5.33 -2.57,-10.75 -1.16,4.01 -0.37,7.96 2.57,10.75z"></path><path fill="#FFE5AE" d="M84.89 19.17c1.85,-2.52 1.93,-5.82 -1.5,-10.9 2.03,3.84 2.69,7.84 1.5,10.9z"></path><path fill="#E08A2F" d="M76.08 18.8l3.65 3.56c3.37,-5.38 4.72,-5.6 3.05,-15.53 -0.96,10.73 -1.76,8.65 -6.7,11.97z"></path></g><path fill="#FEFEFE" d="M65.44 12.93c10.76,0 19.48,7.8 19.48,17.43 0,3.36 -38.96,1.97 -38.96,0 0,-9.63 8.72,-17.43 19.48,-17.43z"></path><g><path fill="#5B5B5B" d="M82.61 22.12c0.31,0.51 0.59,1.05 0.84,1.59 0.02,0.29 0.03,0.59 0.04,0.86 0.04,1.57 0.3,1.97 1.1,2.86 0.03,0.03 0.05,0.06 0.08,0.09 0.09,0.49 0.16,0.98 0.2,1.47 -0.26,0.82 -1.02,1.72 -1.98,2.5 -1.93,0.44 -5.09,0.7 -8.76,0.82 -0.19,-0.08 -0.39,-0.13 -0.6,-0.15 -0.37,-0.03 -0.67,0.06 -0.95,0.19 -1.06,0.02 -2.15,0.03 -3.26,0.03 -0.08,-0.5 0.06,-1.17 -0.06,-1.85 -0.17,-0.98 -1.02,-1.68 -1.08,-2.86 -0.07,-1.38 0.81,-1.18 1.65,-2.28 0.61,-0.8 1.19,-4.36 3.8,-4.14 0.92,0.08 2.33,0.59 2.91,1.05 0.71,0.56 1.45,1.27 2.82,1.19 1.19,-0.07 1.17,-1.06 2.64,-1.37 0.24,-0.05 0.44,-0.05 0.61,-0.01z"></path><path fill="#5B5B5B" d="M65.96 12.93c4.69,0.11 8.96,1.7 12.26,4.27 -0.82,0.9 -2.31,1.05 -5.06,-0.56 -2.16,-1.27 -1.81,-2.82 -3.47,-1.75 -1.44,0.93 -3.45,1.13 -3.69,-1.01 -0.03,-0.31 -0.03,-0.63 -0.03,-0.95z"></path><path fill="#5B5B5B" d="M56.03 31.98c-2.33,-0.15 -4.43,-0.34 -6.1,-0.55 -0.51,-1.07 -1.01,-2.25 -1.24,-2.8l-0.28 -0.74c-0.14,-0.46 -0.31,-0.75 -0.46,-1.11 -0.33,-0.8 -0.56,-1.63 -0.82,-2.38 0.42,-1.03 0.94,-2.01 1.56,-2.94 0.54,-0.13 0.52,-0.45 1.11,-0.46 0.85,-0.02 1.73,1.03 2.3,1.49 0.62,0.51 0.51,0.34 1.33,0.61 0.43,0.14 0.84,0.47 1.13,0.7 0.55,0.42 1.7,1.14 1.7,2.08 0.01,0.98 -1.08,1.37 -1.23,2.5 -0.15,1.14 0.42,2.51 0.99,3.61z"></path><path fill="#5B5B5B" d="M59.85 16.35c-0.86,0.36 -0.67,1.08 -1.24,1.48 -0.53,0.37 -3.09,-0.13 -2.38,2.92 0.22,0.94 0.42,1.1 0.88,1.8 1.43,2.18 1.53,8.22 6.42,3.66 0.56,-0.52 2.41,-2.34 2.53,-2.85 0.46,-1.88 -1.5,-4.02 -2.81,-5.22 -0.45,-0.41 -2.38,-2.21 -3.4,-1.78z"></path><path fill="#5B5B5B" d="M52.7 17.18c1.23,-0.95 2.6,-1.77 4.07,-2.43 -0.14,0.19 -0.28,0.39 -0.42,0.6 -0.57,0.9 -0.5,2.11 -1.5,2.41 -0.89,0.27 -1.65,-0.1 -2.15,-0.59z"></path></g><path fill="#C5C6C6" d="M45.64 28.66c13.1,2.59 26.29,2.68 39.59,0 1.29,-0.26 2.39,1.08 2.39,2.39l0 0c0,1.32 -1.1,2.17 -2.39,2.39 -13.3,2.3 -26.5,2.36 -39.59,0 -1.29,-0.23 -2.39,-1.08 -2.39,-2.39l0 -0c0,-1.32 1.1,-2.65 2.39,-2.39z"></path><ellipse fill="#5B5B5B" cx="65.32" cy="11.96" rx="3.66" ry="1.45"></ellipse><ellipse fill="#9D9E9E" cx="66.29" cy="11.45" rx="1.23" ry="0.27"></ellipse><path fill="#FEFEFE" d="M78.31 32.6c2.53,0 5.07,-0.48 7.64,-1.49 0.25,-0.1 0.46,0.12 0.46,0.37l0 0c0,0.25 -0.21,0.46 -0.46,0.55 -2.57,0.95 -5.11,1.46 -7.64,1.49 -0.25,0 -0.46,-0.12 -0.46,-0.37l0 0c0,-0.25 0.21,-0.55 0.46,-0.55z"></path></g></svg>