<svg xmlns="http://www.w3.org/2000/svg" width="81.267mm" height="81.267mm" version="1.1" viewBox="0 0 131.14 131.14"><path fill="#115293" d="M104 51.81c0,0 1.2,0.78 1.67,2.13 0.47,1.35 -1.66,18.01 -0.23,20.31 1.43,2.3 9.65,8.96 9.83,9.13 0,0 5.44,-4.14 7.55,-7.73 0,0 -8.9,-4.73 -9.64,-7.4 -0.73,-2.67 -4.03,-16.95 -4.63,-17.55 -0.6,-0.6 -3.5,-2.16 -3.99,-2.18 -0.49,-0.01 -0.57,3.29 -0.57,3.29z"></path><path fill="#1976d2" d="M104.22 45.7c0,0 5.01,-0.82 6.68,0.53 1.67,1.35 2.26,13.75 4.1,14.07 1.85,0.32 15.29,-3.62 15.29,-3.62 0,0 1.26,7.35 -1.09,11.54 -2.35,4.18 -15.23,2.18 -16.49,1.58 -5.34,-2.56 -4.15,-16.62 -5.46,-17.63 -1.3,-1 -3.52,-1.67 -3.52,-1.67l0.48 -4.79z"></path><path fill="#0f467e" d="M100.72 43.9c0,0 3.48,-0.12 4.13,0.54 0.65,0.66 -0.02,7.58 -0.83,8.28 -0.81,0.7 -2.42,-0.3 -2.42,-0.3l-0.88 -8.52z"></path><path fill="#1e8dfc" d="M105.07 45.63c0,0 3.81,-1.21 5.71,0.58 1.9,1.79 1.74,5.92 1.74,5.92 0,0 -0.46,-4.1 -2.83,-5.21 -2.37,-1.11 -4.62,-1.29 -4.62,-1.29z"></path><path fill="#1976d2" d="M29.81 49.79c0,0 12.34,-8.88 33.2,-9.93 20.81,-1.05 34.8,6.61 38.04,8.59 0.11,0.07 0.26,1.55 0.29,1.46 0.33,-0.9 0.35,-1.05 0.35,-1.05 0,0 0.75,-5.52 -0.51,-8 0,0 -12.81,-9.02 -36.42,-9.46 -23.61,-0.44 -34.47,10.1 -34.47,10.1 0,0 -1.8,4.64 -0.85,7.75 0.05,0.15 -0.04,2.64 0.02,2.79 0.02,0.06 0.32,-2.31 0.34,-2.26z"></path><path fill="#1e8dfc" d="M30.29 41.51c0,0 -2.58,7.02 -0.82,10.51 0,0 -0.01,-7.36 1.7,-9.29 1.71,-1.93 12.69,-10.68 36.89,-10.21 23.29,0.46 32.65,9.82 32.65,9.82 0,0 1.2,3 0.98,6.53 0,0 1.41,-4.42 -0.06,-8.17 0,0 -9.87,-9.73 -33.36,-10.05 -28.38,-0.39 -37.99,10.86 -37.99,10.86z"></path></svg>