<svg xmlns="http://www.w3.org/2000/svg" width="81.267mm" height="81.267mm" version="1.1" viewBox="0 0 162.64 162.64"><path fill="#FFE5AE" d="M98.39 109.95c0,0 -8.86,5.48 -17.41,4.88 -8.55,-0.61 -15.62,-4.92 -15.62,-4.92 0,0 2.68,7.28 14.57,8.48 11.9,1.2 18.12,-5.57 18.45,-8.44z"></path><path fill="#874123" d="M79.32 116.54c5.8,0.33 18.57,0.19 20.96,-8.9 2.39,-9.1 -3.54,-10.95 -5.74,-10.86 -2.21,0.09 -2.86,2.13 -13.6,1.76 -14.77,-0.5 -14.84,-4.13 -17.69,-1.82 -2.85,2.31 -3.33,18.71 16.08,19.82z"></path><path fill="#56291F" d="M94.5 114.36c0.67,-2.69 0.82,-5.98 -1.5,-7.94 -4.45,-3.76 -14.87,-0.2 -23.23,-1.73 -3.41,-0.62 -5.9,-0.77 -7.71,-0.49 -0.68,-3.48 0.07,-6.56 1.19,-7.48 2.85,-2.31 2.93,1.32 17.69,1.82 10.74,0.37 11.39,-1.67 13.6,-1.76 2.21,-0.09 8.13,1.77 5.74,10.86 -0.86,3.26 -3.05,5.37 -5.78,6.72z"></path><path fill="#FEFEFE" d="M71.89 114.3c0,0 0.42,-1.18 3.8,-1.89 3.37,-0.71 12.44,-1.3 15.03,-0.43 2.59,0.86 3.22,1.82 3.22,1.82 0,0 -9.27,4.78 -22.05,0.5z"></path><path fill="#E2DFEA" d="M73.7 112.99c3.48,1.05 12.15,3.11 19.73,0.32 0.38,0.29 0.51,0.48 0.51,0.48 0,0 -9.27,4.78 -22.05,0.5 0,0 0.24,-0.67 1.81,-1.31z"></path><g><path fill="#FEFEFE" d="M70.65 98.49c4.75,0.83 16.2,2.4 22.35,-0.55 0.18,3.48 -1.73,4.5 -3.37,5.15 -0.25,0.1 -2.61,-3.23 -3.41,-3.15 -1.27,0.13 -0.39,0.79 -2.16,0.8 -0.34,0 -0.96,-0.59 -1.64,-0.63 -0.8,-0.04 -1.88,0.56 -2.7,0.43 -1.44,-0.24 -1.94,-0.93 -3.3,-0.67 -0.88,0.17 -2.03,3.67 -2.63,3.62 -0.19,-0.02 -0.38,-0.03 -0.56,-0.05 -1.75,-1.17 -2.39,-3.92 -2.57,-4.95z"></path><path fill="#D9DADA" d="M70.65 98.49c4.75,0.83 16.2,2.4 22.35,-0.55l0.01 0.15 0 0.01 0 0 0 0.01 0 0.12 0 0.03 0 0.01 0 0.02 0 0.12 0 0.03 0 0 -0 0.02 -0 0.05 -0 0.02 -0 0.02 -0 0.05 -0 0.02 -0 0.02 -0 0.02 -0 0.02 -0 0.02 -0 0.02 -0 0.02 -0 0.02 -0 0.02 -0 0.02 -0 0.05 -0 0.02 -0 0.02 -0 0.02 -0 0.02 -0.01 0.07 -0 0.02 -0 0.02 -0 0.02 -0.01 0.07 -0 0.02 -0 0.02 -0.01 0.11 -0 0.02 -0.01 0.08 -0 0.02c-1.71,0.57 -3.66,0.92 -5.71,1.11 -0.41,-0.39 -0.77,-0.65 -1.01,-0.63 -1.21,0.12 -0.47,0.73 -1.93,0.79l-0.24 0.01c-0.34,-0 -0.95,-0.59 -1.64,-0.63 -0.8,-0.04 -1.88,0.56 -2.7,0.43 -1.44,-0.24 -1.94,-0.93 -3.3,-0.67 -0.19,0.04 -0.39,0.22 -0.59,0.49 -1.81,-0.18 -3.48,-0.41 -4.89,-0.63l-0.01 -0.02 -0 -0.01 -0 -0.01 -0.01 -0.02 -0.01 -0.02 -0.01 -0.02 -0 -0 -0.01 -0.02 -0.01 -0.02 -0.01 -0.02 -0 -0.01 -0 -0.01 -0.01 -0.02 -0.01 -0.02 -0.01 -0.02 0 -0 -0.01 -0.02 -0.01 -0.02 -0.01 -0.02 -0 -0.01 -0 -0.01 -0.01 -0.02 -0.01 -0.02 -0.01 -0.02 -0 -0 -0.01 -0.02 -0.01 -0.02 -0.01 -0.02 -0 -0.01 -0 -0.01 -0.01 -0.04 -0 -0.02 -0 -0 -0 -0.02 -0 -0.02 -0 -0.02 -0 -0.01 -0 -0.01 -0 -0.02 -0 -0.02 -0 -0.02 -0 -0 -0 -0.02 -0 -0.02 -0 -0.02 -0 -0.01 -0 -0.01 -0 -0.02 -0 -0.02 -0 -0.01 -0 -0 -0 -0.02 -0 -0.02 -0 -0.02 -0 -0 -0 -0.01 -0 -0.02 -0 -0.02 -0 -0.01 -0 -0.01 -0 -0.02 -0 -0.02 -0 -0.02 -0 -0 -0 -0.01 -0 -0.02 -0 -0.02 -0 -0.01 -0 -0.01 -0 -0.02 -0 -0.02 -0 -0.02 -0 -0 -0 -0.01 -0 -0.01 -0 -0.01 -0 -0.01 -0 -0.01 -0 -0.01 -0 -0.01 -0 -0.01z"></path></g></svg>