<svg xmlns="http://www.w3.org/2000/svg" width="81.267mm" height="81.267mm" version="1.1" viewBox="0 0 162.64 162.64"><path fill="#FFE5AE" d="M72.38 94.41c0,0 -0.87,1.2 -0.11,3.17 0.76,1.97 4.15,6.9 10.59,7.01 6.44,0.11 13,-5.8 11.36,-10.84 0,0 -2.4,4.05 -4.37,5.58 -1.97,1.53 -4.37,3.06 -5.68,2.85 -1.31,-0.22 -6.23,-2.41 -6.66,-2.85 -0.44,-0.44 -5.13,-4.93 -5.13,-4.93z"></path><path fill="#874123" d="M73.43 93.42c-1.64,0.41 -1.38,2.04 -0.66,3.57 0.73,1.53 3.64,6.71 11.21,6.57 7.57,-0.15 10.27,-7.88 10.27,-9.41 0,-1.53 -3.13,-1.53 -3.79,-0.66 -0.65,0.88 -1.24,7.58 -6.84,7.52 -6.26,-0.07 -6.41,-7.01 -7.72,-7.52 -1.31,-0.51 -1.89,-0.22 -2.48,-0.07z"></path></svg>