<svg xmlns="http://www.w3.org/2000/svg" width="81.267mm" height="81.267mm" version="1.1" viewBox="0 0 162.64 162.64"><path fill="#FFE5AE" d="M98.39 109.95c0,0 -8.86,5.48 -17.41,4.88 -8.55,-0.61 -15.62,-4.92 -15.62,-4.92 0,0 2.68,7.28 14.57,8.48 11.9,1.2 18.12,-5.57 18.45,-8.44z"></path><path fill="#874123" d="M79.32 116.54c5.8,0.33 18.57,0.19 20.96,-8.9 2.39,-9.1 -3.54,-10.95 -5.74,-10.86 -2.21,0.09 -2.86,2.13 -13.6,1.76 -14.77,-0.5 -14.84,-4.13 -17.69,-1.82 -2.85,2.31 -3.33,18.71 16.08,19.82z"></path><path fill="#56291F" d="M94.5 114.36c0.67,-2.69 0.82,-5.98 -1.5,-7.94 -4.45,-3.76 -14.87,-0.2 -23.23,-1.73 -3.41,-0.62 -5.9,-0.77 -7.71,-0.49 -0.68,-3.48 0.07,-6.56 1.19,-7.48 2.85,-2.31 2.93,1.32 17.69,1.82 10.74,0.37 11.39,-1.67 13.6,-1.76 2.21,-0.09 8.13,1.77 5.74,10.86 -0.86,3.26 -3.05,5.37 -5.78,6.72z"></path><path fill="#FEFEFE" d="M69.12 97.77c0,0 16.61,3.64 24.5,-0.13 0.18,3.48 -1.73,4.5 -3.37,5.15 -1.65,0.65 -16.99,0.99 -18.99,-0.2 -2,-1.18 -2.13,-4.82 -2.13,-4.82z"></path><path fill="#E2DFEA" d="M69.29 99.09c3.27,0.94 14.84,3.78 24.26,0.11 0.08,-0.46 0.11,-0.98 0.08,-1.56 -7.89,3.78 -24.5,0.13 -24.5,0.13 0,0 0.02,0.56 0.17,1.32z"></path><path fill="#FEFEFE" d="M71.89 114.3c0,0 0.42,-1.18 3.8,-1.89 3.37,-0.71 12.44,-1.3 15.03,-0.43 2.59,0.86 3.22,1.82 3.22,1.82 0,0 -9.27,4.78 -22.05,0.5z"></path><path fill="#E2DFEA" d="M73.7 112.99c3.48,1.05 12.15,3.11 19.73,0.32 0.38,0.29 0.51,0.48 0.51,0.48 0,0 -9.27,4.78 -22.05,0.5 0,0 0.24,-0.67 1.81,-1.31z"></path></svg>