<svg xmlns="http://www.w3.org/2000/svg" width="81.267mm" height="81.267mm" version="1.1" viewBox="0 0 162.64 162.64"><path fill="#F7DEA0" d="M66.94 99.97c0,0 2.35,15.54 14.57,14.49 12.22,-1.05 14.97,-11.59 14.91,-17.19 -16.2,3.13 -29.48,2.69 -29.48,2.69z"></path><path fill="#874123" d="M67.86 95.52c4.32,0.57 17.37,1.94 27.64,-0.38 0.4,-0.09 1.2,0.31 1.11,1.3 -0.38,4.15 -2.42,15.07 -13.26,16.59 -12.17,1.71 -16.38,-10.16 -16.91,-16.1 -0.05,-0.61 0.48,-1.53 1.41,-1.41z"></path><path fill="#FEFEFE" d="M95.18 96.75c0,0 -13.6,2.75 -27.38,0.16 0,0 0.25,2.73 0.71,3.78 0,0 10.01,2.53 23.27,0.22 3.8,-0.66 3.4,-4.15 3.4,-4.15z"></path><path fill="#56291F" d="M83.89 102.35c1.31,0.24 2.67,2.13 1.47,3.83 -1.19,1.7 -5.47,2.41 -6.26,1.35 -0.79,-1.06 -1.69,-4.38 -0.05,-4.87 1.64,-0.49 1.92,0.16 1.94,0.72 0.02,0.55 -0.49,1.66 0.39,1.62 0.89,-0.04 0.14,-1.33 0.29,-1.71 0.15,-0.38 1.03,-1.15 2.2,-0.94z"></path><path fill="#C02222" d="M73.66 109.2c0,0 3.03,2.52 8.67,2.42 5.63,-0.1 8.57,-3.56 8.57,-3.56 0,0 -0.63,-2.39 -3.31,-2.72 -3.87,-0.48 -5.43,1.72 -5.43,1.72 0,0 -2.38,-1.87 -4.38,-1.56 -2.78,0.43 -4.11,3.69 -4.11,3.69z"></path><path fill="#8F2834" d="M80.2 105.91c0,0 1.18,0.32 1.94,1.05 0,0 1.12,-1.05 2.1,-1.31 0,0 -1.38,0.93 -1.26,3.28 0,0 -1.03,-1.97 -2.78,-3.02z"></path><path fill="#E2D4D6" d="M67.8 96.91c0,0 0.03,0.74 0.12,1.09 0,0 6.09,1.22 14.49,1.14 8.39,-0.08 12.73,-1.37 12.73,-1.37 0,0 0.13,-0.66 0.05,-1.02 0,0 -6.13,1.2 -12.88,1.22 -9.57,0.02 -14.5,-1.06 -14.5,-1.06z"></path><path fill="#D82326" d="M86.32 106.15c-0.71,0.47 -0.05,0.49 0.43,0.81 0.48,0.31 1.67,0.78 1.89,0.31 0.22,-0.47 -1.35,-1.76 -2.32,-1.11z"></path><path fill="#D82326" d="M89 107.46c-0.27,0.13 -0.05,0.78 0.28,0.58 0.33,-0.2 0.11,-0.77 -0.28,-0.58z"></path></svg>