<svg xmlns="http://www.w3.org/2000/svg" width="81.267mm" height="81.267mm" version="1.1" viewBox="0 0 162.64 162.64"><path fill="#E08A2F" d="M69.49 105.77c0,0 -1.05,3.1 3.15,3.1 4.2,0 3.46,-1.24 3.8,-2.45 0.34,-1.21 1.34,-4.96 5.64,-5.07 3.01,-0.08 4.68,2.12 5.03,3.82 0.35,1.7 0.48,3.42 3.06,3.43 2.59,0.02 4.12,-1.07 4.14,-2.15 0.03,-1.08 -5.9,-8.18 -6.91,-8.64 -1,-0.46 -8.37,-0.98 -8.37,-0.98l-5.55 3.45 -3.99 5.49z"></path><path fill="#874123" d="M89.05 105.28c0.21,0.91 0.28,1.78 1.37,1.91 1.09,0.13 3.84,0.42 4.05,-0.53 0.21,-0.95 -0.16,-6.82 -5.46,-10.3 -5.29,-3.48 -10.67,-2.49 -14.56,0.11 -2.8,1.87 -5.59,7.55 -5.03,9.31 0.57,1.76 4.55,1.3 5.02,0.91 0.47,-0.4 0.52,-4.43 3.73,-6.62 2.21,-1.51 5.78,-1.38 8.44,0.57 2.59,1.9 2.22,3.71 2.44,4.63z"></path><path fill="#56291F" d="M70.64 106.82c0,0 2.02,0.73 3.45,0.11 1.07,-0.46 0.78,-1.36 1.09,-2.27 0.31,-0.91 1.49,-3.78 3.53,-4.8 2.05,-1.02 5.33,-0.73 7.15,0.5 1.82,1.24 2.32,1.82 2.58,2.8 0.26,0.98 0.61,3.38 0.93,3.76 0.33,0.38 1.63,0.5 2.7,0.52 1.08,0.02 1.96,-0.12 2.35,-0.64 0,0 -3.4,-0.39 -3.79,-1.3 -0.39,-0.91 0.16,-2.49 -2,-5.35 -1.37,-1.81 -4.64,-2.96 -7.8,-2.67 -3.15,0.3 -4.51,1.96 -5.52,3.8 -1.02,1.83 -1.39,4.21 -1.92,4.76 -0.72,0.76 -2.77,0.78 -2.77,0.78z"></path><path fill="#BA5E29" d="M87.19 97c0,0 -2.61,-2.17 -5.82,-2 -3.22,0.18 -5.71,1.37 -5.36,2.14 0.35,0.77 2.81,-0.86 5.74,-1.02 3.07,-0.16 5.45,0.88 5.45,0.88z"></path><path fill="#BA5E29" d="M86.97 96.01c0,0 1.07,0.85 1.52,1.97 0.24,0.6 1.33,0.59 1.07,-0.08 -0.54,-1.4 -1.84,-1.51 -2.59,-1.89z"></path></svg>