<svg xmlns="http://www.w3.org/2000/svg" width="81.267mm" height="81.267mm" version="1.1" viewBox="0 0 162.64 162.64"><path fill="#E08A2F" d="M80.03 113c0,0 0.95,-1.57 3.04,-0.97 1.27,0.36 2.17,1.47 2.17,1.47 0,0 -2.55,-0.18 -5.2,-0.5z"></path><path fill="#FFE5AE" d="M93.68 111.5c-0.09,-0.15 -0.18,-0.24 -0.27,-0.25 -0.55,-0.1 -16.06,-3.05 -16.91,-3.05 -0.85,0 -2.17,0.04 -2.76,0.32l-0.12 0.06c0.27,0.22 0.33,0.27 0.58,0.5 0.32,0.29 0.68,0.39 1.21,0.53 2.16,0.13 6.87,0.78 9,1.24 2.01,0.44 7.16,1.85 8.62,1.2 0,-0 0.49,0.09 0.65,-0.56z"></path><path fill="#874123" d="M93.69 110.53c-0.09,-0.22 -0.18,-0.48 -0.46,-0.64 -1.74,-0.72 -4.88,-1.57 -10.17,-2.34 -3.44,-0.5 -7.68,-0.66 -9.53,-0.42l-0.01 0.01c-1.04,0.21 0.11,1.84 0.66,1.8 1.35,-0.02 7.26,0.48 11.3,1.15 3.52,0.58 6.2,1.39 7.29,1.94 0.36,0.18 0.78,-0.04 0.9,-0.5 0.08,-0.32 0.17,-0.63 0.02,-0.99z"></path></svg>