<svg xmlns="http://www.w3.org/2000/svg" width="81.267mm" height="81.267mm" version="1.1" viewBox="0 0 162.64 162.64"><path fill="#E08A2F" d="M72.2 106.23c0,0 2.79,-2.27 11.16,-2.07 5.09,0.12 8.84,2.22 8.84,2.22 0,0 -9.42,-0.92 -20,-0.15z"></path><path fill="#E08A2F" d="M58.01 98.41c0,0 -2.11,5.23 -1.43,7.72 1.04,3.85 3.73,5.19 3.73,5.19 0,0 -4.59,-0.1 -5.66,-4.35 -1.06,-4.26 3.36,-8.55 3.36,-8.55z"></path><path fill="#E08A2F" d="M103.92 99.09c0,0 2.02,3.39 1.15,7.29 -0.87,3.91 -4.02,5.91 -4.02,5.91 0,0 5.01,-0.87 5.82,-5.57 0.81,-4.7 -2.95,-7.63 -2.95,-7.63z"></path><path fill="#FFE5AE" d="M65.43 104.18c-0.16,0.56 -0.05,1.17 0.38,1.09 0.43,-0.08 1.91,-1.92 2.69,-2.07 0.77,-0.14 10.95,-0.67 14.87,-0.42 2.95,0.19 10.93,0.63 11.8,1 0.87,0.37 1.99,3.02 2.62,2.1 0.63,-0.92 -0.58,-4.08 -1.39,-4.11 -0.81,-0.03 -23.57,-0.93 -24.79,-0.79 -1.22,0.14 -3.13,0.41 -3.94,0.83 -0.81,0.42 -2.22,2.38 -2.22,2.38z"></path><path fill="#874123" d="M65.3 104.91c0.24,0.41 1.95,-2.42 2.71,-2.65 0.76,-0.23 10.37,-0.7 16.8,-0.56 6.43,0.13 11.02,0.88 11.56,1.4 0.54,0.52 0.83,2.98 1.41,2.77 0.97,-0.36 1.69,-3.87 0.83,-4.69 -0.86,-0.82 -5.39,-2 -17.65,-2.05 -6.16,-0.02 -13.96,0.74 -14.98,1.47 -1.02,0.72 -1.19,3.43 -0.67,4.31z"></path></svg>