<svg xmlns="http://www.w3.org/2000/svg" width="81.267mm" height="81.267mm" version="1.1" viewBox="0 0 162.64 162.64"><path fill="#E08A2F" d="M86.53 99.46c0,0 -0.23,2.49 1.47,2.72 1.71,0.23 6.36,0.08 7.37,1.4 1.01,1.32 3.1,9.41 1.78,12.52 -1.32,3.11 -12.73,3.34 -14.05,2.33 -1.32,-1.01 -1.4,-6.69 -1.4,-6.69 0,0 -3.45,-0.5 -3.73,1.63 -0.39,3.04 -0.85,5.68 -0.85,5.68 0,0 -11.49,0.16 -12.5,-1.17 -1.01,-1.32 -0.31,-13.77 -0.23,-14.31 0.08,-0.54 2.33,-0.78 3.8,-0.85 1.47,-0.08 7.61,0.15 7.76,-1.87 0.16,-2.02 -3.42,-2.1 -3.42,-2.1l-10.25 1.17c0,0 -3.49,1.17 -3.73,6.46 -0.23,5.29 -0.08,14.08 1.4,16.57 1.47,2.49 9.31,2.96 16.77,2.72 7.45,-0.24 21.35,-0.78 23.6,-2.26 2.25,-1.48 5.12,-5.06 3.11,-15.09 -2.02,-10.04 -8.54,-8.56 -8.54,-8.56l-8.38 -0.31z"></path><path fill="#874123" d="M88.63 97.56c-3.13,0.41 -2.8,3.73 0.35,3.73 3.14,0 6.99,-0.12 7.8,1.98 0.81,2.1 2.21,11.9 -0.23,12.72 -2.45,0.82 -9.66,1.4 -10.71,0.58 -1.05,-0.82 -0.23,-4.32 -1.98,-4.78 -1.75,-0.47 -4.43,-0.12 -4.43,1.52 0,1.63 0,3.27 -1.75,3.39 -1.75,0.12 -9.2,0.47 -10.36,0.12 -1.16,-0.35 -1.98,-2.8 -1.75,-5.83 0.23,-3.03 -0.12,-7.82 0.58,-8.75 0.7,-0.93 5.01,-0.35 7.57,-0.82 2.56,-0.47 3.03,-1.98 2.21,-3.03 -0.82,-1.05 -7.57,-0.82 -10.95,0 -3.38,0.82 -4.31,1.98 -4.54,7.12 -0.23,5.13 -1.05,14.93 2.33,17.04 3.38,2.1 26.2,0.7 31.2,0.23 5.01,-0.47 10.48,-0.82 9.9,-10.5 -0.58,-9.68 -2.68,-13.54 -5.36,-14.12 -2.68,-0.58 -7.22,-0.93 -9.9,-0.58z"></path><path fill="#56291F" d="M103.69 115.88c0,0 -1.63,3.97 -9.7,4.67 -8.07,0.7 -23.67,1.24 -27.32,1.01 -3.65,-0.23 -5.82,-2.49 -6.44,-8.01 0,0 -0.39,3.66 0.7,6.77 1.09,3.11 3.72,3.5 8.07,3.5 4.35,0 20.09,0.42 26.62,-0.93 5.28,-1.09 7.53,-2.41 8.07,-7z"></path><path fill="#56291F" d="M87.03 98.19c0,0 -1.43,1.35 -0.11,2.6 1.32,1.24 4.56,0.3 7.22,0.78 1.62,0.29 2.64,1.71 2.64,1.71 0,0 0.16,-2.18 -2.25,-2.88 -2.41,-0.7 -6.21,0.08 -6.99,-0.62 -0.78,-0.7 -0.51,-1.59 -0.51,-1.59z"></path><path fill="#56291F" d="M76.28 99.42c0,0 -0.99,1.05 -3.26,1.05 -2.27,0 -6.17,-0.12 -6.81,0.82 -0.64,0.93 -0.47,2.33 -0.47,2.33 0,0 0.12,-1.4 1.57,-1.58 1.46,-0.17 6.05,-0.23 7.1,-0.58 1.05,-0.35 1.92,-0.99 1.86,-2.04z"></path><path fill="#A74925" d="M96.31 98.6c-1.64,0 -0.62,0.62 0.23,0.86 0.85,0.23 2.02,0.07 2.72,0.93 0.7,0.86 1.24,2.96 1.71,2.72 0.47,-0.23 0,-4.51 -4.66,-4.51z"></path><path fill="#A74925" d="M101.36 104.05c-0.39,-0.04 -0.16,1.56 0.31,1.4 0.47,-0.16 0.54,-1.32 -0.31,-1.4z"></path><path fill="#A74925" d="M64.33 99.15c-1.52,0.46 -2.64,2.41 -2.48,3.34 0.16,0.93 0.7,-0.54 1.4,-1.4 0.7,-0.86 2.48,-1.25 2.87,-1.71 0.39,-0.47 -0.23,-0.7 -1.79,-0.23z"></path><path fill="#A74925" d="M67.98 98.6c-0.93,0.08 -0.08,0.7 0.54,0.62 0.62,-0.08 0.39,-0.7 -0.54,-0.62z"></path><path fill="#A74925" d="M82.26 112.37c-0.86,0 -1.01,0.78 -0.16,0.86 0.85,0.08 1.24,0.39 1.4,1.4 0.16,1.01 1.09,1.32 1.24,0.7 0.15,-0.62 -0.54,-2.96 -2.48,-2.96z"></path><path fill="#A74925" d="M80.4 112.84c-0.52,0.06 0,1.01 0.23,0.78 0.23,-0.23 0.39,-0.86 -0.23,-0.78z"></path><path fill="#FFE5AE" d="M93.69 107.59c0,0 1.11,2.39 -3.61,2.92 -4.72,0.52 -10.77,0.41 -14.21,-0.23 -3.43,-0.64 -5.01,-1.87 -5.94,-3.21 -0.93,-1.34 -0.87,-3.38 0.06,-3.44 0.93,-0.06 2.85,2.74 4.77,3.38 1.92,0.64 15.49,0.12 15.49,0.12l3.43 0.47z"></path><path fill="#874123" d="M89.67 105.96c3.02,-0.25 3.96,-0.23 4.08,1.4 0.12,1.64 -2.21,1.98 -4.31,2.1 -2.1,0.12 -11.88,0.7 -15.6,-0.82 -3.73,-1.52 -5.01,-4.55 -3.84,-5.37 1.16,-0.82 3.63,2.07 5.94,2.45 5.01,0.82 9.55,0.58 13.74,0.23z"></path></svg>