<svg xmlns="http://www.w3.org/2000/svg" width="81.267mm" height="81.267mm" version="1.1" viewBox="0 0 162.64 162.64"><path fill="#FFE5AE" d="M102.23 114.12c0,0 -12.46,1.43 -21.01,0.83 -8.55,-0.61 -17.66,0.18 -17.66,0.18 3.81,4.74 2.82,2.52 14.08,2.35 4.44,-0.06 24.38,3 24.58,-3.36z"></path><path fill="#874123" d="M79.56 116.65c4.95,0.28 16.92,3.59 21.25,-2.07 0.12,-0.16 2.53,-18.02 -6.03,-17.69 -2.21,0.09 -2.86,2.13 -13.6,1.76 -14.77,-0.5 -14.84,-4.13 -17.69,-1.82 -1.12,0.91 -1.87,3.99 -1.19,7.48 0.7,3.67 -0.78,10.1 2.74,12.45 2.65,1.76 9.62,-0.39 14.53,-0.11z"></path><path fill="#56291F" d="M94.17 117.73c0.67,-2.69 1.07,-6.54 -1.25,-8.5 -1.69,-1.33 -15.32,-4.25 -22.15,-0.93 -4.9,2.38 -3.55,7.72 -7.04,7.09 -0.5,-0.09 -1.12,-1.68 -1.31,-3.65 -0.31,-3.23 0.35,-4.87 -0.12,-7.43 -0.68,-3.48 0.07,-6.56 1.19,-7.48 2.85,-2.31 2.93,1.32 17.69,1.82 10.74,0.37 11.39,-1.67 13.6,-1.76 2.21,-0.09 9.93,-1.15 7.54,7.95 -0.35,1.32 0.97,7.4 -0.22,9.57 -1.75,3.2 -6.06,3.2 -7.92,3.33z"></path><path fill="#FEFEFE" d="M69.35 97.89c0,0 16.61,3.64 24.5,-0.13 0.18,3.48 -1.73,4.5 -3.37,5.15 -1.27,0.5 -10.68,0.81 -15.84,0.39 -1.53,-0.13 -2.69,-0.32 -3.15,-0.59 -2,-1.18 -2.13,-4.82 -2.13,-4.82z"></path><path fill="#E2DFEA" d="M69.52 99.21c0.72,0.21 1.85,0.51 3.27,0.81 5.01,1.07 13.65,2.16 20.99,-0.7 0.08,-0.46 0.11,-0.98 0.08,-1.56 -6.25,2.99 -17.98,1.33 -22.58,0.51 -1.2,-0.21 -1.92,-0.37 -1.92,-0.37 0,0 0.02,0.56 0.17,1.32z"></path><path fill="#FEFEFE" d="M71.24 116.53c0,0 0.95,-2.27 1.18,-2.5 0.41,-0.41 1.36,-1.04 3.5,-1.49 3.37,-0.71 12.44,-1.3 15.03,-0.43 1.05,0.35 3.31,0.98 3.2,2.37 -0.06,0.71 -0.23,1.9 -0.77,2.19 -3.06,1.64 -11.27,-1.96 -22.14,-0.13z"></path><path fill="#D9DADA" d="M71.24 116.53c0,0 0.24,-0.58 0.51,-1.18 10.34,-1.59 18.35,1.34 22.14,0.57 -0.12,0.34 -0.28,0.62 -0.51,0.74 -3.06,1.64 -11.27,-1.96 -22.14,-0.13z"></path></svg>