<svg xmlns="http://www.w3.org/2000/svg" width="81.267mm" height="81.267mm" version="1.1" viewBox="0 0 119.47 119.47"><g><g><path fill="#C97821" d="M53.81 57.9c0,-1.11 0.7,-2.09 1.84,-2.78l0 0c1.05,-0.64 2.5,-1.04 4.08,-1.04 1.58,0 3.02,0.4 4.08,1.04 1.14,0.69 1.84,1.67 1.84,2.78l-0.51 1.21c-0.56,-1.18 -0.68,-2.31 -1.88,-3.05 -0.89,-0.54 -2.13,-0.88 -3.52,-0.88 -1.38,0 -2.63,0.33 -3.52,0.88 -1.22,0.74 -1.34,1.91 -1.9,3.11l-0.5 -1.27z"></path><path fill="#FFE5AE" d="M58.07 54.78c0,-0.51 1.09,-0.53 1.56,-0.53 0.64,0 1.88,0.01 1.5,0.83 -0.28,-0.54 -0.72,-0.56 -1.5,-0.56 -1.31,0 -1.2,1.09 -1.56,0.26z"></path></g><path fill="#2B2A29" d="M42.66 45c-3.11,0 -5.93,1.26 -7.97,3.3 -2.04,2.04 -3.3,4.86 -3.3,7.97 0,3.11 1.26,5.93 3.3,7.97 2.04,2.04 4.86,3.3 7.97,3.3 3.11,0 5.93,-1.26 7.97,-3.3 2.04,-2.04 3.3,-4.86 3.3,-7.97 0,-3.11 -1.26,-5.93 -3.3,-7.97 -2.04,-2.04 -4.86,-3.3 -7.97,-3.3zm-8.49 2.78c2.17,-2.17 5.17,-3.51 8.49,-3.51 3.31,0 6.31,1.34 8.49,3.51 2.17,2.17 3.51,5.17 3.51,8.49 0,3.31 -1.34,6.31 -3.51,8.49 -2.17,2.17 -5.17,3.51 -8.49,3.51 -3.31,0 -6.31,-1.34 -8.49,-3.51 -2.17,-2.17 -3.51,-5.17 -3.51,-8.49 0,-3.31 1.34,-6.31 3.51,-8.49z"></path><path fill="#2B2A29" d="M76.79 45c-3.11,0 -5.93,1.26 -7.97,3.3 -2.04,2.04 -3.3,4.86 -3.3,7.97 0,3.11 1.26,5.93 3.3,7.97 2.04,2.04 4.86,3.3 7.97,3.3 3.11,0 5.93,-1.26 7.97,-3.3 2.04,-2.04 3.3,-4.86 3.3,-7.97 0,-3.11 -1.26,-5.93 -3.3,-7.97 -2.04,-2.04 -4.86,-3.3 -7.97,-3.3zm-8.49 2.78c2.17,-2.17 5.17,-3.51 8.49,-3.51 3.31,0 6.31,1.34 8.49,3.51 2.17,2.17 3.51,5.17 3.51,8.49 0,3.31 -1.34,6.31 -3.51,8.49 -2.17,2.17 -5.17,3.51 -8.49,3.51 -3.31,0 -6.31,-1.34 -8.49,-3.51 -2.17,-2.17 -3.51,-5.17 -3.51,-8.49 0,-3.31 1.34,-6.31 3.51,-8.49z"></path></g><g><rect fill="#C97821" x="28.09" y="55.45" width="3.3" height="1.63" rx="1.65" ry="0.48"></rect><rect fill="#FFE5AE" x="28.55" y="55.54" width="2.41" height="0.61" rx="1.21" ry="0.18"></rect></g><g><rect fill="#C97821" x="88.05" y="55.45" width="3.3" height="1.63" rx="1.65" ry="0.48"></rect><rect fill="#FFE5AE" x="88.5" y="55.54" width="2.41" height="0.61" rx="1.21" ry="0.18"></rect></g><path fill="#EBECEC" d="M36.72 60.96c0.48,0.66 0.34,1.58 -0.31,2.06 -0.66,0.48 -1.58,0.34 -2.06,-0.31 -0.68,-0.92 -1.2,-1.93 -1.55,-2.98l0 -0.01c-0.35,-1.07 -0.53,-2.18 -0.53,-3.31 0,-2.93 1.19,-5.59 3.11,-7.51 1.92,-1.92 4.58,-3.11 7.51,-3.11 0.82,0 1.48,0.66 1.48,1.48 0,0.82 -0.66,1.48 -1.48,1.48 -2.11,0 -4.03,0.86 -5.41,2.24 -1.38,1.38 -2.24,3.3 -2.24,5.41 0,0.82 0.13,1.63 0.38,2.39l0 -0c0.26,0.78 0.63,1.51 1.11,2.16z"></path><path fill="#EBECEC" d="M71.1 60.96c0.48,0.66 0.34,1.58 -0.31,2.06 -0.66,0.48 -1.58,0.34 -2.06,-0.31 -0.68,-0.92 -1.2,-1.93 -1.55,-2.98l0 -0.01c-0.35,-1.07 -0.53,-2.18 -0.53,-3.31 0,-2.93 1.19,-5.59 3.11,-7.51 1.92,-1.92 4.58,-3.11 7.51,-3.11 0.82,0 1.48,0.66 1.48,1.48 0,0.82 -0.66,1.48 -1.48,1.48 -2.11,0 -4.03,0.86 -5.41,2.24 -1.38,1.38 -2.24,3.3 -2.24,5.41 0,0.82 0.13,1.63 0.38,2.39l0 -0c0.26,0.78 0.63,1.51 1.11,2.16z"></path></svg>