<svg xmlns="http://www.w3.org/2000/svg" width="81.267mm" height="81.267mm" version="1.1" viewBox="0 0 119.47 119.47"><path fill="#5B5B5B" d="M33.62 51.1c2.73,1.08 13.83,2.23 25.66,1.97 11.84,0.25 22.94,-0.9 25.66,-1.97 1.14,-0.45 6.72,-1.89 7.3,-0.58l0.01 8.99c-1.05,1.39 -2.26,2.59 -4.09,2.95 -3.14,0.62 -7.14,0.1 -10.77,0.41 -4.57,0.39 -7.9,1.44 -11.15,1.84 -3.65,0.45 -3.32,-0.58 -6.97,-1.17 -3.65,0.58 -3.33,1.61 -6.97,1.17 -3.25,-0.4 -6.58,-1.45 -11.15,-1.84 -3.63,-0.31 -7.63,0.2 -10.77,-0.41 -1.82,-0.36 -3.04,-1.56 -4.09,-2.95l0.01 -8.99c0.58,-1.31 6.15,0.13 7.3,0.58z"></path><path fill="#434242" d="M26.49 50.52c0.64,0 1.17,2.04 1.17,4.56 0,2.52 -0.52,4.56 -1.17,4.56 -0.64,0 -1.87,-2.08 -1.87,-4.6 0,-2.52 1.23,-4.51 1.87,-4.51z"></path><path fill="#2B2A29" d="M26.49 50.52c0.64,0 1.88,2.04 1.88,4.56 0,2.52 -1.24,4.56 -1.88,4.56 0.64,0 1.17,-2.04 1.17,-4.56 0,-2.52 -0.52,-4.56 -1.17,-4.56z"></path><ellipse fill="#9D9E9E" cx="25.29" cy="55.24" rx="0.24" ry="1.61"></ellipse><path fill="#727271" d="M59.28 54.28c-8.54,0 -25.2,-1.46 -29.18,0.9 -1.28,0.76 -1.29,1.6 -0.72,2.72 1.53,2.98 5.45,3.78 10.71,4.07 6.45,0.35 15.45,0.07 19.19,0 3.74,0.07 12.74,0.34 19.19,-0 5.26,-0.28 9.18,-1.08 10.71,-4.07 0.57,-1.12 0.56,-1.96 -0.72,-2.72 -3.97,-2.36 -20.64,-0.9 -29.18,-0.9z"></path><path fill="#C5C6C6" d="M32.66 54.37c-1.09,0.2 -1.96,0.47 -2.55,0.82 -1.26,0.75 -1.29,1.58 -0.75,2.67l4.33 1.97 1.68 -3.1 -2.7 -2.35z"></path><path fill="#C5C6C6" d="M85.9 54.37c1.09,0.2 1.96,0.47 2.55,0.82 1.26,0.75 1.29,1.58 0.75,2.67l-4.33 1.97 -1.68 -3.1 2.7 -2.35z"></path><path fill="#9D9E9E" d="M59.28 55.69l-18.71 0c-10.2,0 -9.46,3.68 -5.65,5.45 2.13,0.99 5.51,0.76 7.91,0.76l16.46 0 16.46 0c2.4,0 5.78,0.23 7.91,-0.76 3.81,-1.78 4.55,-5.45 -5.65,-5.45l-18.71 0z"></path><path fill="#5F221D" d="M59.28 56.69l17.35 0c10.2,0 9.46,2.46 5.65,3.64 -2.13,0.66 -5.51,0.51 -7.91,0.51l-15.1 0 -15.1 0c-2.4,0 -5.78,0.15 -7.91,-0.51 -3.81,-1.19 -4.55,-3.64 5.65,-3.64l17.35 0z"></path><path fill="#9F2420" d="M59.28 57.03l-17.35 0c-10.2,0 -9.46,2.06 -5.65,3.05 2.13,0.56 5.51,0.43 7.91,0.43l15.1 0 15.1 0c2.4,0 5.78,0.13 7.91,-0.43 3.81,-0.99 4.55,-3.05 -5.65,-3.05l-17.35 0z"></path><polygon fill="#9D9E9E" points="42.13,56.42 40.96,56.19 38.73,61.11 39.89,61.34 "></polygon><path fill="#434242" d="M92.07 50.52c-0.64,0 -1.17,2.04 -1.17,4.56 0,2.52 0.52,4.56 1.17,4.56 0.64,0 1.87,-2.08 1.87,-4.6 0,-2.52 -1.23,-4.51 -1.87,-4.51z"></path><path fill="#2B2A29" d="M92.07 50.52c-0.64,0 -1.88,2.04 -1.88,4.56 0,2.52 1.24,4.56 1.88,4.56 -0.64,0 -1.17,-2.04 -1.17,-4.56 0,-2.52 0.52,-4.56 1.17,-4.56z"></path><ellipse fill="#9D9E9E" cx="93.27" cy="55.24" rx="0.24" ry="1.61"></ellipse><polygon fill="#9D9E9E" points="76.43,56.42 77.6,56.19 79.84,61.11 78.67,61.34 "></polygon><polygon fill="#BE3C52" points="48.08,57.03 48.81,57.03 47.2,60.51 46.47,60.51 "></polygon><polygon fill="#BE3C52" points="72.42,57.03 73.15,57.03 71.55,60.51 70.81,60.51 "></polygon></svg>