<svg xmlns="http://www.w3.org/2000/svg" width="81.267mm" height="81.267mm" version="1.1" viewBox="0 0 119.47 119.47"><path fill="#EBECEC" d="M53.21 45.01c-2.25,-1.3 -4.53,-3.22 -8.81,-4.48l0 0c-1.43,-0.43 -2.95,-0.73 -4.54,-0.86 -9.72,-0.83 -16.99,5.96 -15.55,15.24 0.03,0.21 0.07,0.42 0.11,0.63 -0.12,0.62 -0.18,1.32 -0.18,2.05 0,2.7 2.06,6 3.17,6 -0.42,0.18 -1.88,0.14 -0.63,1.91 1.12,1.58 3.38,4.72 6.97,4.91 2.27,1.49 4.86,2.42 7.65,2.58 7,0.4 13.23,-5.18 15.39,-11.73l0 0c0.95,-1.69 0.8,-4.84 2.93,-5.43 2.13,0.59 1.99,3.74 2.93,5.43l0 -0c2.16,6.55 8.39,12.13 15.39,11.73 2.8,-0.16 5.38,-1.09 7.65,-2.58 3.59,-0.19 5.86,-3.33 6.97,-4.91 1.25,-1.77 -0.2,-1.73 -0.63,-1.91 1.1,0 3.17,-3.3 3.17,-6 0,-0.73 -0.07,-1.43 -0.18,-2.05 0.04,-0.21 0.07,-0.42 0.11,-0.63 1.45,-9.28 -5.83,-16.07 -15.55,-15.24 -1.59,0.14 -3.11,0.43 -4.54,0.86l0 -0c-3.94,1.16 -6.19,2.89 -8.28,4.16 -3.69,2.26 -9.81,2.47 -13.56,0.31z"></path><circle fill="#2B2A29" cx="77.11" cy="56.83" r="13.9"></circle><path fill="#5B5B5B" d="M86.6 69.33c1.77,-1.09 3.4,-2.98 4.22,-4.88 0.07,0.07 0.37,0.26 0.44,0.33 -0.36,0.85 -2.43,3.62 -4.67,4.55z"></path><path fill="#5B5B5B" d="M93.78 52.54c-0.47,-2.32 -1.92,-4.6 -3.69,-6.15l0.4 -0.64c1.82,1.59 3.16,4.35 3.57,6.73l-0.29 0.06z"></path><path fill="#5B5B5B" d="M79.92 41.2c-1.55,-0.01 -3.09,0.13 -4.64,0.31 1.56,-0.52 3.14,-0.96 4.83,-1.14 -0.06,0.28 -0.13,0.55 -0.19,0.83z"></path><path fill="#5B5B5B" d="M81.63 41.04c1.41,0.3 4.66,1.38 5.75,2.23l-0.42 0.4c-0.75,-0.58 -1.58,-1.06 -2.48,-1.44 -0.9,-0.39 -1.88,-0.68 -2.92,-0.91l0.06 -0.29z"></path><path fill="#5B5B5B" d="M87.92 41.9l-0.41 0.46c-0.74,-0.48 -1.55,-0.86 -2.44,-1.17 -0.89,-0.3 -1.85,-0.52 -2.87,-0.66 2.65,-0.13 4.96,0.88 5.72,1.36z"></path><circle fill="#2B2A29" cx="42.36" cy="56.83" r="13.9"></circle><path fill="#5B5B5B" d="M32.87 69.33c-1.77,-1.09 -3.4,-2.98 -4.22,-4.88 -0.07,0.07 -0.37,0.26 -0.44,0.33 0.36,0.85 2.43,3.62 4.67,4.55z"></path><path fill="#5B5B5B" d="M25.69 52.54c0.47,-2.32 1.92,-4.6 3.69,-6.15l-0.4 -0.64c-1.82,1.59 -3.16,4.35 -3.57,6.73l0.29 0.06z"></path><path fill="#5B5B5B" d="M39.55 41.2c1.55,-0.01 3.09,0.13 4.64,0.31 -1.56,-0.52 -3.14,-0.96 -4.83,-1.14 0.06,0.28 0.13,0.55 0.19,0.83z"></path><path fill="#5B5B5B" d="M37.83 41.04c-1.41,0.3 -4.66,1.38 -5.75,2.23l0.42 0.4c0.75,-0.58 1.58,-1.06 2.48,-1.44 0.9,-0.39 1.88,-0.68 2.92,-0.91l-0.06 -0.29z"></path><path fill="#5B5B5B" d="M31.55 41.9l0.41 0.46c0.74,-0.48 1.55,-0.86 2.44,-1.17 0.89,-0.3 1.85,-0.52 2.87,-0.66 -2.65,-0.13 -4.96,0.88 -5.72,1.36z"></path><path fill="#5B5B5B" d="M34.68 62.38c0.53,0.78 0.37,1.88 -0.34,2.45 -0.72,0.57 -1.72,0.41 -2.25,-0.37 -0.74,-1.1 -1.31,-2.29 -1.69,-3.54l0 -0.01c-0.38,-1.27 -0.58,-2.6 -0.58,-3.94 0,-3.48 1.3,-6.64 3.39,-8.92 2.1,-2.28 4.99,-3.7 8.19,-3.7 0.89,0 1.62,0.79 1.62,1.76 0,0.97 -0.72,1.76 -1.62,1.76 -2.31,0 -4.39,1.02 -5.9,2.66 -1.51,1.65 -2.44,3.92 -2.44,6.43 0,0.98 0.14,1.94 0.42,2.84l0 -0c0.28,0.93 0.69,1.8 1.21,2.56z"></path><path fill="#5B5B5B" d="M69.57 62.38c0.53,0.78 0.37,1.88 -0.34,2.45 -0.72,0.57 -1.72,0.41 -2.25,-0.37 -0.74,-1.1 -1.31,-2.29 -1.69,-3.54l0 -0.01c-0.38,-1.27 -0.58,-2.6 -0.58,-3.94 0,-3.48 1.3,-6.64 3.39,-8.92 2.1,-2.28 4.99,-3.7 8.19,-3.7 0.89,0 1.62,0.79 1.62,1.76 0,0.97 -0.72,1.76 -1.62,1.76 -2.31,0 -4.39,1.02 -5.9,2.66 -1.51,1.65 -2.44,3.92 -2.44,6.43 0,0.98 0.14,1.94 0.42,2.84l0 -0c0.28,0.93 0.69,1.8 1.21,2.56z"></path></svg>