<svg xmlns="http://www.w3.org/2000/svg" width="81.267mm" height="81.267mm" version="1.1" viewBox="0 0 119.47 119.47"><path fill="#2B2A29" d="M65.11 52.41c0.84,-3.04 21.86,-7.14 26.96,-0.46 3.13,6.91 -16.3,19.9 -24.58,10.51 -2.88,-3.27 -4.05,-7.04 -2.38,-10.05z"></path><path fill="#2B2A29" d="M54.36 52.41c-0.84,-3.04 -21.86,-7.14 -26.96,-0.46 -3.13,6.91 16.3,19.9 24.58,10.51 2.88,-3.27 4.05,-7.04 2.38,-10.05z"></path><rect fill="#2B2A29" x="53.55" y="53.2" width="12" height="0.62"></rect><rect fill="#727271" x="57.64" y="53.26" width="3.81" height="0.29"></rect><path fill="#727271" d="M72.2 51.2c-0.31,-0.04 -0.73,0.48 -0.93,1.01l-0.04 0.12 -0.01 0.02 -0.82 2.28 -1.79 4.95c-0.19,0.53 -0.09,0.94 0.23,0.92l1.46 -0.1c0.32,-0.02 0.73,-0.48 0.93,-1.01l1.44 -3.99c-3.6,0.53 2.28,-3.88 -0.46,-4.21z"></path><path fill="#727271" d="M36.4 51.2c-0.31,-0.04 -0.73,0.48 -0.93,1.01l-0.04 0.12 -0.01 0.02 -0.82 2.28 -1.79 4.95c-0.19,0.53 -0.09,0.94 0.23,0.92l1.46 -0.1c0.32,-0.02 0.73,-0.48 0.93,-1.01l1.44 -3.99c-3.6,0.53 2.28,-3.88 -0.46,-4.21z"></path></svg>