<svg xmlns="http://www.w3.org/2000/svg" width="81.267mm" height="81.267mm" version="1.1" viewBox="0 0 119.47 119.47"><g><g><path fill="#5B5B5B" d="M54.19 47.55c1.9,0.14 1.99,1.55 1.99,2.95l3.8 0 3.8 0c-0,-1.4 0.09,-2.81 1.99,-2.95 9.06,-0.44 18.52,-1.46 27.59,-1.12 0.82,0.03 1.33,0.78 1.37,1.26 0.1,1.22 0.1,2.05 0.16,3.06l-4.38 -0c-0.33,-0.65 -0.89,-1.08 -1.86,-1.11 -6.14,0.3 -12.46,0.27 -18.59,0.71 -1.31,0.09 -2.31,0.09 -3.01,0.38l-2.53 -0 0 3.65 -4.53 0 -4.53 0 0 -3.65 -2.53 0c-0.7,-0.29 -1.71,-0.29 -3.01,-0.38 -6.13,-0.44 -12.45,-0.41 -18.59,-0.71 -0.97,0.03 -1.53,0.46 -1.86,1.11l-4.38 0c0.06,-1.01 0.06,-1.85 0.16,-3.06 0.04,-0.48 0.55,-1.22 1.37,-1.26 9.07,-0.34 18.53,0.68 27.59,1.12z"></path><path fill="#434242" d="M54.19 48.03c2.08,0.15 1.99,1.83 1.98,3.35l3.74 0 0.12 0 3.74 0c-0,-1.52 -0.09,-3.2 1.98,-3.35 9.06,-0.44 18.52,-1.46 27.59,-1.12 0.82,0.03 1.33,0.78 1.37,1.26 0.15,1.71 0.18,2.61 0.3,4.42 -1.25,0.21 -1.65,1.02 -1.67,2.1 -0.14,2.51 -0.29,5.02 -0.43,7.53 -0.09,1.49 -0.52,3.72 -2.39,3.83 -5.37,0.31 -10.74,0.62 -16.11,0.93 -0.96,0.06 -2.72,0.09 -3.37,-0.77 -2.61,-3.47 -4.66,-7.47 -7.27,-10.94l-3.74 0 -0.12 0 -3.74 0c-2.61,3.47 -4.66,7.47 -7.27,10.94 -0.65,0.86 -2.41,0.82 -3.37,0.77 -5.37,-0.31 -10.74,-0.62 -16.11,-0.93 -1.87,-0.11 -2.3,-2.33 -2.39,-3.83 -0.14,-2.51 -0.29,-5.02 -0.43,-7.53 -0.01,-1.08 -0.42,-1.89 -1.67,-2.1 0.12,-1.81 0.15,-2.71 0.3,-4.42 0.04,-0.48 0.55,-1.22 1.37,-1.26 9.07,-0.34 18.53,0.68 27.59,1.12zm34.45 1.6c-6.14,0.3 -12.46,0.27 -18.59,0.71 -2.93,0.21 -4.35,-0.09 -4.19,3.63 0.13,3.15 4.42,8.84 8.8,10.63 0.56,0.23 8.75,-0.22 9.82,-0.31 3.01,-0.24 5.32,-0.81 5.61,-1.46 0.37,-0.95 0.59,-2.1 0.7,-3.4 0.09,-1.01 0.28,-2.92 0.22,-4.78 -0.08,-2.43 0.04,-4.94 -2.38,-5.03zm-57.33 0c6.14,0.3 12.46,0.27 18.59,0.71 2.93,0.21 4.35,-0.09 4.19,3.63 -0.13,3.15 -4.42,8.84 -8.8,10.63 -0.56,0.23 -8.75,-0.22 -9.82,-0.31 -3.01,-0.24 -5.32,-0.81 -5.61,-1.46 -0.37,-0.95 -0.59,-2.1 -0.7,-3.4 -0.09,-1.01 -0.28,-2.92 -0.22,-4.78 0.08,-2.43 -0.04,-4.94 2.38,-5.03z"></path><ellipse fill="#434242" cx="27.2" cy="48.92" rx="0.81" ry="1.09"></ellipse><ellipse fill="#727271" cx="27.22" cy="48.81" rx="0.78" ry="0.98"></ellipse><ellipse fill="#D9DADA" cx="27.22" cy="48.28" rx="0.26" ry="0.17"></ellipse><ellipse fill="#434242" cx="92.76" cy="48.92" rx="0.81" ry="1.09"></ellipse><ellipse fill="#727271" cx="92.73" cy="48.81" rx="0.78" ry="0.98"></ellipse><ellipse fill="#D9DADA" cx="92.74" cy="48.28" rx="0.26" ry="0.17"></ellipse></g><path fill="#EBECEC" d="M43.27 52.51c-0.06,-0.54 -0.86,-0.98 -1.6,-1.02l-0.17 -0.01 -0.03 -0 -3.18 -0.17 -6.9 -0.36c-0.74,-0.04 -1.23,0.36 -1.09,0.88l0.64 2.39c0.14,0.52 0.86,0.98 1.6,1.02l5.56 0.29c-1.93,-5.77 5.73,1.76 5.18,-3.02z"></path><path fill="#EBECEC" d="M80.26 51.98c-0.1,-0.53 -0.92,-0.92 -1.66,-0.91l-0.17 0 -0.03 0 -3.18 0.04 -6.91 0.09c-0.74,0.01 -1.2,0.44 -1.03,0.95l0.8 2.35c0.17,0.51 0.92,0.92 1.66,0.91l5.57 -0.07c-2.3,-5.64 5.83,1.38 4.97,-3.36z"></path></g></svg>