<svg xmlns="http://www.w3.org/2000/svg" width="81.267mm" height="81.267mm" version="1.1" viewBox="0 0 119.47 119.47"><g><path fill="#898989" d="M46.03 44.38c-1.57,-0.26 -3.06,-0.36 -4.45,-0.31 -3,0.11 -5.53,0.95 -7.43,2.44 -1.91,1.5 -3.17,3.65 -3.63,6.39 -0.16,0.94 -0.22,1.95 -0.18,3.02 0.16,4.35 1.15,7.6 3.04,9.92 1.9,2.33 4.68,3.7 8.42,4.28 3.9,0.6 7.54,0.07 10.38,-1.74 2.6,-1.66 4.51,-4.4 5.31,-8.32 0.05,-0.26 0.1,-0.51 0.14,-0.74 0.63,-3.77 0.1,-7.03 -1.66,-9.57 -1.76,-2.54 -4.75,-4.34 -9.05,-5.21 -0.3,-0.06 -0.59,-0.11 -0.88,-0.16zm-4.42 0.42c1.34,-0.05 2.78,0.05 4.3,0.3 0.3,0.05 0.59,0.1 0.86,0.16 4.1,0.83 6.94,2.53 8.59,4.91 1.65,2.38 2.14,5.45 1.54,9.03 -0.04,0.25 -0.09,0.49 -0.13,0.72 -0.75,3.71 -2.54,6.28 -4.98,7.84 -2.68,1.71 -6.15,2.21 -9.87,1.63 -3.55,-0.55 -6.19,-1.84 -7.96,-4.02 -1.78,-2.19 -2.72,-5.3 -2.88,-9.49 -0.04,-1.02 0.02,-1.98 0.17,-2.88 0.42,-2.55 1.59,-4.55 3.36,-5.93 1.77,-1.39 4.16,-2.17 7,-2.28z"></path><path fill="#EBECEC" d="M50.85 47.84l-2.48 0c-0.54,0 -1.17,0.58 -1.4,1.28l-1.66 5.1 -3.92 0c-0.54,0 -1.17,0.58 -1.4,1.28l-0.05 0.16 -0.01 0.03 -0.98 3.03 -2.14 6.57c-0.23,0.7 0.03,1.28 0.57,1.28l2.48 0c0.54,0 1.17,-0.58 1.4,-1.28l1.72 -5.29 1.44 0 2.48 0c0.54,0 1.17,-0.58 1.4,-1.28l1.05 -3.22 0.01 -0.03 2.06 -6.35c0.23,-0.7 -0.03,-1.28 -0.57,-1.28z"></path></g><g><path fill="#898989" d="M76.2 44.38c1.57,-0.26 3.06,-0.36 4.45,-0.31 3,0.11 5.53,0.95 7.43,2.44 1.91,1.5 3.17,3.65 3.63,6.39 0.16,0.94 0.22,1.95 0.18,3.02 -0.16,4.35 -1.15,7.6 -3.04,9.92 -1.9,2.33 -4.68,3.7 -8.42,4.28 -3.9,0.6 -7.54,0.07 -10.38,-1.74 -2.6,-1.66 -4.51,-4.4 -5.31,-8.32 -0.05,-0.26 -0.1,-0.51 -0.14,-0.74 -0.63,-3.77 -0.1,-7.03 1.66,-9.57 1.76,-2.54 4.75,-4.34 9.05,-5.21 0.3,-0.06 0.59,-0.11 0.88,-0.16zm4.42 0.42c-1.34,-0.05 -2.78,0.05 -4.3,0.3 -0.3,0.05 -0.59,0.1 -0.86,0.16 -4.1,0.83 -6.94,2.53 -8.59,4.91 -1.65,2.38 -2.14,5.45 -1.54,9.03 0.04,0.25 0.09,0.49 0.13,0.72 0.75,3.71 2.54,6.28 4.98,7.84 2.68,1.71 6.15,2.21 9.87,1.63 3.55,-0.55 6.19,-1.84 7.96,-4.02 1.78,-2.19 2.72,-5.3 2.88,-9.49 0.04,-1.02 -0.02,-1.98 -0.17,-2.88 -0.42,-2.55 -1.59,-4.55 -3.36,-5.93 -1.77,-1.39 -4.16,-2.17 -7,-2.28z"></path><path fill="#EBECEC" d="M84.85 47.84l-2.48 0c-0.54,0 -1.17,0.58 -1.4,1.28l-1.66 5.1 -3.92 0c-0.54,0 -1.17,0.58 -1.4,1.28l-0.05 0.16 -0.01 0.03 -0.98 3.03 -2.14 6.57c-0.23,0.7 0.03,1.28 0.57,1.28l2.48 0c0.54,0 1.17,-0.58 1.4,-1.28l1.72 -5.29 1.44 0 2.48 0c0.54,0 1.17,-0.58 1.4,-1.28l1.05 -3.22 0.01 -0.03 2.06 -6.35c0.23,-0.7 -0.03,-1.28 -0.57,-1.28z"></path></g><rect fill="#898989" x="41.72" y="44.07" width="37.85" height="0.72"></rect></svg>