<svg xmlns="http://www.w3.org/2000/svg" width="81.267mm" height="81.267mm" version="1.1" viewBox="0 0 119.47 119.47"><path fill="#C5C6C6" d="M44.36 45.62c4.78,0 8.89,2.82 10.78,6.89 0.25,-0.17 0.5,-0.33 0.76,-0.46 2.3,-1.23 5.87,-1.23 8.16,0 0.26,0.14 0.51,0.29 0.76,0.46 1.89,-4.07 6,-6.89 10.78,-6.89 5.24,0 9.69,3.39 11.26,8.1l2.98 0c0.52,0 0.94,0.42 0.94,0.94l0 2.56c0,0.52 -0.42,0.94 -0.94,0.94l-2.38 0c-0.35,6.25 -5.52,11.21 -11.86,11.21 -6.56,0 -11.88,-5.32 -11.88,-11.88 0,-0.61 0.05,-1.2 0.13,-1.78 -0.4,-0.42 -0.82,-0.73 -1.24,-0.96 -1.41,-0.75 -3.86,-0.75 -5.27,0 -0.42,0.22 -0.84,0.54 -1.24,0.96 0.09,0.58 0.13,1.18 0.13,1.78 0,6.56 -5.32,11.88 -11.88,11.88 -6.33,0 -11.51,-4.96 -11.86,-11.21l-2.38 0c-0.52,0 -0.94,-0.42 -0.94,-0.94l0 -2.56c0,-0.52 0.42,-0.94 0.94,-0.94l2.98 0c1.58,-4.71 6.02,-8.1 11.26,-8.1z"></path><circle fill="#2B2A29" cx="75.59" cy="57.5" r="9.34"></circle><path fill="#D9DADA" d="M44.36 47.67c2.81,0 5.36,1.1 7.2,2.89 1.84,1.78 2.97,4.24 2.97,6.95 0,2.71 -1.14,5.17 -2.97,6.95 -1.84,1.78 -4.38,2.89 -7.2,2.89 -2.81,0 -5.36,-1.1 -7.2,-2.89 -1.84,-1.78 -2.97,-4.24 -2.97,-6.95 0,-2.71 1.14,-5.17 2.97,-6.95 1.84,-1.78 4.38,-2.89 7.2,-2.89zm31.24 0c-2.81,0 -5.36,1.1 -7.2,2.89 -1.84,1.78 -2.97,4.24 -2.97,6.95 0,2.71 1.14,5.17 2.97,6.95 1.84,1.78 4.38,2.89 7.2,2.89 2.81,0 5.36,-1.1 7.2,-2.89 1.84,-1.78 2.97,-4.24 2.97,-6.95 0,-2.71 -1.14,-5.17 -2.97,-6.95 -1.84,-1.78 -4.38,-2.89 -7.2,-2.89zm-11.13 7.41c-0.33,-0.34 -0.68,-0.63 -1.07,-0.86 -0.9,-0.55 -1.99,-0.85 -3.25,-0.89 -1.34,0.02 -2.64,0.31 -3.59,0.89 -0.39,0.24 -0.75,0.53 -1.07,0.86 0.18,0.78 0.27,1.59 0.27,2.42 0,3.06 -1.28,5.83 -3.35,7.83 -2.06,2 -4.91,3.24 -8.06,3.24 -3.14,0 -5.99,-1.24 -8.06,-3.24 -2.07,-2 -3.35,-4.77 -3.35,-7.83 0,-0.12 0,-0.23 0.01,-0.35l-2.42 0c-0.28,0 -0.51,-0.23 -0.51,-0.51l0 -1.39c0,-0.28 0.23,-0.51 0.51,-0.51l2.77 0c0.52,-1.95 1.57,-3.69 2.99,-5.07 2.06,-2 4.91,-3.24 8.06,-3.24 3.14,0 5.99,1.24 8.06,3.24 1.18,1.14 2.1,2.54 2.68,4.09 0.26,-0.22 0.53,-0.42 0.82,-0.59 1.1,-0.68 2.54,-1.03 4.07,-1.07l0 -0 0.12 0 0 0c1.52,0.04 2.84,0.39 3.94,1.07 0.29,0.18 0.56,0.38 0.82,0.59 0.58,-1.55 1.5,-2.95 2.68,-4.09 2.06,-2 4.91,-3.24 8.06,-3.24 3.14,0 5.99,1.24 8.06,3.24 1.42,1.38 2.47,3.12 2.99,5.07l2.77 0c0.28,0 0.51,0.23 0.51,0.51l0 1.39c0,0.28 -0.23,0.51 -0.51,0.51l-2.42 0c0,0.11 0.01,0.23 0.01,0.35 0,3.06 -1.28,5.83 -3.35,7.83 -2.06,2 -4.91,3.24 -8.06,3.24 -3.14,0 -5.99,-1.24 -8.06,-3.24 -2.07,-2 -3.35,-4.77 -3.35,-7.83 0,-0.83 0.09,-1.64 0.27,-2.42z"></path><circle fill="#2B2A29" cx="44.36" cy="57.5" r="9.34"></circle><path fill="#5B5B5B" d="M39.04 60.47c0.3,0.45 0.21,1.07 -0.2,1.4 -0.41,0.33 -0.99,0.23 -1.29,-0.21 -0.42,-0.63 -0.75,-1.31 -0.97,-2.03l0 -0c-0.22,-0.72 -0.33,-1.48 -0.33,-2.25 0,-1.99 0.74,-3.8 1.94,-5.1 1.2,-1.31 2.85,-2.11 4.68,-2.11 0.51,0 0.93,0.45 0.93,1.01 0,0.56 -0.41,1.01 -0.93,1.01 -1.32,0 -2.51,0.58 -3.38,1.52 -0.86,0.94 -1.4,2.24 -1.4,3.68 0,0.56 0.08,1.11 0.24,1.63l0 -0c0.16,0.53 0.39,1.03 0.69,1.47z"></path><path fill="#5B5B5B" d="M70.95 60.47c0.3,0.45 0.21,1.07 -0.2,1.4 -0.41,0.33 -0.99,0.23 -1.29,-0.21 -0.43,-0.63 -0.75,-1.31 -0.97,-2.03l0 -0c-0.22,-0.72 -0.33,-1.48 -0.33,-2.25 0,-1.99 0.74,-3.8 1.94,-5.1 1.2,-1.31 2.85,-2.11 4.68,-2.11 0.51,0 0.93,0.45 0.93,1.01 0,0.56 -0.41,1.01 -0.93,1.01 -1.32,0 -2.51,0.58 -3.38,1.52 -0.86,0.94 -1.4,2.24 -1.4,3.68 0,0.56 0.08,1.11 0.24,1.63l0 -0c0.16,0.53 0.39,1.03 0.69,1.47z"></path></svg>