<svg xmlns="http://www.w3.org/2000/svg" width="81.267mm" height="81.267mm" version="1.1" viewBox="0 0 119.47 119.47"><path fill="#434242" d="M26.86 66.32l20.86 0 0 6.31c-8.17,0.14 -15.3,-1.59 -20.86,-6.31z"></path><path fill="#434242" d="M92.83 66.32l-20.86 0 0 6.31c8.17,0.14 15.3,-1.59 20.86,-6.31z"></path><path fill="#5B5B5B" d="M92.83 66.32l-20.86 6.31c-9.87,0 -8.81,-4.06 -12.12,-4.06 -3.31,0 -2.25,4.06 -12.12,4.06l-20.86 -6.31 15.15 -21.25 -15.15 0c6.68,-1.95 11.89,-4.78 18.44,-3.43 7.33,1.52 22.13,1.38 29.14,-0.28 6,-1.42 12.47,2.02 18.35,3.76l-15.1 -0.06 15.14 21.25z"></path><path fill="#B2B3B3" d="M30.97 45.9l7.24 0c0.45,0 0.82,-0.37 0.82,-0.82l0 -0c0,-0.45 -0.37,-0.82 -0.82,-0.82l-7.24 0c-0.45,0 -0.82,0.37 -0.82,0.82l0 0c0,0.45 0.37,0.82 0.82,0.82z"></path><path fill="#9D9E9E" d="M39.03 45.07c0,-0.12 -0.02,-0.23 -0.07,-0.33l-8.75 0c-0.04,0.1 -0.07,0.21 -0.07,0.33l8.89 0z"></path><path fill="#B2B3B3" d="M41.15 45.9l7.24 0c0.45,0 0.82,-0.37 0.82,-0.82l0 -0c0,-0.45 -0.37,-0.82 -0.82,-0.82l-7.24 0c-0.45,0 -0.82,0.37 -0.82,0.82l0 0c0,0.45 0.37,0.82 0.82,0.82z"></path><path fill="#9D9E9E" d="M41.15 45.9l7.24 0c0.45,0 0.82,-0.37 0.82,-0.82 0,-0.12 -0.02,-0.23 -0.07,-0.33l-8.75 0c-0.04,0.1 -0.07,0.21 -0.07,0.33 0,0.45 0.37,0.82 0.82,0.82z"></path><path fill="#898989" d="M30.97 67.15l7.24 0c0.45,0 0.82,-0.37 0.82,-0.82l0 -0c0,-0.45 -0.37,-0.82 -0.82,-0.82l-7.24 0c-0.45,0 -0.82,0.37 -0.82,0.82l0 0c0,0.45 0.37,0.82 0.82,0.82z"></path><path fill="#898989" d="M41.15 67.15l7.24 0c0.45,0 0.82,-0.37 0.82,-0.82l0 -0c0,-0.45 -0.37,-0.82 -0.82,-0.82l-7.24 0c-0.45,0 -0.82,0.37 -0.82,0.82l0 0c0,0.45 0.37,0.82 0.82,0.82z"></path><path fill="#727271" d="M39.03 66.32c0,0.12 -0.02,0.23 -0.07,0.33l-8.75 0c-0.04,-0.1 -0.07,-0.21 -0.07,-0.33l8.89 0z"></path><path fill="#727271" d="M41.15 65.5l7.24 0c0.45,0 0.82,0.37 0.82,0.82 0,0.12 -0.02,0.23 -0.07,0.33l-8.75 0c-0.04,-0.1 -0.07,-0.21 -0.07,-0.33 0,-0.45 0.37,-0.82 0.82,-0.82z"></path><path fill="#434242" d="M49.2 64.06c-0.96,0.36 -2,0.55 -3.09,0.55l-19.26 0 0 -16.82 17.58 -0.01c4.88,0 8.83,3.96 8.83,8.83 0,3.12 -1.62,5.87 -4.07,7.44z"></path><path fill="#5B5B5B" d="M34.59 53.26c-0.54,0 -1.16,0.57 -1.39,1.27l-0.05 0.16 -0.01 0.03 -0.97 3 -2.12 6.51c-0.23,0.7 0.03,1.27 0.56,1.27l2.45 0c0.54,0 1.16,-0.57 1.39,-1.27l1.7 -5.24c5.32,0 25.04,-5.73 -1.56,-5.73z"></path><path fill="#D9DADA" d="M26.86 45.07l20.07 0c5.87,0 10.62,4.76 10.62,10.63 0,5.87 -4.76,10.62 -10.62,10.62l-20.07 0 0 -1.71 19.26 0c1.09,0 2.13,-0.2 3.09,-0.55 3.36,-1.25 5.75,-4.49 5.75,-8.28 0,-4.88 -3.96,-8.83 -8.83,-8.83l-19.26 0 0 -1.87z"></path><rect fill="#FEFEFE" x="27.73" y="48.33" width="1.56" height="9.94" rx="0.78" ry="0.78"></rect><path fill="#2B2A29" d="M26.85 46.94l19.26 -0c4.88,0 8.83,3.96 8.83,8.83 0,3.79 -2.39,7.03 -5.75,8.28 2.45,-1.57 4.07,-4.32 4.07,-7.44 0,-4.88 -3.96,-8.83 -8.83,-8.83l-17.58 0.01 0 0.19 -0 -1.04z"></path><rect fill="#FEFEFE" x="29.76" y="49.95" width="0.48" height="1.04" rx="0.24" ry="0.08"></rect><rect fill="#FEFEFE" x="27.78" y="59.96" width="1.46" height="3.13" rx="0.73" ry="0.25"></rect><path fill="#B2B3B3" d="M88.68 45.9l-7.24 0c-0.45,0 -0.82,-0.37 -0.82,-0.82l0 -0c0,-0.45 0.37,-0.82 0.82,-0.82l7.24 0c0.45,0 0.82,0.37 0.82,0.82l0 0c0,0.45 -0.37,0.82 -0.82,0.82z"></path><path fill="#9D9E9E" d="M80.62 45.07c0,-0.12 0.02,-0.23 0.07,-0.33l8.75 0c0.04,0.1 0.07,0.21 0.07,0.33l-8.89 0z"></path><path fill="#B2B3B3" d="M78.49 45.9l-7.24 0c-0.45,0 -0.82,-0.37 -0.82,-0.82l0 -0c0,-0.45 0.37,-0.82 0.82,-0.82l7.24 0c0.45,0 0.82,0.37 0.82,0.82l0 0c0,0.45 -0.37,0.82 -0.82,0.82z"></path><path fill="#9D9E9E" d="M78.49 45.9l-7.24 0c-0.45,0 -0.82,-0.37 -0.82,-0.82 0,-0.12 0.02,-0.23 0.07,-0.33l8.75 0c0.04,0.1 0.07,0.21 0.07,0.33 0,0.45 -0.37,0.82 -0.82,0.82z"></path><path fill="#898989" d="M88.68 67.15l-7.24 0c-0.45,0 -0.82,-0.37 -0.82,-0.82l0 -0c0,-0.45 0.37,-0.82 0.82,-0.82l7.24 0c0.45,0 0.82,0.37 0.82,0.82l0 0c0,0.45 -0.37,0.82 -0.82,0.82z"></path><path fill="#898989" d="M78.49 67.15l-7.24 0c-0.45,0 -0.82,-0.37 -0.82,-0.82l0 -0c0,-0.45 0.37,-0.82 0.82,-0.82l7.24 0c0.45,0 0.82,0.37 0.82,0.82l0 0c0,0.45 -0.37,0.82 -0.82,0.82z"></path><path fill="#727271" d="M80.62 66.32c0,0.12 0.02,0.23 0.07,0.33l8.75 0c0.04,-0.1 0.07,-0.21 0.07,-0.33l-8.89 0z"></path><path fill="#727271" d="M78.49 65.5l-7.24 0c-0.45,0 -0.82,0.37 -0.82,0.82 0,0.12 0.02,0.23 0.07,0.33l8.75 0c0.04,-0.1 0.07,-0.21 0.07,-0.33 0,-0.45 -0.37,-0.82 -0.82,-0.82z"></path><path fill="#434242" d="M70.44 64.06c0.96,0.36 2,0.55 3.09,0.55l19.26 0 -0 -16.82 -17.58 -0.01c-4.88,0 -8.83,3.96 -8.83,8.83 0,3.12 1.62,5.87 4.07,7.44z"></path><rect fill="#FEFEFE" x="90.36" y="48.33" width="1.56" height="9.94" rx="0.78" ry="0.78"></rect><path fill="#2B2A29" d="M92.79 46.94l-19.26 -0c-4.88,0 -8.83,3.96 -8.83,8.83 0,3.79 2.39,7.03 5.75,8.28 -2.45,-1.57 -4.07,-4.32 -4.07,-7.44 0,-4.88 3.96,-8.83 8.83,-8.83l17.58 0.01 0 0.19 0 -1.04z"></path><rect fill="#FEFEFE" x="89.4" y="49.95" width="0.48" height="1.04" rx="0.24" ry="0.08"></rect><rect fill="#FEFEFE" x="90.41" y="59.96" width="1.46" height="3.13" rx="0.73" ry="0.25"></rect><path fill="#5B5B5B" d="M75.25 53.26c-0.54,0 -1.16,0.57 -1.39,1.27l-0.05 0.16 -0.01 0.03 -0.97 3 -2.12 6.51c-0.23,0.7 0.03,1.27 0.56,1.27l2.45 0c0.54,0 1.16,-0.57 1.39,-1.27l1.7 -5.24c5.32,0 25.04,-5.73 -1.56,-5.73z"></path><path fill="#D9DADA" d="M92.79 45.07l-20.07 0c-5.87,0 -10.62,4.76 -10.62,10.63 0,5.87 4.76,10.62 10.62,10.62l20.07 0 0 -1.71 -19.26 0c-1.09,0 -2.13,-0.2 -3.09,-0.55 -3.36,-1.25 -5.75,-4.49 -5.75,-8.28 0,-4.88 3.96,-8.83 8.83,-8.83l19.26 0 0 -1.87z"></path></svg>