<svg xmlns="http://www.w3.org/2000/svg" width="81.267mm" height="81.267mm" version="1.1" viewBox="0 0 123.09 123.09"><g><path fill="#ED736A" d="M88.47 64.49c1.66,2.11 -9.45,9.71 -12.19,6 -2.22,-3 9.26,-9.72 12.19,-6z"></path><path fill="#ED736A" d="M35.05 64.49c-1.63,2.11 9.27,9.71 11.96,6 2.18,-3 -9.09,-9.72 -11.96,-6z"></path><g><path fill="#E08A2F" d="M72.56 58.41c0,0 -2.08,2.66 -1.33,5.75 0.75,3.08 2.49,3.42 3.91,2.58 1.41,-0.83 1.66,-6.58 1.66,-6.58l-4.24 -1.75z"></path><path fill="#E08A2F" d="M53.36 60.08c0,0 1.66,3.33 -0.42,6.5 -2.08,3.17 -3.24,0.83 -3.24,0.83l-1.66 -5.5 5.32 -1.83z"></path><path fill="#874123" d="M46.79 55.41c-6.43,-1.47 -10.22,1.42 -10.72,3.25 -0.5,1.83 1.16,2.67 1.16,2.67 0,0 4.07,0.17 7.98,2.67 3.91,2.5 4.57,3.67 4.57,3.67 0,0 3.82,-1.5 3.91,-5.25 0.08,-3.75 -2.16,-5.92 -6.9,-7z"></path><path fill="#874123" d="M87.44 61.33c0,0 1.74,-1.24 1.16,-3.42 -0.75,-2.83 -7.15,-4.5 -12.55,-2.33 -6.48,2.6 -5.07,10.33 -0.91,11.25 0,0 4.82,-5 12.3,-5.5z"></path><path fill="#56291F" d="M71.73 62.93c0,0 0.67,1.63 1.74,1.99 1.21,0.4 1.95,-0.05 2.91,-0.6 1.72,-0.98 5.2,-3 7.86,-3.58 4.52,-0.99 4.43,-1.65 4.49,-1.96 0,0 0.21,1.4 -1.25,2.56 0,0 -3.57,0.33 -6.69,1.77 -3.12,1.44 -5.61,3.71 -5.61,3.71 0,0 -2.68,-0.06 -3.45,-3.89z"></path><path fill="#56291F" d="M53.03 64.85c0,0 -0.91,2.1 -3.26,2.83 0,0 -2.73,-2.88 -6.77,-4.75 -3.12,-1.44 -5.8,-1.6 -5.8,-1.6 0,0 -1,-0.42 -1.16,-1.52 0,0 0.8,0.52 2.22,0.67 1.42,0.15 4.86,1.07 7,2.19 2.14,1.11 3.7,2.65 4.7,2.83 2.06,0.36 3.08,-0.64 3.08,-0.64z"></path><path fill="#BA5E29" d="M47.12 56.39c2.34,0.37 4.27,2.78 3.27,4.11 -1,1.33 -4.21,-0.44 -5.71,-0.78 -1.5,-0.33 -3.71,-0.56 -3.6,-1.5 0.17,-1.44 2.88,-2.33 6.04,-1.83z"></path><path fill="#BA5E29" d="M36.65 58.39c0,0 -0.33,1.72 1.05,2.17 1.39,0.44 2.77,0.33 2.77,0.33 0,0 -2.6,-0.17 -3.82,-2.5z"></path><path fill="#BA5E29" d="M47.12 63.83c0,0 1.88,1.94 3.55,1.89 1.66,-0.06 2.33,-0.83 2.33,-0.83 0,0 -2.55,0.83 -5.87,-1.06z"></path><path fill="#BA5E29" d="M76.63 56.32c-2.32,0.63 -4.01,3.23 -2.86,4.45 1.15,1.22 4.21,-0.9 5.68,-1.4 1.48,-0.5 3.69,-0.97 3.48,-1.89 -0.32,-1.42 -3.16,-2 -6.3,-1.16z"></path><path fill="#BA5E29" d="M88.63 58.05c0,0 0.36,1.59 -0.97,2.22 -1.63,0.78 -3.13,0.28 -3.13,0.28 0,0 3.27,-0.06 4.1,-2.5z"></path><path fill="#BA5E29" d="M78.38 63.22c0,0 -1.82,2 -3.51,1.94 -1.69,-0.06 -2.36,-0.83 -2.36,-0.83 0,0 2.5,0.78 5.87,-1.11z"></path><path fill="#FEFEFE" d="M49.78 57.33c1.49,0.52 1.66,2.33 0.08,1.92 -1.58,-0.42 -1.75,-2.5 -0.08,-1.92z"></path><path fill="#FEFEFE" d="M39.98 58.33c1.42,0 1.08,1.17 0.25,1.33 -0.83,0.17 -2.08,-1.33 -0.25,-1.33z"></path><path fill="#FEFEFE" d="M42.47 59.66c0.53,0 0.08,0.67 -0.42,0.58 -0.5,-0.08 -0.17,-0.58 0.42,-0.58z"></path><path fill="#FEFEFE" d="M74.97 57.08c-1.52,0.52 -1.69,2.33 -0.08,1.92 1.61,-0.42 1.78,-2.5 0.08,-1.92z"></path><path fill="#FEFEFE" d="M84.95 58.08c-1.45,0 -1.1,1.17 -0.25,1.33 0.85,0.17 2.11,-1.33 0.25,-1.33z"></path><path fill="#FEFEFE" d="M82.42 59.41c-0.54,0 -0.08,0.67 0.42,0.58 0.51,-0.08 0.17,-0.58 -0.42,-0.58z"></path></g></g></svg>