<svg xmlns="http://www.w3.org/2000/svg" width="81.267mm" height="81.267mm" version="1.1" viewBox="0 0 123.09 123.09"><g><path fill="#E08A2F" d="M37.7 62.04c0,0 -1.54,6.37 4.53,7.29 6.07,0.92 10.14,-2.43 10.15,-7.04 0.01,-4.61 -2.23,-11.61 -2.23,-11.61l-12.46 11.36z"></path><path fill="#874123" d="M47.55 47.01c4.04,-0.16 4.62,10.82 3.9,15.26 -0.71,4.43 -4.21,5.99 -8.79,5.74 -3.48,-0.19 -5.58,-2.79 -5.18,-6.85 0.39,-4.06 3.61,-13.89 10.06,-14.14z"></path><path fill="#56291F" d="M51.66 57.96c0,0 -0.48,5.7 -3.85,7.31 -3.37,1.61 -7.26,1.53 -8.86,-0.63 -1.25,-1.7 -1.36,-4.35 -1.36,-4.35 0,0 -0.8,3.05 0.68,5.59 1.48,2.54 4.63,2.59 7.28,2.2 2.66,-0.39 4.96,-1.99 5.71,-4.37 0.75,-2.38 0.4,-5.75 0.4,-5.75z"></path><path fill="#BA5E29" d="M44.24 49.63c2.66,-0.75 4.1,8.97 0.1,10.86 -4,1.89 -5.36,-0.29 -4.7,-2.97 0.66,-2.67 2.34,-7.26 4.61,-7.89z"></path><path fill="#BA5E29" d="M50.83 61.63c0,0 -0.92,5.06 -6,4.79 0,0 3.95,-0.95 6,-4.79z"></path><path fill="#FEFEFE" d="M43.32 50.04c0.67,0.03 -0.4,2.01 -0.86,2.81 -0.46,0.81 -1.36,0.93 -1.47,0.45 -0.12,-0.48 0.97,-3.31 2.33,-3.26z"></path><path fill="#FEFEFE" d="M40.53 54.66c0.48,-0.12 0.6,0.97 0.1,1 -0.5,0.03 -0.71,-0.85 -0.1,-1z"></path></g><g><path fill="#E08A2F" d="M72.07 54.59c0,0 -2.78,9.01 0.08,12.71 2.86,3.7 14.82,2.95 13.28,-4.03 -1.53,-6.99 -13.37,-8.67 -13.37,-8.67z"></path><path fill="#874123" d="M77.17 47.01c-6.09,-0.1 -7.41,17.33 -3.54,19.37 3.88,2.04 10.27,1.64 11.7,-1.81 1.43,-3.45 -1.77,-17.46 -8.16,-17.56z"></path><path fill="#56291F" d="M71.51 58.12c0,0 0.33,5.51 3.93,6.84 3.6,1.33 7.13,0.48 8.52,-0.52 1.38,-1 1.63,-3.19 1.63,-3.19 0,0 0.7,2.91 -1.32,4.81 -2.02,1.9 -7.34,2.36 -10.55,0.44 -3.21,-1.92 -2.32,-7.04 -2.22,-8.38z"></path><path fill="#BA5E29" d="M76.44 49.07c1.94,-0.55 6,9.31 1.88,10.58 -4.12,1.27 -5.05,-0.68 -4.88,-3.07 0.18,-2.4 0.89,-6.91 3,-7.51z"></path><path fill="#BA5E29" d="M85.33 62.59c0,0 -0.38,2.35 -2.14,2.87 -1.76,0.51 -4.06,0.31 -4.06,0.31 0,0 4.49,-0.51 6.2,-3.18z"></path><path fill="#FEFEFE" d="M75.04 49.69c0.77,-0.25 -0.02,2.46 -0.22,3.21 -0.2,0.75 -1.14,1.54 -1.42,0.76 -0.28,-0.78 0.54,-3.62 1.64,-3.98z"></path><path fill="#FEFEFE" d="M73.32 55.09c0.57,-0.29 0.96,0.86 0.35,1.05 -0.61,0.19 -0.89,-0.78 -0.35,-1.05z"></path></g></svg>