<svg xmlns="http://www.w3.org/2000/svg" width="81.267mm" height="81.267mm" version="1.1" viewBox="0 0 123.09 123.09"><g><path fill="#E08A2F" d="M52.77 60.19c0,0 0.61,2.91 -1.21,4.18 -1.82,1.26 -5.84,3.79 -10.17,1.26 -4.32,-2.52 -3.49,-5.34 -2.2,-7.48 0,0 0.83,4.37 3.49,5.73 2.65,1.36 6.98,-0.29 8.04,-1.07 1.06,-0.78 2.05,-2.62 2.05,-2.62z"></path><path fill="#56291F" d="M46.6 52.42c-2.51,-0.09 -4.59,0.45 -5.33,-0.16 -0.22,0.22 -0.31,0.44 -0.13,0.91 -0.35,-0.23 -0.81,0.12 -1.11,-0.64 -0.47,1.06 -0.23,1.14 0.04,1.51 -0.75,-0.72 -0.85,-0.48 -1.13,-1.78 -2.56,5.89 -0.24,11.44 3.73,13.2 1.62,-2.22 2.32,-10.82 3.93,-13.04z"></path><path fill="#874123" d="M41.3 54.23c-3.08,2.26 -3.63,9.58 2.2,11.13 5.83,1.55 9.96,-3.1 9.36,-7.12 -0.54,-3.57 -5.34,-8.57 -11.56,-4.02z"></path><path fill="#56291F" d="M52.32 56.66c0,0 0.91,3.06 -1.98,5.23 -2.89,2.17 -7.26,1.87 -9,0.21 -1.94,-1.85 -2.11,-4.91 -1.53,-6.08 0,0 -1.36,1.74 -0.78,4.97 0.58,3.22 3.51,4.97 6.15,5.02 2.64,0.05 5.57,-1.22 6.98,-3.75 1.82,-3.28 0.16,-5.6 0.16,-5.6z"></path><path fill="#A74925" d="M50.6 61.63c0,0 -3.47,3.88 -8.75,0.78 0,0 2.7,0.63 4.57,0.49 1.87,-0.14 4.18,-1.27 4.18,-1.27z"></path><path fill="#A74925" d="M46.28 53.46c1.7,0.36 0.5,1.69 -0.94,3.24 -1.43,1.55 -3.63,2.61 -4.4,0.42 -0.77,-2.18 2.37,-4.3 5.34,-3.66z"></path><path fill="#FEFEFE" d="M45.98 52.89c0.95,0.19 0.51,1.31 -0.51,1.31 -1.02,0 -2.19,0.66 -2.49,0.09 -0.29,-0.56 1.61,-1.69 3,-1.4z"></path><path fill="#FEFEFE" d="M43.79 58.51c1.03,0.22 0.44,1.31 -0.37,1.12 -0.8,-0.19 -0.51,-1.31 0.37,-1.12z"></path><g><path fill="#E08A2F" d="M70.32 60.19c0,0 -0.61,2.91 1.21,4.18 1.82,1.26 5.84,3.79 10.17,1.26 4.32,-2.52 3.49,-5.34 2.2,-7.48 0,0 -0.83,4.37 -3.49,5.73 -2.65,1.36 -6.98,-0.29 -8.04,-1.07 -1.06,-0.78 -2.05,-2.62 -2.05,-2.62z"></path><path fill="#56291F" d="M76.49 52.42c2.51,-0.09 4.59,0.45 5.33,-0.16 0.22,0.22 0.31,0.44 0.13,0.91 0.35,-0.23 0.81,0.12 1.11,-0.64 0.47,1.06 0.23,1.14 -0.04,1.51 0.75,-0.72 0.85,-0.48 1.13,-1.78 2.56,5.89 0.24,11.44 -3.73,13.2 -1.62,-2.22 -2.32,-10.82 -3.93,-13.04z"></path><path fill="#874123" d="M81.79 54.23c3.08,2.26 3.63,9.58 -2.2,11.13 -5.83,1.55 -9.96,-3.1 -9.36,-7.12 0.54,-3.57 5.34,-8.57 11.56,-4.02z"></path><path fill="#56291F" d="M70.77 56.66c0,0 -0.91,3.06 1.98,5.23 2.89,2.17 7.26,1.87 9,0.21 1.94,-1.85 2.11,-4.91 1.53,-6.08 0,0 1.36,1.74 0.78,4.97 -0.58,3.22 -3.51,4.97 -6.15,5.02 -2.64,0.05 -5.57,-1.22 -6.98,-3.75 -1.82,-3.28 -0.16,-5.6 -0.16,-5.6z"></path><path fill="#A74925" d="M72.49 61.63c0,0 3.47,3.88 8.75,0.78 0,0 -2.7,0.63 -4.57,0.49 -1.87,-0.14 -4.18,-1.27 -4.18,-1.27z"></path><path fill="#A74925" d="M77.94 53.46c1.7,0.36 0.5,1.69 -0.94,3.24 -1.43,1.55 -3.63,2.61 -4.4,0.42 -0.77,-2.18 2.37,-4.3 5.34,-3.66z"></path><path fill="#FEFEFE" d="M77.64 52.89c0.95,0.19 0.51,1.31 -0.51,1.31 -1.02,0 -2.19,0.66 -2.49,0.09 -0.29,-0.56 1.61,-1.69 3,-1.4z"></path><path fill="#FEFEFE" d="M75.44 58.51c1.03,0.22 0.44,1.31 -0.37,1.12 -0.8,-0.19 -0.51,-1.31 0.37,-1.12z"></path></g></g></svg>