<svg xmlns="http://www.w3.org/2000/svg" width="81.267mm" height="81.267mm" version="1.1" viewBox="0 0 193.64 193.64"><g><path fill="#FABD63" d="M98.06 39.69c29.34,0.63 44.29,11.75 50.27,28.84 2.02,5.78 2.43,13.25 2.16,19.35 -0.39,8.81 -1.89,14.48 -0.9,25.58 0.56,6.33 1.4,8.8 -1.19,15.18 -8.99,22.17 -30.18,23.66 -46.82,24.48 -3.49,0.17 -6.38,0.15 -9.87,-0.03 -16.56,-0.84 -37.55,-2.51 -46.44,-24.45 -2.59,-6.38 -1.75,-8.86 -1.19,-15.18 0.99,-11.1 -0.51,-16.77 -0.9,-25.58 -0.27,-6.11 0.14,-13.58 2.16,-19.35 5.99,-17.15 21.02,-28.28 50.55,-28.85 0.74,-0.01 1.46,-0.01 2.2,0.01z"></path><path fill="#E08A2F" d="M91.62 153.82c-16.56,-0.84 -37.48,-3.23 -46.37,-25.17 -0.92,-2.28 -1.41,-4.06 -1.63,-5.69 -0.05,-0.4 -0.26,-1.66 -0.09,-3.91 1.34,21.18 32.69,24.79 47.81,25.52 3.7,0.18 7.3,0.18 10.99,0 15.12,-0.73 46.47,-4.34 47.81,-25.52 0.16,2.25 -0.04,3.52 -0.09,3.91 -0.22,1.63 -0.71,3.41 -1.63,5.69 -8.9,21.94 -29.81,24.33 -46.37,25.17 -3.5,0.18 -6.91,0.18 -10.42,0z"></path><path fill="#FFE5AE" d="M98.06 39.69c29.34,0.63 44.29,11.75 50.27,28.84 2.02,5.78 2.43,13.25 2.16,19.35 -0.22,4.86 -0.77,8.77 -1.06,13.17 -0.88,-7.8 -0.2,-19.75 -2.83,-28.91 -2.91,-10.12 -11.2,-18.12 -20.41,-22.83 -8.1,-4.14 -18.55,-6.26 -28.2,-6.46 -0.69,-0.01 -1.38,-0.01 -2.07,0 -9.66,0.2 -20.1,2.31 -28.2,6.46 -9.21,4.71 -17.5,12.7 -20.41,22.83 -2.76,9.64 -1.87,22.35 -2.98,30.09l-0.05 0c-0.25,-4.89 -0.89,-9.05 -1.12,-14.35 -0.27,-6.11 0.14,-13.58 2.16,-19.35 5.99,-17.15 21.02,-28.28 50.55,-28.85 0.74,-0.01 1.46,-0.01 2.2,0.01z"></path></g></svg>